<?xml version="1.0" encoding="UTF-8"?>
<svg xmlns="http://www.w3.org/2000/svg" xmlns:xlink="http://www.w3.org/1999/xlink" width="218.711pt" height="85.155pt" viewBox="0 0 218.711 85.155" version="1.1">
<defs>
<clipPath id="clip1">
  <path d="M 3 0 L 218.710938 0 L 218.710938 85.15625 L 3 85.15625 Z M 3 0 "/>
</clipPath>
<clipPath id="clip2">
  <path d="M 1 68 L 29 68 L 29 85.15625 L 1 85.15625 Z M 1 68 "/>
</clipPath>
<clipPath id="clip3">
  <path d="M 11 58 L 39 58 L 39 85.15625 L 11 85.15625 Z M 11 58 "/>
</clipPath>
<clipPath id="clip4">
  <path d="M 31 58 L 59 58 L 59 85.15625 L 31 85.15625 Z M 31 58 "/>
</clipPath>
<clipPath id="clip5">
  <path d="M 199 0 L 218.710938 0 L 218.710938 17 L 199 17 Z M 199 0 "/>
</clipPath>
<clipPath id="clip6">
  <path d="M 9 82 L 218.710938 82 L 218.710938 83 L 9 83 Z M 9 82 "/>
</clipPath>
<clipPath id="clip7">
  <path d="M 9 2 L 218.710938 2 L 218.710938 4 L 9 4 Z M 9 2 "/>
</clipPath>
</defs>
<g id="surface1">
<g clip-path="url(#clip1)" clip-rule="nonzero">
<path style="fill:none;stroke-width:0.79701;stroke-linecap:butt;stroke-linejoin:miter;stroke:rgb(0%,0%,0%);stroke-opacity:1;stroke-miterlimit:10;" d="M -0.00190625 0.000375 L 9.923875 9.92225 L 19.84575 19.844125 L 29.767625 9.92225 L 49.611375 29.766 L 59.53325 19.844125 L 79.377 39.687875 L 89.298875 29.766 L 99.22075 39.687875 L 109.146531 29.766 L 119.068406 19.844125 L 148.834031 49.60975 L 158.755906 59.535531 L 168.677781 69.457406 L 178.599656 59.535531 L 188.521531 69.457406 L 198.447313 79.379281 " transform="matrix(1,0,0,-1,15.123,82.266)"/>
</g>
<path style=" stroke:none;fill-rule:nonzero;fill:rgb(0%,0%,0%);fill-opacity:1;" d="M 17.613281 82.265625 C 17.613281 80.890625 16.5 79.773438 15.121094 79.773438 C 13.746094 79.773438 12.632812 80.890625 12.632812 82.265625 C 12.632812 83.640625 13.746094 84.757812 15.121094 84.757812 C 16.5 84.757812 17.613281 83.640625 17.613281 82.265625 Z M 17.613281 82.265625 "/>
<g clip-path="url(#clip2)" clip-rule="nonzero">
<path style="fill:none;stroke-width:0.79701;stroke-linecap:butt;stroke-linejoin:miter;stroke:rgb(0%,0%,0%);stroke-opacity:1;stroke-miterlimit:10;" d="M 2.490281 0.000375 C 2.490281 1.375375 1.377 2.492562 -0.00190625 2.492562 C -1.376906 2.492562 -2.490187 1.375375 -2.490187 0.000375 C -2.490187 -1.374625 -1.376906 -2.491813 -0.00190625 -2.491813 C 1.377 -2.491813 2.490281 -1.374625 2.490281 0.000375 Z M 2.490281 0.000375 " transform="matrix(1,0,0,-1,15.123,82.266)"/>
</g>
<path style=" stroke:none;fill-rule:nonzero;fill:rgb(0%,0%,0%);fill-opacity:1;" d="M 27.535156 72.34375 C 27.535156 70.96875 26.421875 69.851562 25.046875 69.851562 C 23.667969 69.851562 22.554688 70.96875 22.554688 72.34375 C 22.554688 73.71875 23.667969 74.835938 25.046875 74.835938 C 26.421875 74.835938 27.535156 73.71875 27.535156 72.34375 Z M 27.535156 72.34375 "/>
<g clip-path="url(#clip3)" clip-rule="nonzero">
<path style="fill:none;stroke-width:0.79701;stroke-linecap:butt;stroke-linejoin:miter;stroke:rgb(0%,0%,0%);stroke-opacity:1;stroke-miterlimit:10;" d="M 12.412156 9.92225 C 12.412156 11.29725 11.298875 12.414437 9.923875 12.414437 C 8.544969 12.414437 7.431688 11.29725 7.431688 9.92225 C 7.431688 8.54725 8.544969 7.430062 9.923875 7.430062 C 11.298875 7.430062 12.412156 8.54725 12.412156 9.92225 Z M 12.412156 9.92225 " transform="matrix(1,0,0,-1,15.123,82.266)"/>
</g>
<path style="fill-rule:nonzero;fill:rgb(0%,0%,0%);fill-opacity:1;stroke-width:0.79701;stroke-linecap:butt;stroke-linejoin:miter;stroke:rgb(0%,0%,0%);stroke-opacity:1;stroke-miterlimit:10;" d="M 22.334031 19.844125 C 22.334031 21.219125 21.22075 22.336312 19.84575 22.336312 C 18.47075 22.336312 17.353563 21.219125 17.353563 19.844125 C 17.353563 18.469125 18.47075 17.351937 19.84575 17.351937 C 21.22075 17.351937 22.334031 18.469125 22.334031 19.844125 Z M 22.334031 19.844125 " transform="matrix(1,0,0,-1,15.123,82.266)"/>
<path style=" stroke:none;fill-rule:nonzero;fill:rgb(0%,0%,0%);fill-opacity:1;" d="M 47.378906 72.34375 C 47.378906 70.96875 46.265625 69.851562 44.890625 69.851562 C 43.515625 69.851562 42.398438 70.96875 42.398438 72.34375 C 42.398438 73.71875 43.515625 74.835938 44.890625 74.835938 C 46.265625 74.835938 47.378906 73.71875 47.378906 72.34375 Z M 47.378906 72.34375 "/>
<g clip-path="url(#clip4)" clip-rule="nonzero">
<path style="fill:none;stroke-width:0.79701;stroke-linecap:butt;stroke-linejoin:miter;stroke:rgb(0%,0%,0%);stroke-opacity:1;stroke-miterlimit:10;" d="M 32.255906 9.92225 C 32.255906 11.29725 31.142625 12.414437 29.767625 12.414437 C 28.392625 12.414437 27.275438 11.29725 27.275438 9.92225 C 27.275438 8.54725 28.392625 7.430062 29.767625 7.430062 C 31.142625 7.430062 32.255906 8.54725 32.255906 9.92225 Z M 32.255906 9.92225 " transform="matrix(1,0,0,-1,15.123,82.266)"/>
</g>
<path style="fill-rule:nonzero;fill:rgb(0%,0%,0%);fill-opacity:1;stroke-width:0.79701;stroke-linecap:butt;stroke-linejoin:miter;stroke:rgb(0%,0%,0%);stroke-opacity:1;stroke-miterlimit:10;" d="M 42.181688 19.844125 C 42.181688 21.219125 41.0645 22.336312 39.6895 22.336312 C 38.3145 22.336312 37.197313 21.219125 37.197313 19.844125 C 37.197313 18.469125 38.3145 17.351937 39.6895 17.351937 C 41.0645 17.351937 42.181688 18.469125 42.181688 19.844125 Z M 42.181688 19.844125 " transform="matrix(1,0,0,-1,15.123,82.266)"/>
<path style="fill-rule:nonzero;fill:rgb(0%,0%,0%);fill-opacity:1;stroke-width:0.79701;stroke-linecap:butt;stroke-linejoin:miter;stroke:rgb(0%,0%,0%);stroke-opacity:1;stroke-miterlimit:10;" d="M 52.103563 29.766 C 52.103563 31.141 50.986375 32.258187 49.611375 32.258187 C 48.236375 32.258187 47.119188 31.141 47.119188 29.766 C 47.119188 28.391 48.236375 27.277719 49.611375 27.277719 C 50.986375 27.277719 52.103563 28.391 52.103563 29.766 Z M 52.103563 29.766 " transform="matrix(1,0,0,-1,15.123,82.266)"/>
<path style="fill-rule:nonzero;fill:rgb(0%,0%,0%);fill-opacity:1;stroke-width:0.79701;stroke-linecap:butt;stroke-linejoin:miter;stroke:rgb(0%,0%,0%);stroke-opacity:1;stroke-miterlimit:10;" d="M 62.025438 19.844125 C 62.025438 21.219125 60.90825 22.336312 59.53325 22.336312 C 58.15825 22.336312 57.041063 21.219125 57.041063 19.844125 C 57.041063 18.469125 58.15825 17.351937 59.53325 17.351937 C 60.90825 17.351937 62.025438 18.469125 62.025438 19.844125 Z M 62.025438 19.844125 " transform="matrix(1,0,0,-1,15.123,82.266)"/>
<path style="fill-rule:nonzero;fill:rgb(0%,0%,0%);fill-opacity:1;stroke-width:0.79701;stroke-linecap:butt;stroke-linejoin:miter;stroke:rgb(0%,0%,0%);stroke-opacity:1;stroke-miterlimit:10;" d="M 71.947312 29.766 C 71.947312 31.141 70.830125 32.258187 69.455125 32.258187 C 68.080125 32.258187 66.966844 31.141 66.966844 29.766 C 66.966844 28.391 68.080125 27.277719 69.455125 27.277719 C 70.830125 27.277719 71.947312 28.391 71.947312 29.766 Z M 71.947312 29.766 " transform="matrix(1,0,0,-1,15.123,82.266)"/>
<path style="fill-rule:nonzero;fill:rgb(0%,0%,0%);fill-opacity:1;stroke-width:0.79701;stroke-linecap:butt;stroke-linejoin:miter;stroke:rgb(0%,0%,0%);stroke-opacity:1;stroke-miterlimit:10;" d="M 81.869187 39.687875 C 81.869187 41.062875 80.752 42.180062 79.377 42.180062 C 78.002 42.180062 76.888719 41.062875 76.888719 39.687875 C 76.888719 38.312875 78.002 37.199594 79.377 37.199594 C 80.752 37.199594 81.869187 38.312875 81.869187 39.687875 Z M 81.869187 39.687875 " transform="matrix(1,0,0,-1,15.123,82.266)"/>
<path style="fill-rule:nonzero;fill:rgb(0%,0%,0%);fill-opacity:1;stroke-width:0.79701;stroke-linecap:butt;stroke-linejoin:miter;stroke:rgb(0%,0%,0%);stroke-opacity:1;stroke-miterlimit:10;" d="M 91.791062 29.766 C 91.791062 31.141 90.677781 32.258187 89.298875 32.258187 C 87.923875 32.258187 86.810594 31.141 86.810594 29.766 C 86.810594 28.391 87.923875 27.277719 89.298875 27.277719 C 90.677781 27.277719 91.791062 28.391 91.791062 29.766 Z M 91.791062 29.766 " transform="matrix(1,0,0,-1,15.123,82.266)"/>
<path style="fill-rule:nonzero;fill:rgb(0%,0%,0%);fill-opacity:1;stroke-width:0.79701;stroke-linecap:butt;stroke-linejoin:miter;stroke:rgb(0%,0%,0%);stroke-opacity:1;stroke-miterlimit:10;" d="M 101.712937 39.687875 C 101.712937 41.062875 100.599656 42.180062 99.22075 42.180062 C 97.84575 42.180062 96.732469 41.062875 96.732469 39.687875 C 96.732469 38.312875 97.84575 37.199594 99.22075 37.199594 C 100.599656 37.199594 101.712937 38.312875 101.712937 39.687875 Z M 101.712937 39.687875 " transform="matrix(1,0,0,-1,15.123,82.266)"/>
<path style="fill-rule:nonzero;fill:rgb(0%,0%,0%);fill-opacity:1;stroke-width:0.79701;stroke-linecap:butt;stroke-linejoin:miter;stroke:rgb(0%,0%,0%);stroke-opacity:1;stroke-miterlimit:10;" d="M 111.634812 29.766 C 111.634812 31.141 110.521531 32.258187 109.146531 32.258187 C 107.767625 32.258187 106.654344 31.141 106.654344 29.766 C 106.654344 28.391 107.767625 27.277719 109.146531 27.277719 C 110.521531 27.277719 111.634812 28.391 111.634812 29.766 Z M 111.634812 29.766 " transform="matrix(1,0,0,-1,15.123,82.266)"/>
<path style="fill-rule:nonzero;fill:rgb(0%,0%,0%);fill-opacity:1;stroke-width:0.79701;stroke-linecap:butt;stroke-linejoin:miter;stroke:rgb(0%,0%,0%);stroke-opacity:1;stroke-miterlimit:10;" d="M 121.556687 19.844125 C 121.556687 21.219125 120.443406 22.336312 119.068406 22.336312 C 117.693406 22.336312 116.576219 21.219125 116.576219 19.844125 C 116.576219 18.469125 117.693406 17.351937 119.068406 17.351937 C 120.443406 17.351937 121.556687 18.469125 121.556687 19.844125 Z M 121.556687 19.844125 " transform="matrix(1,0,0,-1,15.123,82.266)"/>
<path style="fill-rule:nonzero;fill:rgb(0%,0%,0%);fill-opacity:1;stroke-width:0.79701;stroke-linecap:butt;stroke-linejoin:miter;stroke:rgb(0%,0%,0%);stroke-opacity:1;stroke-miterlimit:10;" d="M 131.478563 29.766 C 131.478563 31.141 130.365281 32.258187 128.990281 32.258187 C 127.615281 32.258187 126.498094 31.141 126.498094 29.766 C 126.498094 28.391 127.615281 27.277719 128.990281 27.277719 C 130.365281 27.277719 131.478563 28.391 131.478563 29.766 Z M 131.478563 29.766 " transform="matrix(1,0,0,-1,15.123,82.266)"/>
<path style="fill-rule:nonzero;fill:rgb(0%,0%,0%);fill-opacity:1;stroke-width:0.79701;stroke-linecap:butt;stroke-linejoin:miter;stroke:rgb(0%,0%,0%);stroke-opacity:1;stroke-miterlimit:10;" d="M 141.404344 39.687875 C 141.404344 41.062875 140.287156 42.180062 138.912156 42.180062 C 137.537156 42.180062 136.419969 41.062875 136.419969 39.687875 C 136.419969 38.312875 137.537156 37.199594 138.912156 37.199594 C 140.287156 37.199594 141.404344 38.312875 141.404344 39.687875 Z M 141.404344 39.687875 " transform="matrix(1,0,0,-1,15.123,82.266)"/>
<path style="fill-rule:nonzero;fill:rgb(0%,0%,0%);fill-opacity:1;stroke-width:0.79701;stroke-linecap:butt;stroke-linejoin:miter;stroke:rgb(0%,0%,0%);stroke-opacity:1;stroke-miterlimit:10;" d="M 151.326219 49.60975 C 151.326219 50.988656 150.209031 52.101937 148.834031 52.101937 C 147.459031 52.101937 146.341844 50.988656 146.341844 49.60975 C 146.341844 48.23475 147.459031 47.121469 148.834031 47.121469 C 150.209031 47.121469 151.326219 48.23475 151.326219 49.60975 Z M 151.326219 49.60975 " transform="matrix(1,0,0,-1,15.123,82.266)"/>
<path style="fill-rule:nonzero;fill:rgb(0%,0%,0%);fill-opacity:1;stroke-width:0.79701;stroke-linecap:butt;stroke-linejoin:miter;stroke:rgb(0%,0%,0%);stroke-opacity:1;stroke-miterlimit:10;" d="M 161.248094 59.535531 C 161.248094 60.910531 160.130906 62.023812 158.755906 62.023812 C 157.380906 62.023812 156.263719 60.910531 156.263719 59.535531 C 156.263719 58.156625 157.380906 57.043344 158.755906 57.043344 C 160.130906 57.043344 161.248094 58.156625 161.248094 59.535531 Z M 161.248094 59.535531 " transform="matrix(1,0,0,-1,15.123,82.266)"/>
<path style="fill-rule:nonzero;fill:rgb(0%,0%,0%);fill-opacity:1;stroke-width:0.79701;stroke-linecap:butt;stroke-linejoin:miter;stroke:rgb(0%,0%,0%);stroke-opacity:1;stroke-miterlimit:10;" d="M 171.169969 69.457406 C 171.169969 70.832406 170.052781 71.945687 168.677781 71.945687 C 167.302781 71.945687 166.1895 70.832406 166.1895 69.457406 C 166.1895 68.0785 167.302781 66.965219 168.677781 66.965219 C 170.052781 66.965219 171.169969 68.0785 171.169969 69.457406 Z M 171.169969 69.457406 " transform="matrix(1,0,0,-1,15.123,82.266)"/>
<path style="fill-rule:nonzero;fill:rgb(0%,0%,0%);fill-opacity:1;stroke-width:0.79701;stroke-linecap:butt;stroke-linejoin:miter;stroke:rgb(0%,0%,0%);stroke-opacity:1;stroke-miterlimit:10;" d="M 181.091844 59.535531 C 181.091844 60.910531 179.974656 62.023812 178.599656 62.023812 C 177.224656 62.023812 176.111375 60.910531 176.111375 59.535531 C 176.111375 58.156625 177.224656 57.043344 178.599656 57.043344 C 179.974656 57.043344 181.091844 58.156625 181.091844 59.535531 Z M 181.091844 59.535531 " transform="matrix(1,0,0,-1,15.123,82.266)"/>
<path style="fill-rule:nonzero;fill:rgb(0%,0%,0%);fill-opacity:1;stroke-width:0.79701;stroke-linecap:butt;stroke-linejoin:miter;stroke:rgb(0%,0%,0%);stroke-opacity:1;stroke-miterlimit:10;" d="M 191.013719 69.457406 C 191.013719 70.832406 189.900438 71.945687 188.521531 71.945687 C 187.146531 71.945687 186.03325 70.832406 186.03325 69.457406 C 186.03325 68.0785 187.146531 66.965219 188.521531 66.965219 C 189.900438 66.965219 191.013719 68.0785 191.013719 69.457406 Z M 191.013719 69.457406 " transform="matrix(1,0,0,-1,15.123,82.266)"/>
<path style=" stroke:none;fill-rule:nonzero;fill:rgb(0%,0%,0%);fill-opacity:1;" d="M 216.058594 2.886719 C 216.058594 1.511719 214.945312 0.398438 213.570312 0.398438 C 212.191406 0.398438 211.078125 1.511719 211.078125 2.886719 C 211.078125 4.261719 212.191406 5.378906 213.570312 5.378906 C 214.945312 5.378906 216.058594 4.261719 216.058594 2.886719 Z M 216.058594 2.886719 "/>
<g clip-path="url(#clip5)" clip-rule="nonzero">
<path style="fill:none;stroke-width:0.79701;stroke-linecap:butt;stroke-linejoin:miter;stroke:rgb(0%,0%,0%);stroke-opacity:1;stroke-miterlimit:10;" d="M 200.935594 79.379281 C 200.935594 80.754281 199.822313 81.867562 198.447313 81.867562 C 197.068406 81.867562 195.955125 80.754281 195.955125 79.379281 C 195.955125 78.004281 197.068406 76.887094 198.447313 76.887094 C 199.822313 76.887094 200.935594 78.004281 200.935594 79.379281 Z M 200.935594 79.379281 " transform="matrix(1,0,0,-1,15.123,82.266)"/>
</g>
<g clip-path="url(#clip6)" clip-rule="nonzero">
<path style="fill:none;stroke-width:0.3985;stroke-linecap:butt;stroke-linejoin:miter;stroke:rgb(0%,0%,0%);stroke-opacity:1;stroke-miterlimit:10;" d="M -4.958937 0.000375 L 203.392625 0.000375 " transform="matrix(1,0,0,-1,15.123,82.266)"/>
</g>
<g clip-path="url(#clip7)" clip-rule="nonzero">
<path style="fill:none;stroke-width:0.3985;stroke-linecap:butt;stroke-linejoin:miter;stroke:rgb(0%,0%,0%);stroke-opacity:1;stroke-miterlimit:10;" d="M -4.958937 79.371469 L 203.392625 79.371469 " transform="matrix(1,0,0,-1,15.123,82.266)"/>
</g>
</g>
</svg>
