<?xml version="1.0" encoding="UTF-8"?>
<svg xmlns="http://www.w3.org/2000/svg" xmlns:xlink="http://www.w3.org/1999/xlink" width="105.327pt" height="41.494pt" viewBox="0 0 105.327 41.494" version="1.1">
<defs>
<clipPath id="clip1">
  <path d="M 0 28 L 16 28 L 16 41.492188 L 0 41.492188 Z M 0 28 "/>
</clipPath>
<clipPath id="clip2">
  <path d="M 20 28 L 35 28 L 35 41.492188 L 20 41.492188 Z M 20 28 "/>
</clipPath>
<clipPath id="clip3">
  <path d="M 0 0 L 40 0 L 40 41.492188 L 0 41.492188 Z M 0 0 "/>
</clipPath>
<clipPath id="clip4">
  <path d="M 95 25 L 105.328125 25 L 105.328125 36 L 95 36 Z M 95 25 "/>
</clipPath>
<clipPath id="clip5">
  <path d="M 26 28 L 96 28 L 96 41.492188 L 26 41.492188 Z M 26 28 "/>
</clipPath>
</defs>
<g id="surface1">
<path style="fill-rule:nonzero;fill:rgb(0%,0%,0%);fill-opacity:1;stroke-width:0.3985;stroke-linecap:butt;stroke-linejoin:miter;stroke:rgb(0%,0%,0%);stroke-opacity:1;stroke-miterlimit:10;" d="M -32.521719 17.008531 C -32.521719 17.83275 -33.189687 18.500719 -34.017812 18.500719 C -34.842031 18.500719 -35.51 17.83275 -35.51 17.008531 C -35.51 16.184313 -34.842031 15.512438 -34.017812 15.512438 C -33.189687 15.512438 -32.521719 16.184313 -32.521719 17.008531 Z M -32.521719 17.008531 " transform="matrix(1,0,0,-1,51.885,21.989)"/>
<path style="fill-rule:nonzero;fill:rgb(0%,0%,0%);fill-opacity:1;stroke-width:0.3985;stroke-linecap:butt;stroke-linejoin:miter;stroke:rgb(0%,0%,0%);stroke-opacity:1;stroke-miterlimit:10;" d="M -48.6975 5.254625 C -48.6975 6.08275 -49.365469 6.750719 -50.193594 6.750719 C -51.017812 6.750719 -51.685781 6.08275 -51.685781 5.254625 C -51.685781 4.430406 -51.017812 3.762438 -50.193594 3.762438 C -49.365469 3.762438 -48.6975 4.430406 -48.6975 5.254625 Z M -48.6975 5.254625 " transform="matrix(1,0,0,-1,51.885,21.989)"/>
<path style=" stroke:none;fill-rule:nonzero;fill:rgb(0%,0%,0%);fill-opacity:1;" d="M 9.367188 35.75 C 9.367188 34.921875 8.695312 34.253906 7.871094 34.253906 C 7.046875 34.253906 6.375 34.921875 6.375 35.75 C 6.375 36.574219 7.046875 37.242188 7.871094 37.242188 C 8.695312 37.242188 9.367188 36.574219 9.367188 35.75 Z M 9.367188 35.75 "/>
<g clip-path="url(#clip1)" clip-rule="nonzero">
<path style="fill:none;stroke-width:0.3985;stroke-linecap:butt;stroke-linejoin:miter;stroke:rgb(0%,0%,0%);stroke-opacity:1;stroke-miterlimit:10;" d="M -42.517812 -13.761 C -42.517812 -12.932875 -43.189687 -12.264906 -44.013906 -12.264906 C -44.838125 -12.264906 -45.51 -12.932875 -45.51 -13.761 C -45.51 -14.585219 -44.838125 -15.253187 -44.013906 -15.253187 C -43.189687 -15.253187 -42.517812 -14.585219 -42.517812 -13.761 Z M -42.517812 -13.761 " transform="matrix(1,0,0,-1,51.885,21.989)"/>
</g>
<path style=" stroke:none;fill-rule:nonzero;fill:rgb(0%,0%,0%);fill-opacity:1;" d="M 29.359375 35.75 C 29.359375 34.921875 28.691406 34.253906 27.867188 34.253906 C 27.039062 34.253906 26.371094 34.921875 26.371094 35.75 C 26.371094 36.574219 27.039062 37.242188 27.867188 37.242188 C 28.691406 37.242188 29.359375 36.574219 29.359375 35.75 Z M 29.359375 35.75 "/>
<g clip-path="url(#clip2)" clip-rule="nonzero">
<path style="fill:none;stroke-width:0.3985;stroke-linecap:butt;stroke-linejoin:miter;stroke:rgb(0%,0%,0%);stroke-opacity:1;stroke-miterlimit:10;" d="M -22.525625 -13.761 C -22.525625 -12.932875 -23.193594 -12.264906 -24.017812 -12.264906 C -24.845937 -12.264906 -25.513906 -12.932875 -25.513906 -13.761 C -25.513906 -14.585219 -24.845937 -15.253187 -24.017812 -15.253187 C -23.193594 -15.253187 -22.525625 -14.585219 -22.525625 -13.761 Z M -22.525625 -13.761 " transform="matrix(1,0,0,-1,51.885,21.989)"/>
</g>
<path style="fill-rule:nonzero;fill:rgb(0%,0%,0%);fill-opacity:1;stroke-width:0.3985;stroke-linecap:butt;stroke-linejoin:miter;stroke:rgb(0%,0%,0%);stroke-opacity:1;stroke-miterlimit:10;" d="M -16.345937 5.254625 C -16.345937 6.08275 -17.013906 6.750719 -17.842031 6.750719 C -18.66625 6.750719 -19.334219 6.08275 -19.334219 5.254625 C -19.334219 4.430406 -18.66625 3.762438 -17.842031 3.762438 C -17.013906 3.762438 -16.345937 4.430406 -16.345937 5.254625 Z M -16.345937 5.254625 " transform="matrix(1,0,0,-1,51.885,21.989)"/>
<g clip-path="url(#clip3)" clip-rule="nonzero">
<path style="fill:none;stroke-width:0.3985;stroke-linecap:butt;stroke-linejoin:miter;stroke:rgb(0%,0%,0%);stroke-opacity:1;stroke-miterlimit:10;" d="M -35.385 16.012438 L -48.8225 6.250719 M -49.670156 3.64525 L -44.537344 -12.151625 M -42.318594 -13.761 L -25.713125 -13.761 M -23.494375 -12.151625 L -18.361562 3.64525 M -19.209219 6.250719 L -32.646719 16.012438 " transform="matrix(1,0,0,-1,51.885,21.989)"/>
</g>
<path style=" stroke:none;fill-rule:nonzero;fill:rgb(100%,0%,0%);fill-opacity:1;" d="M 80.921875 9.960938 L 90.882812 9.960938 L 90.882812 0 L 80.921875 0 Z M 80.921875 9.960938 "/>
<path style=" stroke:none;fill-rule:nonzero;fill:rgb(0%,0%,100%);fill-opacity:1;" d="M 77.730469 30.492188 L 71.171875 23.933594 L 64.613281 30.492188 L 71.171875 37.050781 Z M 77.730469 30.492188 "/>
<g clip-path="url(#clip4)" clip-rule="nonzero">
<path style=" stroke:none;fill-rule:nonzero;fill:rgb(0%,100%,0%);fill-opacity:1;" d="M 105.328125 30.492188 C 105.328125 27.898438 103.226562 25.796875 100.632812 25.796875 C 98.039062 25.796875 95.933594 27.898438 95.933594 30.492188 C 95.933594 33.085938 98.039062 35.1875 100.632812 35.1875 C 103.226562 35.1875 105.328125 33.085938 105.328125 30.492188 Z M 105.328125 30.492188 "/>
</g>
<path style="fill:none;stroke-width:0.3985;stroke-linecap:butt;stroke-linejoin:miter;stroke:rgb(0%,0%,0%);stroke-opacity:1;stroke-miterlimit:10;" d="M 31.025156 11.828844 L 21.790781 -4.16725 M 26.126719 -8.503187 L 43.849375 -8.503187 M 46.298594 -4.264906 L 37.009531 11.828844 " transform="matrix(1,0,0,-1,51.885,21.989)"/>
<path style="fill:none;stroke-width:0.3985;stroke-linecap:butt;stroke-linejoin:miter;stroke:rgb(0%,0%,0%);stroke-opacity:1;stroke-miterlimit:10;" d="M -29.627187 15.379625 C -13.217031 9.321031 -2.705312 4.360094 9.310313 -2.651625 " transform="matrix(1,0,0,-1,51.885,21.989)"/>
<path style=" stroke:none;fill-rule:nonzero;fill:rgb(0%,0%,0%);fill-opacity:1;" d="M 64.292969 26.445312 C 63.472656 25.738281 62.285156 24.351562 61.601562 23.148438 L 60.097656 25.730469 C 61.480469 25.730469 63.273438 26.082031 64.292969 26.445312 "/>
<path style="fill:none;stroke-width:0.3985;stroke-linecap:butt;stroke-linejoin:miter;stroke:rgb(0%,0%,0%);stroke-opacity:1;stroke-miterlimit:10;" d="M -45.635 6.317125 C -18.814687 12.590563 -1.646719 15.055406 22.27125 16.379625 " transform="matrix(1,0,0,-1,51.885,21.989)"/>
<path style=" stroke:none;fill-rule:nonzero;fill:rgb(0%,0%,0%);fill-opacity:1;" d="M 77.738281 5.410156 C 76.667969 5.269531 74.910156 4.769531 73.675781 4.140625 L 73.84375 7.125 C 74.996094 6.359375 76.6875 5.667969 77.738281 5.410156 "/>
<path style="fill:none;stroke-width:0.3985;stroke-linecap:butt;stroke-linejoin:miter;stroke:rgb(0%,0%,0%);stroke-opacity:1;stroke-miterlimit:10;" d="M -39.498281 -12.526625 C -21.404531 -7.487562 -8.685781 -6.245375 6.466563 -7.421156 " transform="matrix(1,0,0,-1,51.885,21.989)"/>
<path style=" stroke:none;fill-rule:nonzero;fill:rgb(0%,0%,0%);fill-opacity:1;" d="M 61.929688 29.6875 C 60.882812 29.40625 59.207031 28.675781 58.070312 27.890625 L 57.839844 30.867188 C 59.085938 30.265625 60.851562 29.804688 61.929688 29.6875 "/>
<g clip-path="url(#clip5)" clip-rule="nonzero">
<path style="fill:none;stroke-width:0.3985;stroke-linecap:butt;stroke-linejoin:miter;stroke:rgb(0%,0%,0%);stroke-opacity:1;stroke-miterlimit:10;" d="M -19.427969 -14.678969 C 3.138438 -19.303969 19.431406 -18.331312 37.884531 -12.186781 " transform="matrix(1,0,0,-1,51.885,21.989)"/>
</g>
<path style=" stroke:none;fill-rule:nonzero;fill:rgb(0%,0%,0%);fill-opacity:1;" d="M 93.171875 33.042969 C 92.101562 33.1875 90.273438 33.167969 88.921875 32.882812 L 89.863281 35.71875 C 90.777344 34.679688 92.226562 33.566406 93.171875 33.042969 "/>
<path style="fill:none;stroke-width:0.3985;stroke-linecap:butt;stroke-linejoin:miter;stroke:rgb(0%,0%,0%);stroke-opacity:1;stroke-miterlimit:10;" d="M -13.388906 6.703844 C 0.939219 11.399156 10.954844 13.742906 22.329844 15.371813 " transform="matrix(1,0,0,-1,51.885,21.989)"/>
<path style=" stroke:none;fill-rule:nonzero;fill:rgb(0%,0%,0%);fill-opacity:1;" d="M 77.765625 6.109375 C 76.683594 6.0625 74.890625 5.714844 73.609375 5.195312 L 74.03125 8.152344 C 75.117188 7.292969 76.742188 6.457031 77.765625 6.109375 "/>
</g>
</svg>
