<?xml version="1.0" encoding="UTF-8"?>
<svg xmlns="http://www.w3.org/2000/svg" xmlns:xlink="http://www.w3.org/1999/xlink" width="207.167pt" height="151.849pt" viewBox="0 0 207.167 151.849" version="1.1">
<defs>
<clipPath id="clip1">
  <path d="M 0 74 L 65 74 L 65 151.847656 L 0 151.847656 Z M 0 74 "/>
</clipPath>
<clipPath id="clip2">
  <path d="M 141 74 L 207.167969 74 L 207.167969 151.847656 L 141 151.847656 Z M 141 74 "/>
</clipPath>
<clipPath id="clip3">
  <path d="M 141 0 L 207.167969 0 L 207.167969 55 L 141 55 Z M 141 0 "/>
</clipPath>
<clipPath id="clip4">
  <path d="M 0 97 L 76 97 L 76 151.847656 L 0 151.847656 Z M 0 97 "/>
</clipPath>
<clipPath id="clip5">
  <path d="M 152 97 L 207.167969 97 L 207.167969 151.847656 L 152 151.847656 Z M 152 97 "/>
</clipPath>
<clipPath id="clip6">
  <path d="M 152 0 L 207.167969 0 L 207.167969 78 L 152 78 Z M 152 0 "/>
</clipPath>
<clipPath id="clip7">
  <path d="M 0 0 L 207.167969 0 L 207.167969 151.847656 L 0 151.847656 Z M 0 0 "/>
</clipPath>
<clipPath id="clip8">
  <path d="M 106 0 L 207.167969 0 L 207.167969 121 L 106 121 Z M 106 0 "/>
</clipPath>
<clipPath id="clip9">
  <path d="M 0 0 L 207.167969 0 L 207.167969 151.847656 L 0 151.847656 Z M 0 0 "/>
</clipPath>
<clipPath id="clip10">
  <path d="M 98 0 L 207.167969 0 L 207.167969 102 L 98 102 Z M 98 0 "/>
</clipPath>
</defs>
<g id="surface1">
<path style=" stroke:none;fill-rule:nonzero;fill:rgb(100%,100%,100%);fill-opacity:1;" d="M 24.332031 121.28125 C 24.332031 117.703125 21.433594 114.804688 17.855469 114.804688 C 14.277344 114.804688 11.378906 117.703125 11.378906 121.28125 C 11.378906 124.855469 14.277344 127.753906 17.855469 127.753906 C 21.433594 127.753906 24.332031 124.855469 24.332031 121.28125 Z M 24.332031 121.28125 "/>
<g clip-path="url(#clip1)" clip-rule="nonzero">
<path style="fill:none;stroke-width:2.83466;stroke-linecap:butt;stroke-linejoin:miter;stroke:rgb(0%,0%,0%);stroke-opacity:1;stroke-miterlimit:10;" d="M 0.807031 11.33675 C 0.807031 14.914875 -2.091406 17.813312 -5.669531 17.813312 C -9.247656 17.813312 -12.146094 14.914875 -12.146094 11.33675 C -12.146094 7.762531 -9.247656 4.864094 -5.669531 4.864094 C -2.091406 4.864094 0.807031 7.762531 0.807031 11.33675 Z M 0.807031 11.33675 " transform="matrix(1,0,0,-1,23.525,132.618)"/>
</g>
<path style=" stroke:none;fill-rule:nonzero;fill:rgb(0%,0%,0%);fill-opacity:1;" d="M 194.410156 121.28125 C 194.410156 117.703125 191.511719 114.804688 187.9375 114.804688 C 184.359375 114.804688 181.460938 117.703125 181.460938 121.28125 C 181.460938 124.855469 184.359375 127.753906 187.9375 127.753906 C 191.511719 127.753906 194.410156 124.855469 194.410156 121.28125 Z M 194.410156 121.28125 "/>
<g clip-path="url(#clip2)" clip-rule="nonzero">
<path style="fill:none;stroke-width:2.83466;stroke-linecap:butt;stroke-linejoin:miter;stroke:rgb(0%,0%,0%);stroke-opacity:1;stroke-miterlimit:10;" d="M 170.885156 11.33675 C 170.885156 14.914875 167.986719 17.813312 164.4125 17.813312 C 160.834375 17.813312 157.935937 14.914875 157.935937 11.33675 C 157.935937 7.762531 160.834375 4.864094 164.4125 4.864094 C 167.986719 4.864094 170.885156 7.762531 170.885156 11.33675 Z M 170.885156 11.33675 " transform="matrix(1,0,0,-1,23.525,132.618)"/>
</g>
<path style="fill-rule:nonzero;fill:rgb(100%,100%,100%);fill-opacity:1;stroke-width:2.83466;stroke-linecap:butt;stroke-linejoin:miter;stroke:rgb(0%,0%,0%);stroke-opacity:1;stroke-miterlimit:10;" d="M 57.498438 68.032062 C 57.498438 71.610187 54.6 74.508625 51.025781 74.508625 C 47.447656 74.508625 44.549219 71.610187 44.549219 68.032062 C 44.549219 64.453937 47.447656 61.5555 51.025781 61.5555 C 54.6 61.5555 57.498438 64.453937 57.498438 68.032062 Z M 57.498438 68.032062 " transform="matrix(1,0,0,-1,23.525,132.618)"/>
<path style="fill-rule:nonzero;fill:rgb(100%,100%,100%);fill-opacity:1;stroke-width:2.83466;stroke-linecap:butt;stroke-linejoin:miter;stroke:rgb(0%,0%,0%);stroke-opacity:1;stroke-miterlimit:10;" d="M 114.19375 68.032062 C 114.19375 71.610187 111.295312 74.508625 107.717187 74.508625 C 104.139062 74.508625 101.240625 71.610187 101.240625 68.032062 C 101.240625 64.453937 104.139062 61.5555 107.717187 61.5555 C 111.295312 61.5555 114.19375 64.453937 114.19375 68.032062 Z M 114.19375 68.032062 " transform="matrix(1,0,0,-1,23.525,132.618)"/>
<path style="fill-rule:nonzero;fill:rgb(0%,0%,0%);fill-opacity:1;stroke-width:2.83466;stroke-linecap:butt;stroke-linejoin:miter;stroke:rgb(0%,0%,0%);stroke-opacity:1;stroke-miterlimit:10;" d="M 0.807031 124.727375 C 0.807031 128.301594 -2.091406 131.200031 -5.669531 131.200031 C -9.247656 131.200031 -12.146094 128.301594 -12.146094 124.727375 C -12.146094 121.14925 -9.247656 118.250812 -5.669531 118.250812 C -2.091406 118.250812 0.807031 121.14925 0.807031 124.727375 Z M 0.807031 124.727375 " transform="matrix(1,0,0,-1,23.525,132.618)"/>
<path style=" stroke:none;fill-rule:nonzero;fill:rgb(100%,100%,100%);fill-opacity:1;" d="M 194.410156 7.890625 C 194.410156 4.316406 191.511719 1.417969 187.9375 1.417969 C 184.359375 1.417969 181.460938 4.316406 181.460938 7.890625 C 181.460938 11.46875 184.359375 14.367188 187.9375 14.367188 C 191.511719 14.367188 194.410156 11.46875 194.410156 7.890625 Z M 194.410156 7.890625 "/>
<g clip-path="url(#clip3)" clip-rule="nonzero">
<path style="fill:none;stroke-width:2.83466;stroke-linecap:butt;stroke-linejoin:miter;stroke:rgb(0%,0%,0%);stroke-opacity:1;stroke-miterlimit:10;" d="M 170.885156 124.727375 C 170.885156 128.301594 167.986719 131.200031 164.4125 131.200031 C 160.834375 131.200031 157.935937 128.301594 157.935937 124.727375 C 157.935937 121.14925 160.834375 118.250812 164.4125 118.250812 C 167.986719 118.250812 170.885156 121.14925 170.885156 124.727375 Z M 170.885156 124.727375 " transform="matrix(1,0,0,-1,23.525,132.618)"/>
</g>
<path style=" stroke:none;fill-rule:nonzero;fill:rgb(100%,100%,100%);fill-opacity:1;" d="M 35.671875 143.957031 C 35.671875 140.378906 32.769531 137.480469 29.195312 137.480469 C 25.617188 137.480469 22.71875 140.378906 22.71875 143.957031 C 22.71875 147.53125 25.617188 150.433594 29.195312 150.433594 C 32.769531 150.433594 35.671875 147.53125 35.671875 143.957031 Z M 35.671875 143.957031 "/>
<g clip-path="url(#clip4)" clip-rule="nonzero">
<path style="fill:none;stroke-width:2.83466;stroke-linecap:butt;stroke-linejoin:miter;stroke:rgb(0%,0%,0%);stroke-opacity:1;stroke-miterlimit:10;" d="M 12.146875 -11.339031 C 12.146875 -7.760906 9.244531 -4.862469 5.670313 -4.862469 C 2.092188 -4.862469 -0.80625 -7.760906 -0.80625 -11.339031 C -0.80625 -14.91325 2.092188 -17.815594 5.670313 -17.815594 C 9.244531 -17.815594 12.146875 -14.91325 12.146875 -11.339031 Z M 12.146875 -11.339031 " transform="matrix(1,0,0,-1,23.525,132.618)"/>
</g>
<path style=" stroke:none;fill-rule:nonzero;fill:rgb(0%,0%,0%);fill-opacity:1;" d="M 205.75 143.957031 C 205.75 140.378906 202.851562 137.480469 199.277344 137.480469 C 195.699219 137.480469 192.800781 140.378906 192.800781 143.957031 C 192.800781 147.53125 195.699219 150.433594 199.277344 150.433594 C 202.851562 150.433594 205.75 147.53125 205.75 143.957031 Z M 205.75 143.957031 "/>
<g clip-path="url(#clip5)" clip-rule="nonzero">
<path style="fill:none;stroke-width:2.83466;stroke-linecap:butt;stroke-linejoin:miter;stroke:rgb(0%,0%,0%);stroke-opacity:1;stroke-miterlimit:10;" d="M 182.225 -11.339031 C 182.225 -7.760906 179.326562 -4.862469 175.752344 -4.862469 C 172.174219 -4.862469 169.275781 -7.760906 169.275781 -11.339031 C 169.275781 -14.91325 172.174219 -17.815594 175.752344 -17.815594 C 179.326562 -17.815594 182.225 -14.91325 182.225 -11.339031 Z M 182.225 -11.339031 " transform="matrix(1,0,0,-1,23.525,132.618)"/>
</g>
<path style="fill-rule:nonzero;fill:rgb(0%,0%,0%);fill-opacity:1;stroke-width:2.83466;stroke-linecap:butt;stroke-linejoin:miter;stroke:rgb(0%,0%,0%);stroke-opacity:1;stroke-miterlimit:10;" d="M 68.838281 45.356281 C 68.838281 48.9305 65.939844 51.828937 62.361719 51.828937 C 58.7875 51.828937 55.889063 48.9305 55.889063 45.356281 C 55.889063 41.778156 58.7875 38.879719 62.361719 38.879719 C 65.939844 38.879719 68.838281 41.778156 68.838281 45.356281 Z M 68.838281 45.356281 " transform="matrix(1,0,0,-1,23.525,132.618)"/>
<path style="fill-rule:nonzero;fill:rgb(100%,100%,100%);fill-opacity:1;stroke-width:2.83466;stroke-linecap:butt;stroke-linejoin:miter;stroke:rgb(0%,0%,0%);stroke-opacity:1;stroke-miterlimit:10;" d="M 125.533594 45.356281 C 125.533594 48.9305 122.635156 51.828937 119.057031 51.828937 C 115.478906 51.828937 112.580469 48.9305 112.580469 45.356281 C 112.580469 41.778156 115.478906 38.879719 119.057031 38.879719 C 122.635156 38.879719 125.533594 41.778156 125.533594 45.356281 Z M 125.533594 45.356281 " transform="matrix(1,0,0,-1,23.525,132.618)"/>
<path style="fill-rule:nonzero;fill:rgb(100%,100%,100%);fill-opacity:1;stroke-width:2.83466;stroke-linecap:butt;stroke-linejoin:miter;stroke:rgb(0%,0%,0%);stroke-opacity:1;stroke-miterlimit:10;" d="M 12.146875 102.047687 C 12.146875 105.625812 9.244531 108.52425 5.670313 108.52425 C 2.092188 108.52425 -0.80625 105.625812 -0.80625 102.047687 C -0.80625 98.473469 2.092188 95.571125 5.670313 95.571125 C 9.244531 95.571125 12.146875 98.473469 12.146875 102.047687 Z M 12.146875 102.047687 " transform="matrix(1,0,0,-1,23.525,132.618)"/>
<path style=" stroke:none;fill-rule:nonzero;fill:rgb(100%,100%,100%);fill-opacity:1;" d="M 205.75 30.570312 C 205.75 26.992188 202.851562 24.09375 199.277344 24.09375 C 195.699219 24.09375 192.800781 26.992188 192.800781 30.570312 C 192.800781 34.144531 195.699219 37.046875 199.277344 37.046875 C 202.851562 37.046875 205.75 34.144531 205.75 30.570312 Z M 205.75 30.570312 "/>
<g clip-path="url(#clip6)" clip-rule="nonzero">
<path style="fill:none;stroke-width:2.83466;stroke-linecap:butt;stroke-linejoin:miter;stroke:rgb(0%,0%,0%);stroke-opacity:1;stroke-miterlimit:10;" d="M 182.225 102.047687 C 182.225 105.625812 179.326562 108.52425 175.752344 108.52425 C 172.174219 108.52425 169.275781 105.625812 169.275781 102.047687 C 169.275781 98.473469 172.174219 95.571125 175.752344 95.571125 C 179.326562 95.571125 182.225 98.473469 182.225 102.047687 Z M 182.225 102.047687 " transform="matrix(1,0,0,-1,23.525,132.618)"/>
</g>
<g clip-path="url(#clip7)" clip-rule="nonzero">
<path style="fill:none;stroke-width:2.83466;stroke-linecap:butt;stroke-linejoin:miter;stroke:rgb(0%,0%,0%);stroke-opacity:1;stroke-miterlimit:10;" d="M 2.1625 10.360187 L 167.920312 -10.358563 M 170.615625 -5.346844 L 112.853906 62.039875 M 100.658594 64.500812 L 69.424219 48.883625 M 55.303125 41.825031 L 1.389063 14.868 M -4.689062 19.168781 L 4.689844 94.215656 M 11.982813 97.313312 L 44.709375 72.766437 " transform="matrix(1,0,0,-1,23.525,132.618)"/>
<path style="fill:none;stroke-width:2.83466;stroke-linecap:butt;stroke-linejoin:miter;stroke:rgb(0%,0%,0%);stroke-opacity:1;stroke-miterlimit:10;" d="M 13.482813 103.164875 L 156.596094 123.610187 M 165.064844 116.860187 L 175.096094 -3.471844 " transform="matrix(1,0,0,-1,23.525,132.618)"/>
</g>
<g clip-path="url(#clip8)" clip-rule="nonzero">
<path style="fill:none;stroke-width:2.83466;stroke-linecap:butt;stroke-linejoin:miter;stroke:rgb(0%,0%,0%);stroke-opacity:1;stroke-miterlimit:10;" d="M 122.971094 52.207844 L 160.494531 117.871906 " transform="matrix(1,0,0,-1,23.525,132.618)"/>
</g>
<g clip-path="url(#clip9)" clip-rule="nonzero">
<path style="fill:none;stroke-width:2.83466;stroke-linecap:butt;stroke-linejoin:miter;stroke:rgb(0%,0%,0%);stroke-opacity:1;stroke-miterlimit:10;" d="M 13.482813 -10.221844 L 156.596094 10.223469 M 158.096094 16.075031 L 125.369531 40.618 M 111.56875 47.852375 L 58.510156 65.535969 M 47.107813 61.1805 L 9.584375 -4.487469 M 5.014063 -3.471844 L -5.013281 116.860187 M -0.532812 118.731281 L 57.225 51.348469 " transform="matrix(1,0,0,-1,23.525,132.618)"/>
<path style="fill:none;stroke-width:2.83466;stroke-linecap:butt;stroke-linejoin:miter;stroke:rgb(0%,0%,0%);stroke-opacity:1;stroke-miterlimit:10;" d="M 2.1625 123.746906 L 167.920312 103.028156 M 174.771875 94.215656 L 165.389062 19.168781 " transform="matrix(1,0,0,-1,23.525,132.618)"/>
</g>
<g clip-path="url(#clip10)" clip-rule="nonzero">
<path style="fill:none;stroke-width:2.83466;stroke-linecap:butt;stroke-linejoin:miter;stroke:rgb(0%,0%,0%);stroke-opacity:1;stroke-miterlimit:10;" d="M 114.775781 71.563312 L 168.689844 98.520344 " transform="matrix(1,0,0,-1,23.525,132.618)"/>
</g>
</g>
</svg>
