<?xml version="1.0" encoding="UTF-8"?>
<svg xmlns="http://www.w3.org/2000/svg" xmlns:xlink="http://www.w3.org/1999/xlink" width="141.786pt" height="22.732pt" viewBox="0 0 141.786 22.732" version="1.1">
<defs>
<clipPath id="clip1">
  <path d="M 20 20 L 23 20 L 23 22.730469 L 20 22.730469 Z M 20 20 "/>
</clipPath>
<clipPath id="clip2">
  <path d="M 14 14 L 29 14 L 29 22.730469 L 14 22.730469 Z M 14 14 "/>
</clipPath>
<clipPath id="clip3">
  <path d="M 0 20 L 3 20 L 3 22.730469 L 0 22.730469 Z M 0 20 "/>
</clipPath>
<clipPath id="clip4">
  <path d="M 0 14 L 9 14 L 9 22.730469 L 0 22.730469 Z M 0 14 "/>
</clipPath>
<clipPath id="clip5">
  <path d="M 39 20 L 43 20 L 43 22.730469 L 39 22.730469 Z M 39 20 "/>
</clipPath>
<clipPath id="clip6">
  <path d="M 34 14 L 49 14 L 49 22.730469 L 34 22.730469 Z M 34 14 "/>
</clipPath>
<clipPath id="clip7">
  <path d="M 59 20 L 63 20 L 63 22.730469 L 59 22.730469 Z M 59 20 "/>
</clipPath>
<clipPath id="clip8">
  <path d="M 54 14 L 68 14 L 68 22.730469 L 54 22.730469 Z M 54 14 "/>
</clipPath>
<clipPath id="clip9">
  <path d="M 139 0 L 141.785156 0 L 141.785156 3 L 139 3 Z M 139 0 "/>
</clipPath>
<clipPath id="clip10">
  <path d="M 133 0 L 141.785156 0 L 141.785156 9 L 133 9 Z M 133 0 "/>
</clipPath>
<clipPath id="clip11">
  <path d="M 119 20 L 122 20 L 122 22.730469 L 119 22.730469 Z M 119 20 "/>
</clipPath>
<clipPath id="clip12">
  <path d="M 113 14 L 128 14 L 128 22.730469 L 113 22.730469 Z M 113 14 "/>
</clipPath>
<clipPath id="clip13">
  <path d="M 139 20 L 141.785156 20 L 141.785156 22.730469 L 139 22.730469 Z M 139 20 "/>
</clipPath>
<clipPath id="clip14">
  <path d="M 133 14 L 141.785156 14 L 141.785156 22.730469 L 133 22.730469 Z M 133 14 "/>
</clipPath>
<clipPath id="clip15">
  <path d="M 99 20 L 102 20 L 102 22.730469 L 99 22.730469 Z M 99 20 "/>
</clipPath>
<clipPath id="clip16">
  <path d="M 93 14 L 108 14 L 108 22.730469 L 93 22.730469 Z M 93 14 "/>
</clipPath>
<clipPath id="clip17">
  <path d="M 79 20 L 83 20 L 83 22.730469 L 79 22.730469 Z M 79 20 "/>
</clipPath>
<clipPath id="clip18">
  <path d="M 73 14 L 88 14 L 88 22.730469 L 73 22.730469 Z M 73 14 "/>
</clipPath>
<clipPath id="clip19">
  <path d="M 4 13 L 19 13 L 19 22.730469 L 4 22.730469 Z M 4 13 "/>
</clipPath>
<clipPath id="clip20">
  <path d="M 44 13 L 58 13 L 58 22.730469 L 44 22.730469 Z M 44 13 "/>
</clipPath>
<clipPath id="clip21">
  <path d="M 123 13 L 138 13 L 138 22.730469 L 123 22.730469 Z M 123 13 "/>
</clipPath>
<clipPath id="clip22">
  <path d="M 83 13 L 98 13 L 98 22.730469 L 83 22.730469 Z M 83 13 "/>
</clipPath>
</defs>
<g id="surface1">
<path style="fill-rule:nonzero;fill:rgb(0%,0%,0%);fill-opacity:1;stroke-width:0.3985;stroke-linecap:butt;stroke-linejoin:miter;stroke:rgb(0%,0%,0%);stroke-opacity:1;stroke-miterlimit:10;" d="M 1.246406 19.841687 C 1.246406 20.529187 0.687813 21.087781 0.0003125 21.087781 C -0.687187 21.087781 -1.245781 20.529187 -1.245781 19.841687 C -1.245781 19.154187 -0.687187 18.595594 0.0003125 18.595594 C 0.687813 18.595594 1.246406 19.154187 1.246406 19.841687 Z M 1.246406 19.841687 " transform="matrix(1,0,0,-1,1.445,21.287)"/>
<path style="fill-rule:nonzero;fill:rgb(0%,0%,0%);fill-opacity:1;stroke-width:0.3985;stroke-linecap:butt;stroke-linejoin:miter;stroke:rgb(0%,0%,0%);stroke-opacity:1;stroke-miterlimit:10;" d="M 21.08625 19.841687 C 21.08625 20.529187 20.531562 21.087781 19.844062 21.087781 C 19.156562 21.087781 18.597969 20.529187 18.597969 19.841687 C 18.597969 19.154187 19.156562 18.595594 19.844062 18.595594 C 20.531562 18.595594 21.08625 19.154187 21.08625 19.841687 Z M 21.08625 19.841687 " transform="matrix(1,0,0,-1,1.445,21.287)"/>
<g clip-path="url(#clip1)" clip-rule="nonzero">
<path style=" stroke:none;fill-rule:nonzero;fill:rgb(0%,0%,0%);fill-opacity:1;" d="M 22.53125 21.285156 C 22.53125 20.597656 21.976562 20.042969 21.289062 20.042969 C 20.601562 20.042969 20.042969 20.597656 20.042969 21.285156 C 20.042969 21.976562 20.601562 22.53125 21.289062 22.53125 C 21.976562 22.53125 22.53125 21.976562 22.53125 21.285156 Z M 22.53125 21.285156 "/>
</g>
<g clip-path="url(#clip2)" clip-rule="nonzero">
<path style="fill:none;stroke-width:0.3985;stroke-linecap:butt;stroke-linejoin:miter;stroke:rgb(0%,0%,0%);stroke-opacity:1;stroke-miterlimit:10;" d="M 21.08625 0.00184375 C 21.08625 0.689344 20.531562 1.244031 19.844062 1.244031 C 19.156562 1.244031 18.597969 0.689344 18.597969 0.00184375 C 18.597969 -0.689563 19.156562 -1.24425 19.844062 -1.24425 C 20.531562 -1.24425 21.08625 -0.689563 21.08625 0.00184375 Z M 21.08625 0.00184375 " transform="matrix(1,0,0,-1,1.445,21.287)"/>
</g>
<g clip-path="url(#clip3)" clip-rule="nonzero">
<path style=" stroke:none;fill-rule:nonzero;fill:rgb(0%,0%,0%);fill-opacity:1;" d="M 2.691406 21.285156 C 2.691406 20.597656 2.132812 20.042969 1.445312 20.042969 C 0.757812 20.042969 0.199219 20.597656 0.199219 21.285156 C 0.199219 21.976562 0.757812 22.53125 1.445312 22.53125 C 2.132812 22.53125 2.691406 21.976562 2.691406 21.285156 Z M 2.691406 21.285156 "/>
</g>
<g clip-path="url(#clip4)" clip-rule="nonzero">
<path style="fill:none;stroke-width:0.3985;stroke-linecap:butt;stroke-linejoin:miter;stroke:rgb(0%,0%,0%);stroke-opacity:1;stroke-miterlimit:10;" d="M 1.246406 0.00184375 C 1.246406 0.689344 0.687813 1.244031 0.0003125 1.244031 C -0.687187 1.244031 -1.245781 0.689344 -1.245781 0.00184375 C -1.245781 -0.689563 -0.687187 -1.24425 0.0003125 -1.24425 C 0.687813 -1.24425 1.246406 -0.689563 1.246406 0.00184375 Z M 1.246406 0.00184375 " transform="matrix(1,0,0,-1,1.445,21.287)"/>
</g>
<path style="fill-rule:nonzero;fill:rgb(0%,0%,0%);fill-opacity:1;stroke-width:0.3985;stroke-linecap:butt;stroke-linejoin:miter;stroke:rgb(0%,0%,0%);stroke-opacity:1;stroke-miterlimit:10;" d="M 60.77375 19.841687 C 60.77375 20.529187 60.215156 21.087781 59.527656 21.087781 C 58.840156 21.087781 58.281562 20.529187 58.281562 19.841687 C 58.281562 19.154187 58.840156 18.595594 59.527656 18.595594 C 60.215156 18.595594 60.77375 19.154187 60.77375 19.841687 Z M 60.77375 19.841687 " transform="matrix(1,0,0,-1,1.445,21.287)"/>
<path style="fill-rule:nonzero;fill:rgb(0%,0%,0%);fill-opacity:1;stroke-width:0.3985;stroke-linecap:butt;stroke-linejoin:miter;stroke:rgb(0%,0%,0%);stroke-opacity:1;stroke-miterlimit:10;" d="M 40.93 19.841687 C 40.93 20.529187 40.371406 21.087781 39.683906 21.087781 C 38.996406 21.087781 38.441719 20.529187 38.441719 19.841687 C 38.441719 19.154187 38.996406 18.595594 39.683906 18.595594 C 40.371406 18.595594 40.93 19.154187 40.93 19.841687 Z M 40.93 19.841687 " transform="matrix(1,0,0,-1,1.445,21.287)"/>
<g clip-path="url(#clip5)" clip-rule="nonzero">
<path style=" stroke:none;fill-rule:nonzero;fill:rgb(0%,0%,0%);fill-opacity:1;" d="M 42.375 21.285156 C 42.375 20.597656 41.816406 20.042969 41.128906 20.042969 C 40.441406 20.042969 39.886719 20.597656 39.886719 21.285156 C 39.886719 21.976562 40.441406 22.53125 41.128906 22.53125 C 41.816406 22.53125 42.375 21.976562 42.375 21.285156 Z M 42.375 21.285156 "/>
</g>
<g clip-path="url(#clip6)" clip-rule="nonzero">
<path style="fill:none;stroke-width:0.3985;stroke-linecap:butt;stroke-linejoin:miter;stroke:rgb(0%,0%,0%);stroke-opacity:1;stroke-miterlimit:10;" d="M 40.93 0.00184375 C 40.93 0.689344 40.371406 1.244031 39.683906 1.244031 C 38.996406 1.244031 38.441719 0.689344 38.441719 0.00184375 C 38.441719 -0.689563 38.996406 -1.24425 39.683906 -1.24425 C 40.371406 -1.24425 40.93 -0.689563 40.93 0.00184375 Z M 40.93 0.00184375 " transform="matrix(1,0,0,-1,1.445,21.287)"/>
</g>
<g clip-path="url(#clip7)" clip-rule="nonzero">
<path style=" stroke:none;fill-rule:nonzero;fill:rgb(0%,0%,0%);fill-opacity:1;" d="M 62.21875 21.285156 C 62.21875 20.597656 61.660156 20.042969 60.972656 20.042969 C 60.285156 20.042969 59.726562 20.597656 59.726562 21.285156 C 59.726562 21.976562 60.285156 22.53125 60.972656 22.53125 C 61.660156 22.53125 62.21875 21.976562 62.21875 21.285156 Z M 62.21875 21.285156 "/>
</g>
<g clip-path="url(#clip8)" clip-rule="nonzero">
<path style="fill:none;stroke-width:0.3985;stroke-linecap:butt;stroke-linejoin:miter;stroke:rgb(0%,0%,0%);stroke-opacity:1;stroke-miterlimit:10;" d="M 60.77375 0.00184375 C 60.77375 0.689344 60.215156 1.244031 59.527656 1.244031 C 58.840156 1.244031 58.281562 0.689344 58.281562 0.00184375 C 58.281562 -0.689563 58.840156 -1.24425 59.527656 -1.24425 C 60.215156 -1.24425 60.77375 -0.689563 60.77375 0.00184375 Z M 60.77375 0.00184375 " transform="matrix(1,0,0,-1,1.445,21.287)"/>
</g>
<g clip-path="url(#clip9)" clip-rule="nonzero">
<path style=" stroke:none;fill-rule:nonzero;fill:rgb(0%,0%,0%);fill-opacity:1;" d="M 141.589844 1.445312 C 141.589844 0.757812 141.03125 0.199219 140.34375 0.199219 C 139.65625 0.199219 139.097656 0.757812 139.097656 1.445312 C 139.097656 2.132812 139.65625 2.691406 140.34375 2.691406 C 141.03125 2.691406 141.589844 2.132812 141.589844 1.445312 Z M 141.589844 1.445312 "/>
</g>
<g clip-path="url(#clip10)" clip-rule="nonzero">
<path style="fill:none;stroke-width:0.3985;stroke-linecap:butt;stroke-linejoin:miter;stroke:rgb(0%,0%,0%);stroke-opacity:1;stroke-miterlimit:10;" d="M 140.144844 19.841687 C 140.144844 20.529187 139.58625 21.087781 138.89875 21.087781 C 138.21125 21.087781 137.652656 20.529187 137.652656 19.841687 C 137.652656 19.154187 138.21125 18.595594 138.89875 18.595594 C 139.58625 18.595594 140.144844 19.154187 140.144844 19.841687 Z M 140.144844 19.841687 " transform="matrix(1,0,0,-1,1.445,21.287)"/>
</g>
<path style="fill-rule:nonzero;fill:rgb(0%,0%,0%);fill-opacity:1;stroke-width:0.3985;stroke-linecap:butt;stroke-linejoin:miter;stroke:rgb(0%,0%,0%);stroke-opacity:1;stroke-miterlimit:10;" d="M 120.301094 19.841687 C 120.301094 20.529187 119.7425 21.087781 119.055 21.087781 C 118.3675 21.087781 117.808906 20.529187 117.808906 19.841687 C 117.808906 19.154187 118.3675 18.595594 119.055 18.595594 C 119.7425 18.595594 120.301094 19.154187 120.301094 19.841687 Z M 120.301094 19.841687 " transform="matrix(1,0,0,-1,1.445,21.287)"/>
<g clip-path="url(#clip11)" clip-rule="nonzero">
<path style=" stroke:none;fill-rule:nonzero;fill:rgb(0%,0%,0%);fill-opacity:1;" d="M 121.746094 21.285156 C 121.746094 20.597656 121.1875 20.042969 120.5 20.042969 C 119.8125 20.042969 119.253906 20.597656 119.253906 21.285156 C 119.253906 21.976562 119.8125 22.53125 120.5 22.53125 C 121.1875 22.53125 121.746094 21.976562 121.746094 21.285156 Z M 121.746094 21.285156 "/>
</g>
<g clip-path="url(#clip12)" clip-rule="nonzero">
<path style="fill:none;stroke-width:0.3985;stroke-linecap:butt;stroke-linejoin:miter;stroke:rgb(0%,0%,0%);stroke-opacity:1;stroke-miterlimit:10;" d="M 120.301094 0.00184375 C 120.301094 0.689344 119.7425 1.244031 119.055 1.244031 C 118.3675 1.244031 117.808906 0.689344 117.808906 0.00184375 C 117.808906 -0.689563 118.3675 -1.24425 119.055 -1.24425 C 119.7425 -1.24425 120.301094 -0.689563 120.301094 0.00184375 Z M 120.301094 0.00184375 " transform="matrix(1,0,0,-1,1.445,21.287)"/>
</g>
<g clip-path="url(#clip13)" clip-rule="nonzero">
<path style=" stroke:none;fill-rule:nonzero;fill:rgb(0%,0%,0%);fill-opacity:1;" d="M 141.589844 21.285156 C 141.589844 20.597656 141.03125 20.042969 140.34375 20.042969 C 139.65625 20.042969 139.097656 20.597656 139.097656 21.285156 C 139.097656 21.976562 139.65625 22.53125 140.34375 22.53125 C 141.03125 22.53125 141.589844 21.976562 141.589844 21.285156 Z M 141.589844 21.285156 "/>
</g>
<g clip-path="url(#clip14)" clip-rule="nonzero">
<path style="fill:none;stroke-width:0.3985;stroke-linecap:butt;stroke-linejoin:miter;stroke:rgb(0%,0%,0%);stroke-opacity:1;stroke-miterlimit:10;" d="M 140.144844 0.00184375 C 140.144844 0.689344 139.58625 1.244031 138.89875 1.244031 C 138.21125 1.244031 137.652656 0.689344 137.652656 0.00184375 C 137.652656 -0.689563 138.21125 -1.24425 138.89875 -1.24425 C 139.58625 -1.24425 140.144844 -0.689563 140.144844 0.00184375 Z M 140.144844 0.00184375 " transform="matrix(1,0,0,-1,1.445,21.287)"/>
</g>
<path style="fill-rule:nonzero;fill:rgb(0%,0%,0%);fill-opacity:1;stroke-width:0.3985;stroke-linecap:butt;stroke-linejoin:miter;stroke:rgb(0%,0%,0%);stroke-opacity:1;stroke-miterlimit:10;" d="M 80.6175 19.841687 C 80.6175 20.529187 80.058906 21.087781 79.371406 21.087781 C 78.683906 21.087781 78.125313 20.529187 78.125313 19.841687 C 78.125313 19.154187 78.683906 18.595594 79.371406 18.595594 C 80.058906 18.595594 80.6175 19.154187 80.6175 19.841687 Z M 80.6175 19.841687 " transform="matrix(1,0,0,-1,1.445,21.287)"/>
<path style="fill-rule:nonzero;fill:rgb(0%,0%,0%);fill-opacity:1;stroke-width:0.3985;stroke-linecap:butt;stroke-linejoin:miter;stroke:rgb(0%,0%,0%);stroke-opacity:1;stroke-miterlimit:10;" d="M 100.457344 19.841687 C 100.457344 20.529187 99.902656 21.087781 99.215156 21.087781 C 98.52375 21.087781 97.969063 20.529187 97.969063 19.841687 C 97.969063 19.154187 98.52375 18.595594 99.215156 18.595594 C 99.902656 18.595594 100.457344 19.154187 100.457344 19.841687 Z M 100.457344 19.841687 " transform="matrix(1,0,0,-1,1.445,21.287)"/>
<g clip-path="url(#clip15)" clip-rule="nonzero">
<path style=" stroke:none;fill-rule:nonzero;fill:rgb(0%,0%,0%);fill-opacity:1;" d="M 101.902344 21.285156 C 101.902344 20.597656 101.347656 20.042969 100.660156 20.042969 C 99.96875 20.042969 99.414062 20.597656 99.414062 21.285156 C 99.414062 21.976562 99.96875 22.53125 100.660156 22.53125 C 101.347656 22.53125 101.902344 21.976562 101.902344 21.285156 Z M 101.902344 21.285156 "/>
</g>
<g clip-path="url(#clip16)" clip-rule="nonzero">
<path style="fill:none;stroke-width:0.3985;stroke-linecap:butt;stroke-linejoin:miter;stroke:rgb(0%,0%,0%);stroke-opacity:1;stroke-miterlimit:10;" d="M 100.457344 0.00184375 C 100.457344 0.689344 99.902656 1.244031 99.215156 1.244031 C 98.52375 1.244031 97.969063 0.689344 97.969063 0.00184375 C 97.969063 -0.689563 98.52375 -1.24425 99.215156 -1.24425 C 99.902656 -1.24425 100.457344 -0.689563 100.457344 0.00184375 Z M 100.457344 0.00184375 " transform="matrix(1,0,0,-1,1.445,21.287)"/>
</g>
<g clip-path="url(#clip17)" clip-rule="nonzero">
<path style=" stroke:none;fill-rule:nonzero;fill:rgb(0%,0%,0%);fill-opacity:1;" d="M 82.0625 21.285156 C 82.0625 20.597656 81.503906 20.042969 80.816406 20.042969 C 80.128906 20.042969 79.570312 20.597656 79.570312 21.285156 C 79.570312 21.976562 80.128906 22.53125 80.816406 22.53125 C 81.503906 22.53125 82.0625 21.976562 82.0625 21.285156 Z M 82.0625 21.285156 "/>
</g>
<g clip-path="url(#clip18)" clip-rule="nonzero">
<path style="fill:none;stroke-width:0.3985;stroke-linecap:butt;stroke-linejoin:miter;stroke:rgb(0%,0%,0%);stroke-opacity:1;stroke-miterlimit:10;" d="M 80.6175 0.00184375 C 80.6175 0.689344 80.058906 1.244031 79.371406 1.244031 C 78.683906 1.244031 78.125313 0.689344 78.125313 0.00184375 C 78.125313 -0.689563 78.683906 -1.24425 79.371406 -1.24425 C 80.058906 -1.24425 80.6175 -0.689563 80.6175 0.00184375 Z M 80.6175 0.00184375 " transform="matrix(1,0,0,-1,1.445,21.287)"/>
</g>
<path style="fill:none;stroke-width:0.3985;stroke-linecap:butt;stroke-linejoin:miter;stroke:rgb(0%,0%,0%);stroke-opacity:1;stroke-miterlimit:10;" d="M 1.445625 19.841687 L 18.39875 19.841687 " transform="matrix(1,0,0,-1,1.445,21.287)"/>
<path style="fill:none;stroke-width:0.3985;stroke-linecap:round;stroke-linejoin:miter;stroke:rgb(0%,0%,0%);stroke-opacity:1;stroke-miterlimit:10;" d="M -2.19239 -2.391958 L 0.198235 -0.0013325 L -2.19239 2.389292 " transform="matrix(1,0,0,-1,12.37989,1.44398)"/>
<path style="fill:none;stroke-width:0.3985;stroke-linecap:butt;stroke-linejoin:miter;stroke:rgb(0%,0%,0%);stroke-opacity:1;stroke-miterlimit:10;" d="M 19.844062 1.44325 L 19.844062 18.400281 " transform="matrix(1,0,0,-1,1.445,21.287)"/>
<path style="fill:none;stroke-width:0.3985;stroke-linecap:round;stroke-linejoin:miter;stroke:rgb(0%,0%,0%);stroke-opacity:1;stroke-miterlimit:10;" d="M -2.190869 -2.391637 L 0.199756 -0.0010125 L -2.190869 2.389613 " transform="matrix(0,-1,-1,0,21.28805,10.3521)"/>
<path style="fill:none;stroke-width:0.3985;stroke-linecap:butt;stroke-linejoin:miter;stroke:rgb(0%,0%,0%);stroke-opacity:1;stroke-miterlimit:10;" d="M 1.445625 0.00184375 L 18.39875 0.00184375 " transform="matrix(1,0,0,-1,1.445,21.287)"/>
<g clip-path="url(#clip19)" clip-rule="nonzero">
<path style="fill:none;stroke-width:0.3985;stroke-linecap:round;stroke-linejoin:miter;stroke:rgb(0%,0%,0%);stroke-opacity:1;stroke-miterlimit:10;" d="M -2.19239 -2.392688 L 0.198235 0.00184375 L -2.19239 2.392469 " transform="matrix(1,0,0,-1,12.37989,21.287)"/>
</g>
<path style="fill:none;stroke-width:0.3985;stroke-linecap:butt;stroke-linejoin:miter;stroke:rgb(0%,0%,0%);stroke-opacity:1;stroke-miterlimit:10;" d="M 58.08625 19.841687 L 41.129219 19.841687 " transform="matrix(1,0,0,-1,1.445,21.287)"/>
<path style="fill:none;stroke-width:0.3985;stroke-linecap:round;stroke-linejoin:miter;stroke:rgb(0%,0%,0%);stroke-opacity:1;stroke-miterlimit:10;" d="M -2.191289 -2.389292 L 0.199336 0.0013325 L -2.191289 2.391958 " transform="matrix(-1,0,0,1,50.03918,1.44398)"/>
<path style="fill:none;stroke-width:0.3985;stroke-linecap:butt;stroke-linejoin:miter;stroke:rgb(0%,0%,0%);stroke-opacity:1;stroke-miterlimit:10;" d="M 39.687812 1.44325 L 39.687812 18.400281 " transform="matrix(1,0,0,-1,1.445,21.287)"/>
<path style="fill:none;stroke-width:0.3985;stroke-linecap:round;stroke-linejoin:miter;stroke:rgb(0%,0%,0%);stroke-opacity:1;stroke-miterlimit:10;" d="M -2.190999 -2.392297 L 0.199626 -0.0016725 L -2.190999 2.392859 " transform="matrix(0,-1,-1,0,41.13114,10.35197)"/>
<path style="fill:none;stroke-width:0.3985;stroke-linecap:butt;stroke-linejoin:miter;stroke:rgb(0%,0%,0%);stroke-opacity:1;stroke-miterlimit:10;" d="M 58.08625 0.00184375 L 41.129219 0.00184375 " transform="matrix(1,0,0,-1,1.445,21.287)"/>
<g clip-path="url(#clip20)" clip-rule="nonzero">
<path style="fill:none;stroke-width:0.3985;stroke-linecap:round;stroke-linejoin:miter;stroke:rgb(0%,0%,0%);stroke-opacity:1;stroke-miterlimit:10;" d="M -2.191289 -2.392469 L 0.199336 -0.00184375 L -2.191289 2.392688 " transform="matrix(-1,0,0,1,50.03918,21.287)"/>
</g>
<path style="fill:none;stroke-width:0.3985;stroke-linecap:butt;stroke-linejoin:miter;stroke:rgb(0%,0%,0%);stroke-opacity:1;stroke-miterlimit:10;" d="M 21.289375 19.841687 L 38.2425 19.841687 " transform="matrix(1,0,0,-1,1.445,21.287)"/>
<path style="fill:none;stroke-width:0.3985;stroke-linecap:round;stroke-linejoin:miter;stroke:rgb(0%,0%,0%);stroke-opacity:1;stroke-miterlimit:10;" d="M -2.1917 -2.391958 L 0.198925 -0.0013325 L -2.1917 2.389292 " transform="matrix(1,0,0,-1,32.22295,1.44398)"/>
<path style="fill:none;stroke-width:0.3985;stroke-linecap:butt;stroke-linejoin:miter;stroke:rgb(0%,0%,0%);stroke-opacity:1;stroke-miterlimit:10;" d="M 137.457344 19.841687 L 120.504219 19.841687 " transform="matrix(1,0,0,-1,1.445,21.287)"/>
<path style="fill:none;stroke-width:0.3985;stroke-linecap:round;stroke-linejoin:miter;stroke:rgb(0%,0%,0%);stroke-opacity:1;stroke-miterlimit:10;" d="M -2.190182 -2.389292 L 0.200443 0.0013325 L -2.190182 2.391958 " transform="matrix(-1,0,0,1,129.41138,1.44398)"/>
<path style="fill:none;stroke-width:0.3985;stroke-linecap:butt;stroke-linejoin:miter;stroke:rgb(0%,0%,0%);stroke-opacity:1;stroke-miterlimit:10;" d="M 119.058906 1.44325 L 119.058906 18.400281 " transform="matrix(1,0,0,-1,1.445,21.287)"/>
<path style="fill:none;stroke-width:0.3985;stroke-linecap:round;stroke-linejoin:miter;stroke:rgb(0%,0%,0%);stroke-opacity:1;stroke-miterlimit:10;" d="M -2.190999 -2.391121 L 0.199626 -0.00049625 L -2.190999 2.390129 " transform="matrix(0,-1,-1,0,120.50341,10.35197)"/>
<path style="fill:none;stroke-width:0.3985;stroke-linecap:butt;stroke-linejoin:miter;stroke:rgb(0%,0%,0%);stroke-opacity:1;stroke-miterlimit:10;" d="M 137.457344 0.00184375 L 120.504219 0.00184375 " transform="matrix(1,0,0,-1,1.445,21.287)"/>
<g clip-path="url(#clip21)" clip-rule="nonzero">
<path style="fill:none;stroke-width:0.3985;stroke-linecap:round;stroke-linejoin:miter;stroke:rgb(0%,0%,0%);stroke-opacity:1;stroke-miterlimit:10;" d="M -2.190182 -2.392469 L 0.200443 -0.00184375 L -2.190182 2.392688 " transform="matrix(-1,0,0,1,129.41138,21.287)"/>
</g>
<path style="fill:none;stroke-width:0.3985;stroke-linecap:butt;stroke-linejoin:miter;stroke:rgb(0%,0%,0%);stroke-opacity:1;stroke-miterlimit:10;" d="M 80.816719 19.841687 L 97.769844 19.841687 " transform="matrix(1,0,0,-1,1.445,21.287)"/>
<path style="fill:none;stroke-width:0.3985;stroke-linecap:round;stroke-linejoin:miter;stroke:rgb(0%,0%,0%);stroke-opacity:1;stroke-miterlimit:10;" d="M -2.193506 -2.391958 L 0.201025 -0.0013325 L -2.193506 2.389292 " transform="matrix(1,0,0,-1,91.7521,1.44398)"/>
<path style="fill:none;stroke-width:0.3985;stroke-linecap:butt;stroke-linejoin:miter;stroke:rgb(0%,0%,0%);stroke-opacity:1;stroke-miterlimit:10;" d="M 99.215156 1.44325 L 99.215156 18.400281 " transform="matrix(1,0,0,-1,1.445,21.287)"/>
<path style="fill:none;stroke-width:0.3985;stroke-linecap:round;stroke-linejoin:miter;stroke:rgb(0%,0%,0%);stroke-opacity:1;stroke-miterlimit:10;" d="M -2.190999 -2.390451 L 0.199626 0.00017375 L -2.190999 2.390799 " transform="matrix(0,-1,-1,0,100.66033,10.35197)"/>
<path style="fill:none;stroke-width:0.3985;stroke-linecap:butt;stroke-linejoin:miter;stroke:rgb(0%,0%,0%);stroke-opacity:1;stroke-miterlimit:10;" d="M 80.816719 0.00184375 L 97.769844 0.00184375 " transform="matrix(1,0,0,-1,1.445,21.287)"/>
<g clip-path="url(#clip22)" clip-rule="nonzero">
<path style="fill:none;stroke-width:0.3985;stroke-linecap:round;stroke-linejoin:miter;stroke:rgb(0%,0%,0%);stroke-opacity:1;stroke-miterlimit:10;" d="M -2.193506 -2.392688 L 0.201025 0.00184375 L -2.193506 2.392469 " transform="matrix(1,0,0,-1,91.7521,21.287)"/>
</g>
<path style="fill:none;stroke-width:0.3985;stroke-linecap:butt;stroke-linejoin:miter;stroke:rgb(0%,0%,0%);stroke-opacity:1;stroke-miterlimit:10;" d="M 117.613594 19.841687 L 100.660469 19.841687 " transform="matrix(1,0,0,-1,1.445,21.287)"/>
<path style="fill:none;stroke-width:0.3985;stroke-linecap:round;stroke-linejoin:miter;stroke:rgb(0%,0%,0%);stroke-opacity:1;stroke-miterlimit:10;" d="M -2.193379 -2.389292 L 0.201152 0.0013325 L -2.193379 2.391958 " transform="matrix(-1,0,0,1,109.56834,1.44398)"/>
<path style="fill:none;stroke-width:0.3985;stroke-linecap:butt;stroke-linejoin:miter;stroke:rgb(0%,0%,0%);stroke-opacity:1;stroke-miterlimit:10;" d="M 60.972969 19.841687 L 77.926094 19.841687 " transform="matrix(1,0,0,-1,1.445,21.287)"/>
<path style="fill:none;stroke-width:0.3985;stroke-linecap:round;stroke-linejoin:miter;stroke:rgb(0%,0%,0%);stroke-opacity:1;stroke-miterlimit:10;" d="M -2.1903 -2.391958 L 0.200325 -0.0013325 L -2.1903 2.389292 " transform="matrix(1,0,0,-1,71.90905,1.44398)"/>
</g>
</svg>
