<?xml version="1.0" encoding="UTF-8"?>
<svg xmlns="http://www.w3.org/2000/svg" xmlns:xlink="http://www.w3.org/1999/xlink" width="388pt" height="227pt" viewBox="0 0 388 227" version="1.1">
<g id="surface1">
<rect x="0" y="0" width="388" height="227" style="fill:rgb(100%,100%,100%);fill-opacity:1;stroke:none;"/>
<rect x="0" y="0" width="388" height="227" style="fill:rgb(100%,100%,100%);fill-opacity:1;stroke:none;"/>
<path style=" stroke:none;fill-rule:nonzero;fill:rgb(92.941284%,49.01886%,19.215393%);fill-opacity:0.3098;" d="M 220.609375 226.734375 L 220.609375 0.277344 L 356.417969 0.277344 C 356.417969 113.503906 408.160156 113.503906 378.761719 226.734375 Z M 220.609375 226.734375 "/>
<path style="fill-rule:nonzero;fill:rgb(87.059021%,92.156982%,96.862793%);fill-opacity:0.6392;stroke-width:12700;stroke-linecap:butt;stroke-linejoin:miter;stroke:rgb(35.68573%,60.784912%,83.529663%);stroke-opacity:1;stroke-dasharray:50800,38100;stroke-miterlimit:8;" d="M 1.984375 160850.812978 C 1.984375 72000.425196 72034.79457 17.224374 160835.572978 17.224374 L 506414.46817 17.224374 C 595264.855952 17.224374 667248.056773 72000.425196 667248.056773 160850.812978 L 667248.056773 2129350.749986 C 667248.056773 2218151.528394 595264.855952 2290184.338589 506414.46817 2290184.338589 L 160835.572978 2290184.338589 C 72034.79457 2290184.338589 1.984375 2218151.528394 1.984375 2129350.749986 Z M 1.984375 160850.812978 " transform="matrix(0.0000787402,0,0,0.0000787402,133.2225,30.3463)"/>
<path style="fill-rule:nonzero;fill:rgb(87.059021%,92.156982%,96.862793%);fill-opacity:0.6392;stroke-width:12700;stroke-linecap:butt;stroke-linejoin:miter;stroke:rgb(35.68573%,60.784912%,83.529663%);stroke-opacity:1;stroke-dasharray:50800,38100;stroke-miterlimit:8;" d="M 20.002499 160848.511103 C 20.002499 71998.123321 72003.203321 14.9225 160853.591103 14.9225 L 506432.486294 14.9225 C 595233.264703 14.9225 667266.074897 71998.123321 667266.074897 160848.511103 L 667266.074897 2129348.448111 C 667266.074897 2218149.226519 595233.264703 2290182.036714 506432.486294 2290182.036714 L 160853.591103 2290182.036714 C 72003.203321 2290182.036714 20.002499 2218149.226519 20.002499 2129348.448111 Z M 20.002499 160848.511103 " transform="matrix(0.0000787402,0,0,0.0000787402,221.2328,28.7957)"/>
<path style="fill-rule:nonzero;fill:rgb(87.059021%,92.156982%,96.862793%);fill-opacity:0.6392;stroke-width:12700;stroke-linecap:butt;stroke-linejoin:miter;stroke:rgb(35.68573%,60.784912%,83.529663%);stroke-opacity:1;stroke-dasharray:50800,38100;stroke-miterlimit:8;" d="M -8.5725 160848.511103 C -8.5725 71998.123321 72024.237695 14.9225 160825.016104 14.9225 L 506403.911295 14.9225 C 595254.299077 14.9225 667237.499898 71998.123321 667237.499898 160848.511103 L 667237.499898 2129348.448111 C 667237.499898 2218149.226519 595254.299077 2290182.036714 506403.911295 2290182.036714 L 160825.016104 2290182.036714 C 72024.237695 2290182.036714 -8.5725 2218149.226519 -8.5725 2129348.448111 Z M -8.5725 160848.511103 " transform="matrix(0.0000787402,0,0,0.0000787402,44.9538,28.7957)"/>
<path style="fill-rule:nonzero;fill:rgb(75.294495%,0%,0%);fill-opacity:1;stroke-width:12700;stroke-linecap:butt;stroke-linejoin:miter;stroke:rgb(75.294495%,0%,0%);stroke-opacity:1;stroke-miterlimit:8;" d="M -2.8575 45709.600412 C -2.8575 20458.429345 20485.813719 19.367499 45736.984786 19.367499 C 70988.155853 19.367499 91427.217699 20458.429345 91427.217699 45709.600412 C 91427.217699 70960.771479 70988.155853 91449.442699 45736.984786 91449.442699 C 20485.813719 91449.442699 -2.8575 70960.771479 -2.8575 45709.600412 Z M -2.8575 45709.600412 " transform="matrix(0.0000787402,0,0,0.0000787402,0.6096,103.5141)"/>
<path style="fill-rule:nonzero;fill:rgb(43.920898%,18.823242%,62.745667%);fill-opacity:1;stroke-width:12700;stroke-linecap:butt;stroke-linejoin:miter;stroke:rgb(43.920898%,18.823242%,62.745667%);stroke-opacity:1;stroke-miterlimit:8;" d="M -5.159375 45738.731036 C -5.159375 20487.559969 20483.511845 -1.11125 45734.682911 -1.11125 C 70985.853978 -1.11125 91424.915824 20487.559969 91424.915824 45738.731036 C 91424.915824 70989.902103 70985.853978 91428.963949 45734.682911 91428.963949 C 20483.511845 91428.963949 -5.159375 70989.902103 -5.159375 45738.731036 Z M -5.159375 45738.731036 " transform="matrix(0.0000787402,0,0,0.0000787402,67.3715,65.8829)"/>
<path style="fill-rule:nonzero;fill:rgb(43.920898%,18.823242%,62.745667%);fill-opacity:1;stroke-width:12700;stroke-linecap:butt;stroke-linejoin:miter;stroke:rgb(43.920898%,18.823242%,62.745667%);stroke-opacity:1;stroke-miterlimit:8;" d="M 10.00125 45718.807912 C 10.00125 20467.636845 20449.063096 -21.034374 45700.234163 -21.034374 C 70951.40523 -21.034374 91440.076449 20467.636845 91440.076449 45718.807912 C 91440.076449 70969.978979 70951.40523 91458.650198 45700.234163 91458.650198 C 20449.063096 91458.650198 10.00125 70969.978979 10.00125 45718.807912 Z M 10.00125 45718.807912 " transform="matrix(0.0000787402,0,0,0.0000787402,57.0539,109.029)"/>
<path style="fill-rule:nonzero;fill:rgb(43.920898%,18.823242%,62.745667%);fill-opacity:1;stroke-width:12700;stroke-linecap:butt;stroke-linejoin:miter;stroke:rgb(43.920898%,18.823242%,62.745667%);stroke-opacity:1;stroke-miterlimit:8;" d="M 14.684375 45702.853538 C 14.684375 20451.682471 20453.74622 12.620625 45704.917287 12.620625 C 70956.088354 12.620625 91444.759574 20451.682471 91444.759574 45702.853538 C 91444.759574 70954.024604 70956.088354 91442.695824 45704.917287 91442.695824 C 20453.74622 91442.695824 14.684375 70954.024604 14.684375 45702.853538 Z M 14.684375 45702.853538 " transform="matrix(0.0000787402,0,0,0.0000787402,70.9715,152.2451)"/>
<path style="fill-rule:nonzero;fill:rgb(26.66626%,44.7052%,76.863098%);fill-opacity:1;stroke-width:12700;stroke-linecap:butt;stroke-linejoin:miter;stroke:rgb(26.66626%,44.7052%,76.863098%);stroke-opacity:1;stroke-miterlimit:8;" d="M 6.50875 45699.837288 C 6.50875 20448.666221 20445.570596 9.604375 45696.741663 9.604375 C 70947.91273 9.604375 91436.583949 20448.666221 91436.583949 45699.837288 C 91436.583949 70951.008355 70947.91273 91439.679574 45696.741663 91439.679574 C 20445.570596 91439.679574 6.50875 70951.008355 6.50875 45699.837288 Z M 6.50875 45699.837288 " transform="matrix(0.0000787402,0,0,0.0000787402,159.1323,42.9094)"/>
<path style="fill-rule:nonzero;fill:rgb(26.66626%,44.7052%,76.863098%);fill-opacity:1;stroke-width:12700;stroke-linecap:butt;stroke-linejoin:miter;stroke:rgb(26.66626%,44.7052%,76.863098%);stroke-opacity:1;stroke-miterlimit:8;" d="M -8.41375 45735.873536 C -8.41375 20484.702469 20480.25747 -3.96875 45731.428537 -3.96875 C 70982.599604 -3.96875 91421.66145 20484.702469 91421.66145 45735.873536 C 91421.66145 70987.044603 70982.599604 91426.106449 45731.428537 91426.106449 C 20480.25747 91426.106449 -8.41375 70987.044603 -8.41375 45735.873536 Z M -8.41375 45735.873536 " transform="matrix(0.0000787402,0,0,0.0000787402,148.0866,90.8675)"/>
<path style="fill-rule:nonzero;fill:rgb(26.66626%,44.7052%,76.863098%);fill-opacity:1;stroke-width:12700;stroke-linecap:butt;stroke-linejoin:miter;stroke:rgb(26.66626%,44.7052%,76.863098%);stroke-opacity:1;stroke-miterlimit:8;" d="M -7.064375 45697.297288 C -7.064375 20446.126221 20481.606845 7.064375 45732.777912 7.064375 C 70983.948979 7.064375 91423.010824 20446.126221 91423.010824 45697.297288 C 91423.010824 70948.468355 70983.948979 91437.139574 45732.777912 91437.139574 C 20481.606845 91437.139574 -7.064375 70948.468355 -7.064375 45697.297288 Z M -7.064375 45697.297288 " transform="matrix(0.0000787402,0,0,0.0000787402,165.2779,132.4096)"/>
<path style="fill-rule:nonzero;fill:rgb(26.66626%,44.7052%,76.863098%);fill-opacity:1;stroke-width:12700;stroke-linecap:butt;stroke-linejoin:miter;stroke:rgb(26.66626%,44.7052%,76.863098%);stroke-opacity:1;stroke-miterlimit:8;" d="M 11.43 45728.650412 C 11.43 20477.479345 20450.491846 -11.191875 45701.662913 -11.191875 C 70952.83398 -11.191875 91441.505199 20477.479345 91441.505199 45728.650412 C 91441.505199 70979.821479 70952.83398 91418.883325 45701.662913 91418.883325 C 20450.491846 91418.883325 11.43 70979.821479 11.43 45728.650412 Z M 11.43 45728.650412 " transform="matrix(0.0000787402,0,0,0.0000787402,151.6866,176.1376)"/>
<path style="fill-rule:nonzero;fill:rgb(26.66626%,44.7052%,76.863098%);fill-opacity:1;stroke-width:12700;stroke-linecap:butt;stroke-linejoin:miter;stroke:rgb(26.66626%,44.7052%,76.863098%);stroke-opacity:1;stroke-miterlimit:8;" d="M -10.080625 45709.044787 C -10.080625 20457.87372 20478.590595 18.811874 45729.761662 18.811874 C 70980.932729 18.811874 91419.994575 20457.87372 91419.994575 45709.044787 C 91419.994575 70960.215854 70980.932729 91448.887074 45729.761662 91448.887074 C 20478.590595 91448.887074 -10.080625 70960.215854 -10.080625 45709.044787 Z M -10.080625 45709.044787 " transform="matrix(0.0000787402,0,0,0.0000787402,242.6297,65.2368)"/>
<path style="fill-rule:nonzero;fill:rgb(26.66626%,44.7052%,76.863098%);fill-opacity:1;stroke-width:12700;stroke-linecap:butt;stroke-linejoin:miter;stroke:rgb(26.66626%,44.7052%,76.863098%);stroke-opacity:1;stroke-miterlimit:8;" d="M 4.7625 45720.554162 C 4.7625 20469.383095 20493.433719 -19.288124 45744.604786 -19.288124 C 70946.16648 -19.288124 91434.837699 20469.383095 91434.837699 45720.554162 C 91434.837699 70971.725229 70946.16648 91460.396448 45744.604786 91460.396448 C 20493.433719 91460.396448 4.7625 70971.725229 4.7625 45720.554162 Z M 4.7625 45720.554162 " transform="matrix(0.0000787402,0,0,0.0000787402,227.984,114.3648)"/>
<path style="fill-rule:nonzero;fill:rgb(26.66626%,44.7052%,76.863098%);fill-opacity:1;stroke-width:12700;stroke-linecap:butt;stroke-linejoin:miter;stroke:rgb(26.66626%,44.7052%,76.863098%);stroke-opacity:1;stroke-miterlimit:8;" d="M 3.65125 45708.965412 C 3.65125 20457.794345 20492.322469 18.732499 45743.493536 18.732499 C 70994.664603 18.732499 91433.726449 20457.794345 91433.726449 45708.965412 C 91433.726449 70960.136479 70994.664603 91448.807699 45743.493536 91448.807699 C 20492.322469 91448.807699 3.65125 70960.136479 3.65125 45708.965412 Z M 3.65125 45708.965412 " transform="matrix(0.0000787402,0,0,0.0000787402,256.9919,165.4829)"/>
<path style="fill:none;stroke-width:12700;stroke-linecap:butt;stroke-linejoin:miter;stroke:rgb(75.294495%,0%,0%);stroke-opacity:1;stroke-miterlimit:8;" d="M -16.430624 -23.018749 L 783216.356812 413272.67115 " transform="matrix(0.0000787402,0,0,-0.0000787402,6.7552,104.5685)"/>
<path style="fill:none;stroke-width:12700;stroke-linecap:butt;stroke-linejoin:miter;stroke:rgb(75.294495%,0%,0%);stroke-opacity:1;stroke-miterlimit:8;" d="M -10.00125 1.190625 L 625415.369362 70049.625883 " transform="matrix(-0.0000787402,0,0,-0.0000787402,57.0539,112.629)"/>
<path style="fill:none;stroke-width:12700;stroke-linecap:butt;stroke-linejoin:miter;stroke:rgb(75.294495%,0%,0%);stroke-opacity:1;stroke-miterlimit:8;" d="M -14.684375 17.144999 L 815563.414527 586548.766855 " transform="matrix(-0.0000787402,0,0,-0.0000787402,70.9715,155.8451)"/>
<path style="fill:none;stroke-width:12700;stroke-linecap:butt;stroke-linejoin:miter;stroke:rgb(26.66626%,44.7052%,76.863098%);stroke-opacity:1;stroke-miterlimit:8;" d="M -15.08125 18.732499 L 933633.326374 317320.284846 " transform="matrix(0.0000787402,0,0,0.0000787402,74.5715,69.4829)"/>
<path style="fill:none;stroke-width:12700;stroke-linecap:butt;stroke-linejoin:miter;stroke:rgb(26.66626%,44.7052%,76.863098%);stroke-opacity:1;stroke-miterlimit:8;" d="M -15.08125 -18.732499 L 1073928.634384 291783.601913 " transform="matrix(0.0000787402,0,0,-0.0000787402,74.5715,69.4829)"/>
<path style="fill:none;stroke-width:12700;stroke-linecap:butt;stroke-linejoin:miter;stroke:rgb(26.66626%,44.7052%,76.863098%);stroke-opacity:1;stroke-miterlimit:8;" d="M 7.064375 22.701249 L 1283004.679569 296934.801123 " transform="matrix(-0.0000787402,0,0,-0.0000787402,165.2779,136.0096)"/>
<path style="fill:none;stroke-width:12700;stroke-linecap:butt;stroke-linejoin:miter;stroke:rgb(26.66626%,44.7052%,76.863098%);stroke-opacity:1;stroke-miterlimit:8;" d="M -15.08125 7.540625 L 960422.388016 238777.454859 " transform="matrix(-0.0000787402,0,0,-0.0000787402,152.741,177.192)"/>
<path style="fill:none;stroke-width:12700;stroke-linecap:butt;stroke-linejoin:miter;stroke:rgb(26.66626%,44.7052%,76.863098%);stroke-opacity:1;stroke-miterlimit:8;" d="M 4.7625 -17.541874 L 901307.858658 747149.231091 " transform="matrix(-0.0000787402,0,0,0.0000787402,149.141,97.0131)"/>
<path style="fill:none;stroke-width:12700;stroke-linecap:butt;stroke-linejoin:miter;stroke:rgb(26.66626%,44.7052%,76.863098%);stroke-opacity:1;stroke-miterlimit:8;" d="M 10.080625 -10.95375 L 1109275.670128 325525.754583 " transform="matrix(-0.0000787402,0,0,0.0000787402,242.6297,68.8368)"/>
<path style="fill:none;stroke-width:12700;stroke-linecap:butt;stroke-linejoin:miter;stroke:rgb(26.66626%,44.7052%,76.863098%);stroke-opacity:1;stroke-miterlimit:8;" d="M -8.41375 15.636874 L 809765.388463 842829.281779 " transform="matrix(-0.0000787402,0,0,-0.0000787402,229.0384,115.4192)"/>
<path style="fill:none;stroke-width:12700;stroke-linecap:butt;stroke-linejoin:miter;stroke:rgb(26.66626%,44.7052%,76.863098%);stroke-opacity:1;stroke-miterlimit:8;" d="M -7.064375 13.255625 L 995752.278761 283580.43405 " transform="matrix(0.0000787402,0,0,0.0000787402,165.2779,43.9638)"/>
<path style="fill:none;stroke-width:12700;stroke-linecap:butt;stroke-linejoin:miter;stroke:rgb(26.66626%,44.7052%,76.863098%);stroke-opacity:1;stroke-miterlimit:8;" d="M -7.3025 -22.383749 L 1086735.631474 387724.478843 " transform="matrix(-0.0000787402,0,0,-0.0000787402,258.0463,166.5373)"/>
<path style="fill:none;stroke-width:12700;stroke-linecap:butt;stroke-linejoin:miter;stroke:rgb(26.66626%,44.7052%,76.863098%);stroke-opacity:1;stroke-miterlimit:8;" d="M -3.65125 -11.033125 L 1245935.762005 135323.337545 " transform="matrix(-0.0000787402,0,0,0.0000787402,256.9919,169.0829)"/>
<path style="fill:none;stroke-width:12700;stroke-linecap:butt;stroke-linejoin:miter;stroke:rgb(26.66626%,44.7052%,76.863098%);stroke-opacity:1;stroke-miterlimit:8;" d="M 2.778125 -12.620625 L 808734.783495 56641.283812 " transform="matrix(-0.0000787402,0,0,0.0000787402,298.8635,113.5049)"/>
<path style="fill:none;stroke-width:12700;stroke-linecap:butt;stroke-linejoin:miter;stroke:rgb(26.66626%,44.7052%,76.863098%);stroke-opacity:1;stroke-miterlimit:8;" d="M 2.778125 0.47625 L 822129.314317 237678.984269 " transform="matrix(-0.0000787402,0,0,-0.0000787402,298.8635,139.2266)"/>
<path style="fill:none;stroke-width:12700;stroke-linecap:butt;stroke-linejoin:miter;stroke:rgb(26.66626%,44.7052%,76.863098%);stroke-opacity:1;stroke-miterlimit:8;" d="M 8.5725 1.031875 L 804920.656118 206475.244018 " transform="matrix(-0.0000787402,0,0,-0.0000787402,326.5163,187.8868)"/>
<path style="fill:none;stroke-width:12700;stroke-linecap:butt;stroke-linejoin:miter;stroke:rgb(26.66626%,44.7052%,76.863098%);stroke-opacity:1;stroke-miterlimit:8;" d="M 18.891249 -12.461875 L 768170.429169 239303.155467 " transform="matrix(-0.0000787402,0,0,0.0000787402,309.2593,47.4502)"/>
<path style="fill:none;stroke-width:12700;stroke-linecap:butt;stroke-linejoin:miter;stroke:rgb(26.66626%,44.7052%,76.863098%);stroke-opacity:1;stroke-miterlimit:8;" d="M -2.143125 7.540625 L 140293.164886 477299.322226 " transform="matrix(0.0000787402,0,0,-0.0000787402,157.8322,177.192)"/>
<path style="fill:none;stroke-width:12700;stroke-linecap:butt;stroke-linejoin:miter;stroke:rgb(26.66626%,44.7052%,76.863098%);stroke-opacity:1;stroke-miterlimit:8;" d="M -23.494999 -18.732499 L 182390.171039 1181676.542186 " transform="matrix(-0.0000787402,0,0,-0.0000787402,260.5919,165.4829)"/>
<path style="fill:none;stroke-width:12700;stroke-linecap:butt;stroke-linejoin:miter;stroke:rgb(26.66626%,44.7052%,76.863098%);stroke-opacity:1;stroke-miterlimit:8;" d="M -23.256874 -0.3175 L 78061.896877 1045219.570928 " transform="matrix(0.0000787402,0,0,0.0000787402,162.7323,50.1094)"/>
<path style="fill-rule:nonzero;fill:rgb(43.920898%,18.823242%,62.745667%);fill-opacity:1;stroke-width:12700;stroke-linecap:butt;stroke-linejoin:miter;stroke:rgb(43.920898%,18.823242%,62.745667%);stroke-opacity:1;stroke-miterlimit:8;" d="M -5.953125 45738.810411 C -5.953125 20487.639344 20482.718095 -1.031875 45733.889162 -1.031875 C 70985.060228 -1.031875 91424.122074 20487.639344 91424.122074 45738.810411 C 91424.122074 70989.981478 70985.060228 91429.043324 45733.889162 91429.043324 C 20482.718095 91429.043324 -5.953125 70989.981478 -5.953125 45738.810411 Z M -5.953125 45738.810411 " transform="matrix(0.0000787402,0,0,0.0000787402,62.5825,187.8868)"/>
<path style="fill:none;stroke-width:12700;stroke-linecap:butt;stroke-linejoin:miter;stroke:rgb(75.294495%,0%,0%);stroke-opacity:1;stroke-miterlimit:8;" d="M 2.301875 -2.619375 L 722413.997508 1006869.223405 " transform="matrix(-0.0000787402,0,0,-0.0000787402,63.6369,188.9412)"/>
<path style="fill:none;stroke-width:12700;stroke-linecap:butt;stroke-linejoin:miter;stroke:rgb(26.66626%,44.7052%,76.863098%);stroke-opacity:1;stroke-miterlimit:8;" d="M -8.41375 16.748124 L 904320.854187 719848.75634 " transform="matrix(-0.0000787402,0,0,0.0000787402,229.0384,120.5104)"/>
</g>
</svg>
