<?xml version="1.0" encoding="UTF-8"?>
<svg xmlns="http://www.w3.org/2000/svg" xmlns:xlink="http://www.w3.org/1999/xlink" width="73.729pt" height="70.139pt" viewBox="0 0 73.729 70.139" version="1.1">
<defs>
<clipPath id="clip1">
  <path d="M 0 0 L 73.730469 0 L 73.730469 70 L 0 70 Z M 0 0 "/>
</clipPath>
<clipPath id="clip2">
  <path d="M 0 37 L 42 37 L 42 70.140625 L 0 70.140625 Z M 0 37 "/>
</clipPath>
<clipPath id="clip3">
  <path d="M 32 37 L 73.730469 37 L 73.730469 70.140625 L 32 70.140625 Z M 32 37 "/>
</clipPath>
<clipPath id="clip4">
  <path d="M 39 35 L 73.730469 35 L 73.730469 50 L 39 50 Z M 39 35 "/>
</clipPath>
<clipPath id="clip5">
  <path d="M 51 0 L 73.730469 0 L 73.730469 47 L 51 47 Z M 51 0 "/>
</clipPath>
<clipPath id="clip6">
  <path d="M 43 22 L 73.730469 22 L 73.730469 47 L 43 47 Z M 43 22 "/>
</clipPath>
</defs>
<g id="surface1">
<g clip-path="url(#clip1)" clip-rule="nonzero">
<path style=" stroke:none;fill-rule:evenodd;fill:rgb(75%,75%,100%);fill-opacity:1;" d="M 36.863281 15.511719 L 21.765625 26.484375 L 27.535156 44.230469 L 46.195312 44.230469 L 51.960938 26.484375 Z M 59.523438 0.199219 L 14.203125 0.199219 L 0.199219 43.300781 L 36.863281 69.941406 L 73.53125 43.300781 Z M 54.191406 7.539062 L 19.535156 7.539062 L 8.824219 40.5 L 36.863281 60.871094 L 64.902344 40.5 Z M 54.191406 7.539062 "/>
</g>
<path style="fill:none;stroke-width:0.3985;stroke-linecap:butt;stroke-linejoin:miter;stroke:rgb(0%,0%,50%);stroke-opacity:1;stroke-dasharray:2.98883,2.98883;stroke-miterlimit:10;" d="M -0.00071875 15.876281 L -15.098375 4.903625 L -9.328844 -12.842469 L 9.331313 -12.842469 L 15.096938 4.903625 Z M 22.659438 31.188781 L -22.660875 31.188781 L -36.664781 -11.912781 L -0.00071875 -38.553406 L 36.66725 -11.912781 Z M 17.327406 23.848937 L -17.328844 23.848937 L -28.039781 -9.112 L -0.00071875 -29.483094 L 28.038344 -9.112 Z M 17.327406 23.848937 " transform="matrix(1,0,0,-1,36.864,31.388)"/>
<path style=" stroke:none;fill-rule:nonzero;fill:rgb(0%,0%,0%);fill-opacity:1;" d="M 38.273438 20.050781 C 38.273438 19.269531 37.640625 18.640625 36.863281 18.640625 C 36.085938 18.640625 35.453125 19.269531 35.453125 20.050781 C 35.453125 20.828125 36.085938 21.457031 36.863281 21.457031 C 37.640625 21.457031 38.273438 20.828125 38.273438 20.050781 Z M 38.273438 20.050781 "/>
<path style=" stroke:none;fill-rule:nonzero;fill:rgb(0%,0%,0%);fill-opacity:1;" d="M 46.027344 10.078125 C 46.027344 9.300781 45.398438 8.667969 44.621094 8.667969 C 43.84375 8.667969 43.210938 9.300781 43.210938 10.078125 C 43.210938 10.855469 43.84375 11.488281 44.621094 11.488281 C 45.398438 11.488281 46.027344 10.855469 46.027344 10.078125 Z M 46.027344 10.078125 "/>
<path style=" stroke:none;fill-rule:nonzero;fill:rgb(0%,0%,0%);fill-opacity:1;" d="M 30.515625 10.078125 C 30.515625 9.300781 29.886719 8.667969 29.109375 8.667969 C 28.328125 8.667969 27.699219 9.300781 27.699219 10.078125 C 27.699219 10.855469 28.328125 11.488281 29.109375 11.488281 C 29.886719 11.488281 30.515625 10.855469 30.515625 10.078125 Z M 30.515625 10.078125 "/>
<path style=" stroke:none;fill-rule:nonzero;fill:rgb(0%,0%,0%);fill-opacity:1;" d="M 58.265625 3.867188 C 58.265625 3.089844 57.636719 2.460938 56.859375 2.460938 C 56.078125 2.460938 55.449219 3.089844 55.449219 3.867188 C 55.449219 4.648438 56.078125 5.277344 56.859375 5.277344 C 57.636719 5.277344 58.265625 4.648438 58.265625 3.867188 Z M 58.265625 3.867188 "/>
<path style=" stroke:none;fill-rule:nonzero;fill:rgb(0%,0%,0%);fill-opacity:1;" d="M 27.488281 27.882812 C 27.488281 27.105469 26.859375 26.476562 26.082031 26.476562 C 25.300781 26.476562 24.671875 27.105469 24.671875 27.882812 C 24.671875 28.664062 25.300781 29.292969 26.082031 29.292969 C 26.859375 29.292969 27.488281 28.664062 27.488281 27.882812 Z M 27.488281 27.882812 "/>
<path style=" stroke:none;fill-rule:nonzero;fill:rgb(0%,0%,0%);fill-opacity:1;" d="M 20.402344 17.425781 C 20.402344 16.648438 19.773438 16.015625 18.996094 16.015625 C 18.214844 16.015625 17.585938 16.648438 17.585938 17.425781 C 17.585938 18.203125 18.214844 18.835938 18.996094 18.835938 C 19.773438 18.835938 20.402344 18.203125 20.402344 17.425781 Z M 20.402344 17.425781 "/>
<path style=" stroke:none;fill-rule:nonzero;fill:rgb(0%,0%,0%);fill-opacity:1;" d="M 15.609375 32.179688 C 15.609375 31.402344 14.980469 30.769531 14.199219 30.769531 C 13.421875 30.769531 12.792969 31.402344 12.792969 32.179688 C 12.792969 32.957031 13.421875 33.589844 14.199219 33.589844 C 14.980469 33.589844 15.609375 32.957031 15.609375 32.179688 Z M 15.609375 32.179688 "/>
<path style=" stroke:none;fill-rule:nonzero;fill:rgb(0%,0%,0%);fill-opacity:1;" d="M 18.277344 3.867188 C 18.277344 3.089844 17.648438 2.460938 16.871094 2.460938 C 16.09375 2.460938 15.460938 3.089844 15.460938 3.867188 C 15.460938 4.648438 16.09375 5.277344 16.871094 5.277344 C 17.648438 5.277344 18.277344 4.648438 18.277344 3.867188 Z M 18.277344 3.867188 "/>
<path style=" stroke:none;fill-rule:nonzero;fill:rgb(0%,0%,0%);fill-opacity:1;" d="M 31.609375 40.5625 C 31.609375 39.78125 30.976562 39.152344 30.199219 39.152344 C 29.421875 39.152344 28.789062 39.78125 28.789062 40.5625 C 28.789062 41.339844 29.421875 41.96875 30.199219 41.96875 C 30.976562 41.96875 31.609375 41.339844 31.609375 40.5625 Z M 31.609375 40.5625 "/>
<path style=" stroke:none;fill-rule:nonzero;fill:rgb(0%,0%,0%);fill-opacity:1;" d="M 19.472656 44.070312 C 19.472656 43.289062 18.84375 42.660156 18.0625 42.660156 C 17.285156 42.660156 16.65625 43.289062 16.65625 44.070312 C 16.65625 44.847656 17.285156 45.476562 18.0625 45.476562 C 18.84375 45.476562 19.472656 44.847656 19.472656 44.070312 Z M 19.472656 44.070312 "/>
<path style=" stroke:none;fill-rule:nonzero;fill:rgb(0%,0%,0%);fill-opacity:1;" d="M 32.023438 53.1875 C 32.023438 52.410156 31.390625 51.777344 30.613281 51.777344 C 29.835938 51.777344 29.203125 52.410156 29.203125 53.1875 C 29.203125 53.964844 29.835938 54.59375 30.613281 54.59375 C 31.390625 54.59375 32.023438 53.964844 32.023438 53.1875 Z M 32.023438 53.1875 "/>
<path style=" stroke:none;fill-rule:nonzero;fill:rgb(0%,0%,0%);fill-opacity:1;" d="M 5.921875 41.898438 C 5.921875 41.121094 5.292969 40.492188 4.511719 40.492188 C 3.734375 40.492188 3.105469 41.121094 3.105469 41.898438 C 3.105469 42.675781 3.734375 43.308594 4.511719 43.308594 C 5.292969 43.308594 5.921875 42.675781 5.921875 41.898438 Z M 5.921875 41.898438 "/>
<path style=" stroke:none;fill-rule:nonzero;fill:rgb(0%,0%,0%);fill-opacity:1;" d="M 44.9375 40.5625 C 44.9375 39.78125 44.308594 39.152344 43.527344 39.152344 C 42.75 39.152344 42.121094 39.78125 42.121094 40.5625 C 42.121094 41.339844 42.75 41.96875 43.527344 41.96875 C 44.308594 41.96875 44.9375 41.339844 44.9375 40.5625 Z M 44.9375 40.5625 "/>
<path style=" stroke:none;fill-rule:nonzero;fill:rgb(0%,0%,0%);fill-opacity:1;" d="M 44.523438 53.1875 C 44.523438 52.410156 43.894531 51.777344 43.113281 51.777344 C 42.335938 51.777344 41.707031 52.410156 41.707031 53.1875 C 41.707031 53.964844 42.335938 54.59375 43.113281 54.59375 C 43.894531 54.59375 44.523438 53.964844 44.523438 53.1875 Z M 44.523438 53.1875 "/>
<path style=" stroke:none;fill-rule:nonzero;fill:rgb(0%,0%,0%);fill-opacity:1;" d="M 57.074219 44.070312 C 57.074219 43.289062 56.441406 42.660156 55.664062 42.660156 C 54.886719 42.660156 54.253906 43.289062 54.253906 44.070312 C 54.253906 44.847656 54.886719 45.476562 55.664062 45.476562 C 56.441406 45.476562 57.074219 44.847656 57.074219 44.070312 Z M 57.074219 44.070312 "/>
<path style=" stroke:none;fill-rule:nonzero;fill:rgb(0%,0%,0%);fill-opacity:1;" d="M 38.273438 65.402344 C 38.273438 64.625 37.640625 63.996094 36.863281 63.996094 C 36.085938 63.996094 35.453125 64.625 35.453125 65.402344 C 35.453125 66.183594 36.085938 66.8125 36.863281 66.8125 C 37.640625 66.8125 38.273438 66.183594 38.273438 65.402344 Z M 38.273438 65.402344 "/>
<path style=" stroke:none;fill-rule:nonzero;fill:rgb(0%,0%,0%);fill-opacity:1;" d="M 49.058594 27.882812 C 49.058594 27.105469 48.425781 26.476562 47.648438 26.476562 C 46.871094 26.476562 46.238281 27.105469 46.238281 27.882812 C 46.238281 28.664062 46.871094 29.292969 47.648438 29.292969 C 48.425781 29.292969 49.058594 28.664062 49.058594 27.882812 Z M 49.058594 27.882812 "/>
<path style=" stroke:none;fill-rule:nonzero;fill:rgb(0%,0%,0%);fill-opacity:1;" d="M 60.9375 32.179688 C 60.9375 31.402344 60.304688 30.769531 59.527344 30.769531 C 58.75 30.769531 58.117188 31.402344 58.117188 32.179688 C 58.117188 32.957031 58.75 33.589844 59.527344 33.589844 C 60.304688 33.589844 60.9375 32.957031 60.9375 32.179688 Z M 60.9375 32.179688 "/>
<path style=" stroke:none;fill-rule:nonzero;fill:rgb(0%,0%,0%);fill-opacity:1;" d="M 56.144531 17.425781 C 56.144531 16.648438 55.511719 16.015625 54.734375 16.015625 C 53.957031 16.015625 53.324219 16.648438 53.324219 17.425781 C 53.324219 18.203125 53.957031 18.835938 54.734375 18.835938 C 55.511719 18.835938 56.144531 18.203125 56.144531 17.425781 Z M 56.144531 17.425781 "/>
<path style=" stroke:none;fill-rule:nonzero;fill:rgb(0%,0%,0%);fill-opacity:1;" d="M 70.625 41.898438 C 70.625 41.121094 69.992188 40.492188 69.214844 40.492188 C 68.4375 40.492188 67.804688 41.121094 67.804688 41.898438 C 67.804688 42.675781 68.4375 43.308594 69.214844 43.308594 C 69.992188 43.308594 70.625 42.675781 70.625 41.898438 Z M 70.625 41.898438 "/>
<path style="fill:none;stroke-width:0.3985;stroke-linecap:butt;stroke-linejoin:miter;stroke:rgb(0%,0%,0%);stroke-opacity:1;stroke-miterlimit:10;" d="M -1.3015 10.391906 L -9.481187 4.4505 " transform="matrix(1,0,0,-1,36.864,31.388)"/>
<path style="fill:none;stroke-width:0.3985;stroke-linecap:butt;stroke-linejoin:miter;stroke:rgb(0%,0%,0%);stroke-opacity:1;stroke-miterlimit:10;" d="M 18.386 27.520812 L -18.387437 27.520812 " transform="matrix(1,0,0,-1,36.864,31.388)"/>
<path style="fill:none;stroke-width:0.3985;stroke-linecap:butt;stroke-linejoin:miter;stroke:rgb(0%,0%,0%);stroke-opacity:1;stroke-miterlimit:10;" d="M 0.987563 12.60675 L 6.768813 20.040344 M 9.190688 22.036437 L 18.561781 26.79425 " transform="matrix(1,0,0,-1,36.864,31.388)"/>
<path style="fill:none;stroke-width:0.3985;stroke-linecap:butt;stroke-linejoin:miter;stroke:rgb(0%,0%,0%);stroke-opacity:1;stroke-miterlimit:10;" d="M -0.989 12.60675 L -6.77025 20.040344 M -9.192125 22.036437 L -18.559312 26.79425 " transform="matrix(1,0,0,-1,36.864,31.388)"/>
<path style="fill:none;stroke-width:0.3985;stroke-linecap:butt;stroke-linejoin:miter;stroke:rgb(0%,0%,0%);stroke-opacity:1;stroke-miterlimit:10;" d="M -10.285875 1.973937 L -7.160875 -7.64325 " transform="matrix(1,0,0,-1,36.864,31.388)"/>
<path style="fill:none;stroke-width:0.3985;stroke-linecap:butt;stroke-linejoin:miter;stroke:rgb(0%,0%,0%);stroke-opacity:1;stroke-miterlimit:10;" d="M -20.492906 25.989562 L -31.856187 -8.983094 " transform="matrix(1,0,0,-1,36.864,31.388)"/>
<path style="fill:none;stroke-width:0.3985;stroke-linecap:butt;stroke-linejoin:miter;stroke:rgb(0%,0%,0%);stroke-opacity:1;stroke-miterlimit:10;" d="M -11.684312 4.837219 L -16.969469 12.630187 M -18.117906 15.552062 L -19.746812 25.930969 " transform="matrix(1,0,0,-1,36.864,31.388)"/>
<path style="fill:none;stroke-width:0.3985;stroke-linecap:butt;stroke-linejoin:miter;stroke:rgb(0%,0%,0%);stroke-opacity:1;stroke-miterlimit:10;" d="M -12.297594 2.958312 L -21.153062 -0.244813 M -23.797594 -1.932313 L -31.215562 -9.373719 " transform="matrix(1,0,0,-1,36.864,31.388)"/>
<path style="fill:none;stroke-width:0.3985;stroke-linecap:butt;stroke-linejoin:miter;stroke:rgb(0%,0%,0%);stroke-opacity:1;stroke-miterlimit:10;" d="M -5.055406 -9.1745 L 5.057875 -9.1745 " transform="matrix(1,0,0,-1,36.864,31.388)"/>
<g clip-path="url(#clip2)" clip-rule="nonzero">
<path style="fill:none;stroke-width:0.3985;stroke-linecap:butt;stroke-linejoin:miter;stroke:rgb(0%,0%,0%);stroke-opacity:1;stroke-miterlimit:10;" d="M -31.0515 -11.45575 L -1.3015 -33.072938 " transform="matrix(1,0,0,-1,36.864,31.388)"/>
</g>
<path style="fill:none;stroke-width:0.3985;stroke-linecap:butt;stroke-linejoin:miter;stroke:rgb(0%,0%,0%);stroke-opacity:1;stroke-miterlimit:10;" d="M -8.211656 -9.619813 L -17.254625 -12.233094 M -20.387437 -12.428406 L -30.762437 -10.764344 " transform="matrix(1,0,0,-1,36.864,31.388)"/>
<path style="fill:none;stroke-width:0.3985;stroke-linecap:butt;stroke-linejoin:miter;stroke:rgb(0%,0%,0%);stroke-opacity:1;stroke-miterlimit:10;" d="M -6.614 -10.779969 L -6.3015 -20.190125 M -5.52025 -23.229188 L -0.731187 -32.584656 " transform="matrix(1,0,0,-1,36.864,31.388)"/>
<path style="fill:none;stroke-width:0.3985;stroke-linecap:butt;stroke-linejoin:miter;stroke:rgb(0%,0%,0%);stroke-opacity:1;stroke-miterlimit:10;" d="M 7.163344 -7.64325 L 10.288344 1.973937 " transform="matrix(1,0,0,-1,36.864,31.388)"/>
<g clip-path="url(#clip3)" clip-rule="nonzero">
<path style="fill:none;stroke-width:0.3985;stroke-linecap:butt;stroke-linejoin:miter;stroke:rgb(0%,0%,0%);stroke-opacity:1;stroke-miterlimit:10;" d="M 1.300063 -33.072938 L 31.050063 -11.45575 " transform="matrix(1,0,0,-1,36.864,31.388)"/>
</g>
<path style="fill:none;stroke-width:0.3985;stroke-linecap:butt;stroke-linejoin:miter;stroke:rgb(0%,0%,0%);stroke-opacity:1;stroke-miterlimit:10;" d="M 6.612563 -10.779969 L 6.303969 -20.190125 M 5.518813 -23.229188 L 0.733656 -32.584656 " transform="matrix(1,0,0,-1,36.864,31.388)"/>
<g clip-path="url(#clip4)" clip-rule="nonzero">
<path style="fill:none;stroke-width:0.3985;stroke-linecap:butt;stroke-linejoin:miter;stroke:rgb(0%,0%,0%);stroke-opacity:1;stroke-miterlimit:10;" d="M 8.210219 -9.619813 L 17.257094 -12.233094 M 20.389906 -12.428406 L 30.764906 -10.764344 " transform="matrix(1,0,0,-1,36.864,31.388)"/>
</g>
<path style="fill:none;stroke-width:0.3985;stroke-linecap:butt;stroke-linejoin:miter;stroke:rgb(0%,0%,0%);stroke-opacity:1;stroke-miterlimit:10;" d="M 9.483656 4.4505 L 1.300063 10.391906 " transform="matrix(1,0,0,-1,36.864,31.388)"/>
<g clip-path="url(#clip5)" clip-rule="nonzero">
<path style="fill:none;stroke-width:0.3985;stroke-linecap:butt;stroke-linejoin:miter;stroke:rgb(0%,0%,0%);stroke-opacity:1;stroke-miterlimit:10;" d="M 31.85475 -8.983094 L 20.491469 25.989562 " transform="matrix(1,0,0,-1,36.864,31.388)"/>
</g>
<g clip-path="url(#clip6)" clip-rule="nonzero">
<path style="fill:none;stroke-width:0.3985;stroke-linecap:butt;stroke-linejoin:miter;stroke:rgb(0%,0%,0%);stroke-opacity:1;stroke-miterlimit:10;" d="M 12.296156 2.958312 L 21.151625 -0.244813 M 23.800063 -1.932313 L 31.218031 -9.373719 " transform="matrix(1,0,0,-1,36.864,31.388)"/>
</g>
<path style="fill:none;stroke-width:0.3985;stroke-linecap:butt;stroke-linejoin:miter;stroke:rgb(0%,0%,0%);stroke-opacity:1;stroke-miterlimit:10;" d="M 11.686781 4.837219 L 16.968031 12.630187 M 18.120375 15.552062 L 19.745375 25.930969 " transform="matrix(1,0,0,-1,36.864,31.388)"/>
</g>
</svg>
