<?xml version="1.0" encoding="UTF-8"?>
<svg xmlns="http://www.w3.org/2000/svg" xmlns:xlink="http://www.w3.org/1999/xlink" width="51.00982pt" height="46.89859pt" viewBox="0 0 51.00982 46.89859" version="1.1">
<defs>
<clipPath id="clip1">
  <path d="M 0 0 L 51.011719 0 L 51.011719 46.898438 L 0 46.898438 Z M 0 0 "/>
</clipPath>
<clipPath id="clip2">
  <path d="M 10 26 L 41 26 L 41 46.898438 L 10 46.898438 Z M 10 26 "/>
</clipPath>
<clipPath id="clip3">
  <path d="M 0 26 L 21 26 L 21 46.898438 L 0 46.898438 Z M 0 26 "/>
</clipPath>
<clipPath id="clip4">
  <path d="M 0 21 L 26 21 L 26 46.898438 L 0 46.898438 Z M 0 21 "/>
</clipPath>
<clipPath id="clip5">
  <path d="M 30 26 L 51 26 L 51 46.898438 L 30 46.898438 Z M 30 26 "/>
</clipPath>
<clipPath id="clip6">
  <path d="M 25 21 L 51.011719 21 L 51.011719 46.898438 L 25 46.898438 Z M 25 21 "/>
</clipPath>
<clipPath id="clip7">
  <path d="M 29 5 L 33 5 L 33 9 L 29 9 Z M 29 5 "/>
</clipPath>
<clipPath id="clip8">
  <path d="M 32.425781 7.34375 C 32.425781 6.558594 31.789062 5.925781 31.007812 5.925781 C 30.226562 5.925781 29.589844 6.558594 29.589844 7.34375 C 29.589844 8.125 30.226562 8.761719 31.007812 8.761719 C 31.789062 8.761719 32.425781 8.125 32.425781 7.34375 Z M 32.425781 7.34375 "/>
</clipPath>
<radialGradient id="radial0" gradientUnits="userSpaceOnUse" cx="2.834536" cy="2.834536" fx="2.26763" fy="3.401443" r="2.834536" gradientTransform="matrix(1,0,0,-1,28.17286,10.17723)">
<stop offset="0" style="stop-color:rgb(0%,0%,0%);stop-opacity:0;"/>
<stop offset="0" style="stop-color:rgb(0%,0%,0%);stop-opacity:1;"/>
<stop offset="1" style="stop-color:rgb(0%,0%,0%);stop-opacity:1;"/>
<stop offset="1.0" style="stop-color:rgb(0%,0%,0%);stop-opacity:0;"/>
</radialGradient>
<clipPath id="clip9">
  <path d="M 18 5 L 22 5 L 22 9 L 18 9 Z M 18 5 "/>
</clipPath>
<clipPath id="clip10">
  <path d="M 21.417969 7.34375 C 21.417969 6.558594 20.785156 5.925781 20.003906 5.925781 C 19.21875 5.925781 18.585938 6.558594 18.585938 7.34375 C 18.585938 8.125 19.21875 8.761719 20.003906 8.761719 C 20.785156 8.761719 21.417969 8.125 21.417969 7.34375 Z M 21.417969 7.34375 "/>
</clipPath>
<radialGradient id="radial1" gradientUnits="userSpaceOnUse" cx="2.834536" cy="2.834536" fx="2.26763" fy="3.401443" r="2.834536" gradientTransform="matrix(1,0,0,-1,17.16782,10.17723)">
<stop offset="0" style="stop-color:rgb(0%,0%,0%);stop-opacity:0;"/>
<stop offset="0" style="stop-color:rgb(0%,0%,0%);stop-opacity:1;"/>
<stop offset="1" style="stop-color:rgb(0%,0%,0%);stop-opacity:1;"/>
<stop offset="1.0" style="stop-color:rgb(0%,0%,0%);stop-opacity:0;"/>
</radialGradient>
<clipPath id="clip11">
  <path d="M 3 31 L 7 31 L 7 35 L 3 35 Z M 3 31 "/>
</clipPath>
<clipPath id="clip12">
  <path d="M 6.386719 33.382812 C 6.386719 32.597656 5.753906 31.964844 4.96875 31.964844 C 4.1875 31.964844 3.550781 32.597656 3.550781 33.382812 C 3.550781 34.164062 4.1875 34.796875 4.96875 34.796875 C 5.753906 34.796875 6.386719 34.164062 6.386719 33.382812 Z M 6.386719 33.382812 "/>
</clipPath>
<radialGradient id="radial2" gradientUnits="userSpaceOnUse" cx="2.834536" cy="2.834536" fx="2.26763" fy="3.401443" r="2.834536" gradientTransform="matrix(1,0,0,-1,2.134645,36.21544)">
<stop offset="0" style="stop-color:rgb(0%,0%,0%);stop-opacity:0;"/>
<stop offset="0" style="stop-color:rgb(0%,0%,0%);stop-opacity:1;"/>
<stop offset="1" style="stop-color:rgb(0%,0%,0%);stop-opacity:1;"/>
<stop offset="1.0" style="stop-color:rgb(0%,0%,0%);stop-opacity:0;"/>
</radialGradient>
<clipPath id="clip13">
  <path d="M 9 41 L 12 41 L 12 45 L 9 45 Z M 9 41 "/>
</clipPath>
<clipPath id="clip14">
  <path d="M 11.890625 42.910156 C 11.890625 42.128906 11.253906 41.496094 10.472656 41.496094 C 9.6875 41.496094 9.054688 42.128906 9.054688 42.910156 C 9.054688 43.695312 9.6875 44.328125 10.472656 44.328125 C 11.253906 44.328125 11.890625 43.695312 11.890625 42.910156 Z M 11.890625 42.910156 "/>
</clipPath>
<radialGradient id="radial3" gradientUnits="userSpaceOnUse" cx="2.834536" cy="2.834536" fx="2.26763" fy="3.401443" r="2.834536" gradientTransform="matrix(1,0,0,-1,7.637175,45.746083)">
<stop offset="0" style="stop-color:rgb(0%,0%,0%);stop-opacity:0;"/>
<stop offset="0" style="stop-color:rgb(0%,0%,0%);stop-opacity:1;"/>
<stop offset="1" style="stop-color:rgb(0%,0%,0%);stop-opacity:1;"/>
<stop offset="1.0" style="stop-color:rgb(0%,0%,0%);stop-opacity:0;"/>
</radialGradient>
<clipPath id="clip15">
  <path d="M 39 41 L 42 41 L 42 45 L 39 45 Z M 39 41 "/>
</clipPath>
<clipPath id="clip16">
  <path d="M 41.957031 42.910156 C 41.957031 42.128906 41.320312 41.496094 40.539062 41.496094 C 39.753906 41.496094 39.121094 42.128906 39.121094 42.910156 C 39.121094 43.695312 39.753906 44.328125 40.539062 44.328125 C 41.320312 44.328125 41.957031 43.695312 41.957031 42.910156 Z M 41.957031 42.910156 "/>
</clipPath>
<radialGradient id="radial4" gradientUnits="userSpaceOnUse" cx="2.834536" cy="2.834536" fx="2.26763" fy="3.401443" r="2.834536" gradientTransform="matrix(1,0,0,-1,37.7035,45.746083)">
<stop offset="0" style="stop-color:rgb(0%,0%,0%);stop-opacity:0;"/>
<stop offset="0" style="stop-color:rgb(0%,0%,0%);stop-opacity:1;"/>
<stop offset="1" style="stop-color:rgb(0%,0%,0%);stop-opacity:1;"/>
<stop offset="1.0" style="stop-color:rgb(0%,0%,0%);stop-opacity:0;"/>
</radialGradient>
<clipPath id="clip17">
  <path d="M 44 31 L 48 31 L 48 35 L 44 35 Z M 44 31 "/>
</clipPath>
<clipPath id="clip18">
  <path d="M 47.457031 33.382812 C 47.457031 32.597656 46.824219 31.964844 46.039062 31.964844 C 45.257812 31.964844 44.625 32.597656 44.625 33.382812 C 44.625 34.164062 45.257812 34.796875 46.039062 34.796875 C 46.824219 34.796875 47.457031 34.164062 47.457031 33.382812 Z M 47.457031 33.382812 "/>
</clipPath>
<radialGradient id="radial5" gradientUnits="userSpaceOnUse" cx="2.834536" cy="2.834536" fx="2.26763" fy="3.401443" r="2.834536" gradientTransform="matrix(1,0,0,-1,43.20603,36.21544)">
<stop offset="0" style="stop-color:rgb(0%,0%,0%);stop-opacity:0;"/>
<stop offset="0" style="stop-color:rgb(0%,0%,0%);stop-opacity:1;"/>
<stop offset="1" style="stop-color:rgb(0%,0%,0%);stop-opacity:1;"/>
<stop offset="1.0" style="stop-color:rgb(0%,0%,0%);stop-opacity:0;"/>
</radialGradient>
<clipPath id="clip19">
  <path d="M 0 0 L 51 0 L 51 46.898438 L 0 46.898438 Z M 0 0 "/>
</clipPath>
<clipPath id="clip20">
  <path d="M 0 0 L 51.011719 0 L 51.011719 46.898438 L 0 46.898438 Z M 0 0 "/>
</clipPath>
<clipPath id="clip21">
  <path d="M 0 13 L 51.011719 13 L 51.011719 46.898438 L 0 46.898438 Z M 0 13 "/>
</clipPath>
</defs>
<g id="surface1">
<g clip-path="url(#clip1)" clip-rule="nonzero">
<path style=" stroke:none;fill-rule:nonzero;fill:rgb(100%,100%,100%);fill-opacity:1;" d="M 0 46.898438 L 51.011719 46.898438 L 51.011719 0 L 0 0 Z M 0 46.898438 "/>
</g>
<path style=" stroke:none;fill-rule:nonzero;fill:rgb(36.862183%,67.843628%,83.137512%);fill-opacity:0.6;" d="M 16.875 5.179688 L 34.132812 15.144531 L 18.789062 41.71875 L 1.535156 31.753906 "/>
<path style=" stroke:none;fill-rule:nonzero;fill:rgb(36.862183%,67.843628%,83.137512%);fill-opacity:0.6;" d="M 34.132812 5.179688 L 16.875 15.144531 L 32.21875 41.71875 L 49.476562 31.753906 "/>
<g clip-path="url(#clip2)" clip-rule="nonzero">
<path style=" stroke:none;fill-rule:nonzero;fill:rgb(36.862183%,67.843628%,83.137512%);fill-opacity:0.6;" d="M 40.847656 26.773438 L 40.847656 46.699219 L 10.160156 46.699219 L 10.160156 26.773438 "/>
</g>
<path style="fill-rule:nonzero;fill:rgb(100%,100%,100%);fill-opacity:1;stroke-width:0.3985;stroke-linecap:butt;stroke-linejoin:miter;stroke:rgb(0%,0%,0%);stroke-opacity:1;stroke-miterlimit:10;" d="M 9.96384 17.718264 C 9.96384 23.218264 5.502902 27.679201 -0.00100375 27.679201 C -5.501004 27.679201 -9.961941 23.218264 -9.961941 17.718264 C -9.961941 12.214358 -5.501004 7.75342 -0.00100375 7.75342 C 5.502902 7.75342 9.96384 12.214358 9.96384 17.718264 Z M 9.96384 17.718264 " transform="matrix(1,0,0,-1,25.50491,27.87842)"/>
<g clip-path="url(#clip3)" clip-rule="nonzero">
<path style=" stroke:none;fill-rule:nonzero;fill:rgb(100%,100%,100%);fill-opacity:1;" d="M 20.125 36.738281 C 20.125 31.234375 15.664062 26.773438 10.160156 26.773438 C 4.660156 26.773438 0.199219 31.234375 0.199219 36.738281 C 0.199219 42.238281 4.660156 46.699219 10.160156 46.699219 C 15.664062 46.699219 20.125 42.238281 20.125 36.738281 Z M 20.125 36.738281 "/>
</g>
<g clip-path="url(#clip4)" clip-rule="nonzero">
<path style="fill:none;stroke-width:0.3985;stroke-linecap:butt;stroke-linejoin:miter;stroke:rgb(0%,0%,0%);stroke-opacity:1;stroke-miterlimit:10;" d="M -5.37991 -8.859861 C -5.37991 -3.355955 -9.840848 1.104983 -15.344754 1.104983 C -20.844754 1.104983 -25.305691 -3.355955 -25.305691 -8.859861 C -25.305691 -14.359861 -20.844754 -18.820799 -15.344754 -18.820799 C -9.840848 -18.820799 -5.37991 -14.359861 -5.37991 -8.859861 Z M -5.37991 -8.859861 " transform="matrix(1,0,0,-1,25.50491,27.87842)"/>
</g>
<g clip-path="url(#clip5)" clip-rule="nonzero">
<path style=" stroke:none;fill-rule:nonzero;fill:rgb(100%,100%,100%);fill-opacity:1;" d="M 50.8125 36.738281 C 50.8125 31.234375 46.351562 26.773438 40.847656 26.773438 C 35.347656 26.773438 30.886719 31.234375 30.886719 36.738281 C 30.886719 42.238281 35.347656 46.699219 40.847656 46.699219 C 46.351562 46.699219 50.8125 42.238281 50.8125 36.738281 Z M 50.8125 36.738281 "/>
</g>
<g clip-path="url(#clip6)" clip-rule="nonzero">
<path style="fill:none;stroke-width:0.3985;stroke-linecap:butt;stroke-linejoin:miter;stroke:rgb(0%,0%,0%);stroke-opacity:1;stroke-miterlimit:10;" d="M 25.30759 -8.859861 C 25.30759 -3.355955 20.846652 1.104983 15.342746 1.104983 C 9.842746 1.104983 5.381809 -3.355955 5.381809 -8.859861 C 5.381809 -14.359861 9.842746 -18.820799 15.342746 -18.820799 C 20.846652 -18.820799 25.30759 -14.359861 25.30759 -8.859861 Z M 25.30759 -8.859861 " transform="matrix(1,0,0,-1,25.50491,27.87842)"/>
</g>
<g clip-path="url(#clip7)" clip-rule="nonzero">
<g clip-path="url(#clip8)" clip-rule="nonzero">
<path style=" stroke:none;fill-rule:nonzero;fill:url(#radial0);" d="M 30.441406 6.777344 Z M 33.84375 7.34375 L 33.390625 8.875 L 32.183594 9.921875 L 30.605469 10.148438 L 29.152344 9.484375 L 28.289062 8.140625 L 28.289062 6.542969 L 29.152344 5.199219 L 30.605469 4.535156 L 32.183594 4.765625 L 33.390625 5.808594 Z M 29.589844 8.761719 L 29.589844 5.925781 L 32.425781 5.925781 L 32.425781 8.761719 Z M 29.589844 8.761719 "/>
</g>
</g>
<g clip-path="url(#clip9)" clip-rule="nonzero">
<g clip-path="url(#clip10)" clip-rule="nonzero">
<path style=" stroke:none;fill-rule:nonzero;fill:url(#radial1);" d="M 19.433594 6.777344 Z M 22.835938 7.34375 L 22.386719 8.875 L 21.179688 9.921875 L 19.597656 10.148438 L 18.144531 9.484375 L 17.28125 8.140625 L 17.28125 6.542969 L 18.144531 5.199219 L 19.597656 4.535156 L 21.179688 4.765625 L 22.386719 5.808594 Z M 18.585938 8.761719 L 18.585938 5.925781 L 21.417969 5.925781 L 21.417969 8.761719 Z M 18.585938 8.761719 "/>
</g>
</g>
<g clip-path="url(#clip11)" clip-rule="nonzero">
<g clip-path="url(#clip12)" clip-rule="nonzero">
<path style=" stroke:none;fill-rule:nonzero;fill:url(#radial2);" d="M 4.402344 32.8125 Z M 7.804688 33.382812 L 7.355469 34.914062 L 6.148438 35.960938 L 4.566406 36.1875 L 3.113281 35.523438 L 2.25 34.179688 L 2.25 32.582031 L 3.113281 31.238281 L 4.566406 30.574219 L 6.148438 30.800781 L 7.355469 31.847656 Z M 3.550781 34.796875 L 3.550781 31.964844 L 6.386719 31.964844 L 6.386719 34.796875 Z M 3.550781 34.796875 "/>
</g>
</g>
<g clip-path="url(#clip13)" clip-rule="nonzero">
<g clip-path="url(#clip14)" clip-rule="nonzero">
<path style=" stroke:none;fill-rule:nonzero;fill:url(#radial3);" d="M 9.90625 42.34375 Z M 13.304688 42.910156 L 12.855469 44.445312 L 11.648438 45.488281 L 10.066406 45.71875 L 8.617188 45.054688 L 7.753906 43.710938 L 7.753906 42.113281 L 8.617188 40.769531 L 10.066406 40.105469 L 11.648438 40.332031 L 12.855469 41.378906 Z M 9.054688 44.328125 L 9.054688 41.496094 L 11.890625 41.496094 L 11.890625 44.328125 Z M 9.054688 44.328125 "/>
</g>
</g>
<g clip-path="url(#clip15)" clip-rule="nonzero">
<g clip-path="url(#clip16)" clip-rule="nonzero">
<path style=" stroke:none;fill-rule:nonzero;fill:url(#radial4);" d="M 39.972656 42.34375 Z M 43.371094 42.910156 L 42.921875 44.445312 L 41.714844 45.488281 L 40.132812 45.71875 L 38.683594 45.054688 L 37.816406 43.710938 L 37.816406 42.113281 L 38.683594 40.769531 L 40.132812 40.105469 L 41.714844 40.332031 L 42.921875 41.378906 Z M 39.121094 44.328125 L 39.121094 41.496094 L 41.957031 41.496094 L 41.957031 44.328125 Z M 39.121094 44.328125 "/>
</g>
</g>
<g clip-path="url(#clip17)" clip-rule="nonzero">
<g clip-path="url(#clip18)" clip-rule="nonzero">
<path style=" stroke:none;fill-rule:nonzero;fill:url(#radial5);" d="M 45.472656 32.8125 Z M 48.875 33.382812 L 48.425781 34.914062 L 47.21875 35.960938 L 45.636719 36.1875 L 44.183594 35.523438 L 43.320312 34.179688 L 43.320312 32.582031 L 44.183594 31.238281 L 45.636719 30.574219 L 47.21875 30.800781 L 48.425781 31.847656 Z M 44.625 34.796875 L 44.625 31.964844 L 47.457031 31.964844 L 47.457031 34.796875 Z M 44.625 34.796875 "/>
</g>
</g>
<g clip-path="url(#clip19)" clip-rule="nonzero">
<path style="fill:none;stroke-width:1.41731;stroke-linecap:square;stroke-linejoin:miter;stroke:rgb(0%,0%,0%);stroke-opacity:1;stroke-miterlimit:10;" d="M 4.358371 19.394045 L -19.391629 -4.359861 M -19.72366 -4.098142 L -6.313504 19.132326 M -5.922879 18.97217 L -14.614285 -13.469236 M -14.22366 -13.629392 L 4.690402 19.132326 " transform="matrix(1,0,0,-1,25.50491,27.87842)"/>
</g>
<g clip-path="url(#clip20)" clip-rule="nonzero">
<path style="fill:none;stroke-width:1.41731;stroke-linecap:square;stroke-linejoin:miter;stroke:rgb(0%,0%,0%);stroke-opacity:1;stroke-miterlimit:10;" d="M 5.920871 18.97217 L 14.612277 -13.469236 M 14.221652 -13.629392 L -4.69241 19.132326 M -4.360379 19.394045 L 19.393527 -4.359861 M 19.725559 -4.098142 L 6.311496 19.132326 " transform="matrix(1,0,0,-1,25.50491,27.87842)"/>
</g>
<g clip-path="url(#clip21)" clip-rule="nonzero">
<path style="fill:none;stroke-width:1.41731;stroke-linecap:square;stroke-linejoin:miter;stroke:rgb(0%,0%,0%);stroke-opacity:1;stroke-miterlimit:10;" d="M -18.969754 -5.922361 L 13.467746 -14.613767 M 13.416965 -15.031736 L -13.415066 -15.031736 M -13.469754 -14.613767 L 18.971652 -5.922361 M 18.920871 -5.504392 L -18.918973 -5.504392 " transform="matrix(1,0,0,-1,25.50491,27.87842)"/>
</g>
</g>
</svg>
