<?xml version="1.0" encoding="UTF-8" standalone="no"?>
<svg xmlns="http://www.w3.org/2000/svg" xmlns:xlink="http://www.w3.org/1999/xlink" width="300" height="206">
<clipPath id="CLIP_Circle_lower_half">
	<path d="M 274,103 L 300,103 A 58,60 270 0,1 240,161 C 206,161 174.8,137.85 142.2,113.4 C 114.8,92.85 86,71 60,71 A 32,34 270 0,0 26,103 A 124,124 180 0,0 274,103" />
</clipPath>
<g style="stroke: rgb(244, 241, 43);" >
	<path id="Circle_lower_half" clip-path="url(#CLIP_Circle_lower_half)" d="M 240,103 A 90,90 0 1,1 150,13" stroke-width="18" fill="none" />
</g>
<use id="Circle_upper_half" xlink:href="#Circle_lower_half" x="-300" y="-206" transform="scale(-1)" stroke="#61b72f" />
<clipPath id="CLIP_Loop_upper_left">
	<path d="M 47,103 L 60,135 C 86,135 114.8,113.15 142.2,92.6 C 174.8,68.15 206,45 240,45 L 60,13 A 90,94 270 0,0 60,193 L 150,206 A 103,103 180 0,1 47,103 Z" />
</clipPath>
<g style="stroke: rgb(0, 147, 221);">
	<path id="Loop_upper_left" clip-path="url(#CLIP_Loop_upper_left)" d="M 150,103 C 120,125.5 90,148 60,148 A 45,47 270 1,1 60,58 C 90,58 120,80.5 150,103" stroke-width="18" fill="none" />
</g>
<use id="Loop_lower_right" xlink:href="#Loop_upper_left" x="-300" y="-206" transform="scale(-1)" stroke="#d92624" />
<clipPath id="CLIP_Loop_middle">
	<circle r="77" cx="150" cy="103" />
</clipPath>
<path clip-path="url(#CLIP_Loop_middle)" d="M 60,148 C 90,148 120,125.5 150,103 C 180,80.5 210,58 240,58" stroke-width="18" stroke="#000000" fill="none" />
</svg>