<?xml version="1.0" encoding="UTF-8"?>
<svg xmlns="http://www.w3.org/2000/svg" xmlns:xlink="http://www.w3.org/1999/xlink" width="354pt" height="354pt" viewBox="0 0 354 354" version="1.1">
<g id="surface12">
<path style="fill:none;stroke-width:1.6;stroke-linecap:square;stroke-linejoin:miter;stroke:rgb(99.998474%,0%,0%);stroke-opacity:1;stroke-miterlimit:3.25;" d="M 330.621094 365.800781 L 329.976562 364.632812 L 329.722656 364.132812 L 328.953125 362.714844 L 328.058594 360.921875 L 327.628906 360.054688 L 327.335938 359.628906 L 326.578125 358.148438 L 326.539062 358.0625 L 325.777344 356.542969 L 325.535156 355.980469 L 325.019531 355 L 324.972656 354.894531 L 324.523438 353.90625 L 324.28125 353.457031 L 323.65625 352.140625 L 323.523438 351.820312 L 323.429688 351.621094 L 322.851562 350.371094 L 322.578125 349.679688 L 322.164062 348.828125 L 321.886719 348.15625 L 321.628906 347.542969 L 321.5 347.285156 L 321.195312 346.59375 L 320.726562 345.359375 L 320.34375 344.46875 L 320.230469 344.199219 L 319.851562 343.148438 L 319.179688 341.496094 L 319.050781 341.113281 L 318.800781 340.316406 L 318.210938 338.617188 L 317.976562 338.027344 L 317.566406 336.792969 L 317.4375 336.304688 L 317.019531 334.941406 L 316.753906 333.902344 L 316.316406 332.460938 L 316.183594 331.855469 L 315.714844 329.652344 L 315.546875 328.9375 L 315.496094 328.769531 L 315.429688 328.488281 L 315.109375 326.289062 L 314.980469 325.6875 L 314.847656 324.820312 L 314.777344 323.535156 L 314.667969 322.601562 L 314.582031 321.46875 L 314.613281 320.613281 L 314.585938 319.515625 L 314.589844 318.390625 L 314.71875 317.421875 L 314.789062 316.429688 L 314.863281 315.578125 L 315.28125 313.777344 L 315.355469 313.34375 L 315.714844 312.121094 L 316.152344 310.695312 L 316.445312 310.257812 L 317.234375 308.738281 L 317.25 308.707031 L 318.339844 307.171875 L 318.523438 306.894531 L 318.800781 306.597656 L 320.070312 305.355469 L 321.878906 304.085938 L 321.882812 304.082031 L 321.886719 304.082031 L 321.894531 304.078125 L 323.886719 303.003906 L 324.972656 302.550781 L 326.132812 302.160156 L 327.15625 301.898438 L 328.058594 301.601562 L 330.722656 301 L 331.058594 300.914062 L 331.144531 300.90625 L 331.25 300.894531 L 334.230469 300.234375 L 336.046875 299.730469 L 337.3125 299.550781 L 338.65625 299.257812 L 339.179688 299.132812 L 340.398438 298.75 L 341.042969 298.554688 L 342.949219 297.914062 L 343.484375 297.726562 L 343.792969 297.605469 L 345.484375 296.824219 L 346.570312 296.25 L 347.484375 295.742188 L 348.875 294.828125 L 349.351562 294.523438 L 349.65625 294.296875 L 351.066406 293.152344 L 352.480469 291.742188 L 352.617188 291.617188 L 352.742188 291.472656 L 354.003906 289.917969 L 354.808594 288.65625 L 355.238281 288.066406 L 355.828125 287.039062 L 356.332031 286.078125 L 356.53125 285.570312 L 357.207031 284.195312 L 357.304688 283.960938 L 357.742188 282.484375 L 358.078125 281.648438 L 358.648438 279.667969 L 358.71875 279.398438 L 358.753906 279.238281 L 358.914062 278.542969 L 359.050781 277.855469 L 359.25 276.652344 L 359.3125 276.3125 L 359.375 275.851562 L 359.605469 273.921875 L 359.628906 273.230469 L 359.75 272.394531 L 359.828125 271.054688 L 359.808594 270.144531 L 359.898438 269.160156 L 359.902344 268.042969 L 359.832031 267.058594 L 359.878906 266.09375 L 359.828125 264.882812 L 359.722656 263.972656 L 359.730469 263.15625 L 359.601562 261.570312 L 359.5 260.886719 L 359.484375 260.316406 L 359.234375 258.121094 L 359.179688 257.800781 L 358.914062 255.761719 L 358.761719 254.867188 L 358.730469 254.714844 L 358.683594 254.484375 L 358.121094 251.628906 L 357.714844 249.742188 L 357.449219 248.542969 L 357.011719 246.640625 L 356.746094 245.457031 L 356.574219 244.710938 L 356.019531 242.371094 L 355.828125 241.566406 L 355.273438 239.839844 L 355.097656 239.285156 L 354.765625 238.222656 L 354.132812 236.199219 L 353.875 235.070312 L 353.476562 233.847656 L 353.199219 233.113281 L 352.742188 231.527344 L 352.339844 230.433594 L 352.148438 230.027344 L 351.90625 229.191406 L 351.542969 228.144531 L 351.007812 226.941406 L 350.722656 225.875 L 350.175781 224.375 L 349.960938 223.855469 L 349.65625 222.894531 L 349.003906 221.421875 L 348.738281 220.769531 L 348.167969 219.28125 L 347.390625 217.6875 L 347.285156 216.972656 L 346.570312 214.757812 L 345.527344 212.558594 L 345.109375 211.515625 L 344.265625 209.207031 L 343.96875 208.429688 L 343.84375 208.070312 L 343.484375 206.960938 L 342.75 205.34375 L 342.058594 203.683594 L 341.539062 202.257812 L 340.542969 199.3125 L 340.492188 199.171875 L 340.472656 199.097656 L 340.398438 198.875 L 339.613281 196.875 L 339.238281 196.085938 L 338.800781 194.597656 L 338.734375 194.417969 L 338.117188 193 L 337.3125 190.597656 L 337.113281 190.117188 L 337.015625 189.914062 L 336.867188 189.464844 L 336.25 187.894531 L 335.855469 186.828125 L 335.769531 186.601562 L 335.378906 185.679688 L 334.851562 184.363281 L 334.570312 183.742188 L 334.230469 182.847656 L 333.5 181.386719 L 333.191406 180.65625 L 332.324219 178.75 L 331.5625 177.152344 L 331.144531 176.242188 L 330.152344 174.484375 L 329.4375 173.105469 L 328.976562 172.320312 L 328.414062 171.398438 L 328.289062 171.167969 L 328.058594 170.785156 L 327.082031 169.289062 L 326.386719 168.3125 L 325.832031 167.453125 L 324.972656 166.238281 L 324.535156 165.664062 L 324.214844 165.230469 L 323.429688 164.203125 L 323.195312 163.917969 L 323.007812 163.6875 L 321.886719 162.3125 L 321.804688 162.222656 L 321.738281 162.144531 L 320.742188 161 L 320.371094 160.574219 L 318.960938 159.058594 L 318.886719 158.96875 L 318.800781 158.875 L 317.464844 157.515625 L 317.363281 157.410156 L 317.257812 157.300781 L 315.878906 155.972656 L 315.714844 155.808594 L 314.1875 154.414062 L 313.945312 154.203125 L 312.628906 153.0625 L 312.53125 152.984375 L 312.402344 152.886719 L 309.542969 150.597656 L 309.070312 150.269531 L 308.363281 149.800781 L 307.261719 148.996094 L 306.457031 148.425781 L 305.386719 147.785156 L 303.523438 146.714844 L 303.371094 146.617188 L 301.398438 145.601562 L 300.285156 145.074219 L 297.722656 144.152344 L 297.199219 143.953125 L 296.949219 143.882812 L 295.9375 143.628906 L 294.113281 143.113281 L 293.507812 143.019531 L 291.933594 142.722656 L 291.027344 142.554688 L 289.863281 142.460938 L 289.191406 142.378906 L 287.941406 142.234375 L 286.496094 142.179688 L 286.320312 142.167969 L 284.855469 142.058594 L 283.277344 142.046875 L 281.769531 141.964844 L 280.410156 141.902344 L 278.6875 141.898438 L 276.941406 141.886719 L 275.601562 141.824219 L 274.386719 141.753906 L 272.515625 141.710938 L 270.511719 141.625 L 269.429688 141.550781 L 268.503906 141.46875 L 266.34375 141.324219 L 265.628906 141.257812 L 263.804688 141.089844 L 263.257812 141.035156 L 262.816406 140.984375 L 260.171875 140.675781 L 257.335938 140.292969 L 257.085938 140.261719 L 256.75 140.207031 L 254 139.785156 L 253.085938 139.628906 L 252.007812 139.449219 L 250.914062 139.253906 L 249.398438 138.972656 L 249.332031 138.960938 L 247.828125 138.671875 L 246.8125 138.472656 L 245.46875 138.183594 L 244.742188 138.042969 L 242.082031 137.457031 L 241.734375 137.378906 L 241.65625 137.359375 L 241.523438 137.324219 L 238.570312 136.640625 L 236.703125 136.242188 L 235.484375 135.878906 L 233.296875 135.265625 L 232.398438 135.070312 L 231.804688 134.964844 L 229.851562 134.371094 L 229.3125 134.210938 L 226.992188 133.605469 L 226.230469 133.300781 L 224.558594 132.703125 L 223.144531 132.320312 L 222.28125 132.148438 L 220.175781 131.285156 L 220.058594 131.238281 L 219.976562 131.203125 L 217.828125 130.429688 L 216.972656 130.050781 L 215.671875 129.5 L 214.6875 129 L 213.886719 128.65625 L 213.5625 128.523438 L 212.988281 128.199219 L 212.34375 127.855469 L 211.53125 127.46875 L 210.800781 127.023438 L 209.617188 126.296875 L 209.257812 126.027344 L 207.929688 125.113281 L 207.796875 125.03125 L 207.714844 124.960938 L 207.109375 124.507812 L 206.007812 123.734375 L 204.628906 122.738281 L 203.765625 122.027344 L 202.464844 121.105469 L 201.695312 120.484375 L 201.542969 120.386719 L 200.640625 119.847656 L 200 119.402344 L 199.289062 118.941406 L 198.738281 118.660156 L 198.457031 118.554688 L 197.515625 118 L 196.71875 117.597656 L 195.371094 117.15625 L 194.554688 116.671875 L 192.578125 115.855469 L 192.285156 115.773438 L 189.921875 115.136719 L 187.890625 114.546875 L 186.113281 114.058594 L 185.105469 113.78125 L 182.570312 112.769531 L 180.394531 112.316406 L 179.941406 112.339844 L 179.121094 111.949219 L 176.855469 111.339844 L 175.757812 110.785156 L 174.367188 110.28125 L 173.769531 110.15625 L 172.871094 109.6875 L 171.226562 109.144531 L 170.6875 109.03125 L 169.285156 108.285156 L 169.082031 108.203125 L 168.980469 108.144531 L 167.601562 107.59375 L 166.902344 107.300781 L 166.058594 106.851562 L 165.617188 106.601562 L 164.839844 106.277344 L 164.515625 106.113281 L 163.4375 105.523438 L 162.820312 105.207031 L 162.609375 105.058594 L 161.429688 104.46875 L 160.804688 104.140625 L 159.917969 103.515625 L 158.8125 103.042969 L 158.34375 102.769531 L 155.925781 101.097656 L 155.257812 100.675781 L 155.109375 100.574219 L 154.996094 100.429688 L 152.171875 98.675781 L 151.472656 98.042969 L 150.664062 97.34375 L 149.703125 96.726562 L 149.085938 96.367188 L 147.960938 95.382812 L 146.617188 94.257812 L 146.242188 94.015625 L 146 93.875 L 144.542969 92.628906 L 143.570312 91.828125 L 142.914062 91.304688 L 142.792969 91.171875 L 141.070312 89.929688 L 139.828125 88.769531 L 139.191406 88.085938 L 137.847656 86.980469 L 136.742188 86.09375 L 135.707031 85 L 134.535156 84.121094 L 133.65625 83.320312 L 132.316406 81.914062 L 131.363281 81.121094 L 130.570312 80.472656 L 129 78.828125 L 128.152344 78.164062 L 127.484375 77.558594 L 125.753906 75.742188 L 125.023438 75.121094 L 124.398438 74.589844 L 123.457031 73.601562 L 122.5625 72.65625 L 121.894531 72.078125 L 121.3125 71.578125 L 120.335938 70.550781 L 119.417969 69.570312 L 118.785156 69.015625 L 118.230469 68.527344 L 116.316406 66.484375 L 115.683594 65.945312 L 115.144531 65.4375 L 113.253906 63.398438 L 112.625 62.832031 L 112.058594 62.3125 L 110.222656 60.3125 L 109.558594 59.726562 L 108.972656 59.15625 L 107.21875 57.230469 L 106.53125 56.582031 L 105.886719 55.972656 L 104.242188 54.144531 L 103.492188 53.453125 L 102.800781 52.761719 L 101.289062 51.058594 L 100.492188 50.28125 L 99.714844 49.519531 L 98.988281 48.699219 L 98.355469 47.972656 L 97.488281 47.113281 L 96.628906 46.257812 L 95.988281 45.523438 L 95.441406 44.886719 L 94.492188 43.933594 L 93.542969 42.972656 L 92.542969 41.800781 L 91.496094 40.761719 L 90.457031 39.660156 L 89.65625 38.714844 L 88.535156 37.550781 L 87.371094 36.332031 L 87.050781 35.949219 L 86.785156 35.628906 L 85.570312 34.347656 L 85.34375 34.085938 L 84.285156 32.960938 L 84.089844 32.742188 L 83.917969 32.542969 L 82.742188 31.285156 L 82.609375 31.132812 L 81.199219 29.605469 " transform="matrix(1,0,0,1,-74,-13)"/>
<path style="fill:none;stroke-width:1.6;stroke-linecap:square;stroke-linejoin:miter;stroke:rgb(99.998474%,0%,0%);stroke-opacity:1;stroke-miterlimit:3.25;" d="M 426.800781 191.019531 L 423.75 189.914062 L 423.722656 189.90625 L 423.714844 189.898438 L 423.6875 189.890625 L 420.628906 188.785156 L 419.09375 188.363281 L 417.542969 187.648438 L 415.289062 186.828125 L 414.675781 186.609375 L 414.457031 186.492188 L 413.847656 186.21875 L 411.371094 185.328125 L 410.121094 184.992188 L 408.285156 184.132812 L 407.210938 183.742188 L 405.765625 183.175781 L 405.199219 182.921875 L 403.8125 182.355469 L 403.582031 182.277344 L 403.394531 182.199219 L 402.113281 181.679688 L 401.355469 181.414062 L 399.554688 180.65625 L 399.1875 180.496094 L 399.027344 180.417969 L 396.90625 179.691406 L 395.941406 179.128906 L 393.183594 177.898438 L 392.855469 177.789062 L 392.683594 177.746094 L 392.308594 177.570312 L 389.769531 176.421875 L 388.433594 175.824219 L 387.589844 175.390625 L 386.6875 174.988281 L 386.320312 174.851562 L 385.605469 174.484375 L 385.144531 174.253906 L 384.222656 173.863281 L 383.601562 173.507812 L 382.4375 172.941406 L 382.179688 172.820312 L 381.621094 172.507812 L 380.515625 171.960938 L 380.117188 171.796875 L 379.316406 171.398438 L 377.429688 170.351562 L 376.101562 169.640625 L 375 168.972656 L 374.34375 168.621094 L 373.742188 168.3125 L 372.167969 167.402344 L 371.257812 166.804688 L 370.257812 166.226562 L 368.714844 165.230469 L 368.371094 165.027344 L 368.171875 164.824219 L 366.679688 163.738281 L 365.085938 162.695312 L 364.742188 162.484375 L 364.242188 162.144531 L 362.964844 161.175781 L 362 160.367188 L 361.242188 159.816406 L 360.285156 159.058594 L 358.914062 157.777344 L 357.796875 157.089844 L 356.84375 155.972656 L 355.828125 154.882812 L 354.804688 153.910156 L 353.785156 152.886719 L 352.742188 151.636719 L 351.847656 150.695312 L 351.03125 149.800781 L 349.65625 147.992188 L 349.058594 147.3125 L 348.542969 146.714844 L 346.570312 143.945312 L 346.40625 143.796875 L 346.304688 143.628906 L 345.742188 142.796875 L 345.132812 141.980469 L 344.03125 140.542969 L 343.824219 140.203125 L 343.484375 139.675781 L 341.78125 137.457031 L 341.25 136.605469 L 340.398438 135.34375 L 339.597656 134.371094 L 338.671875 133.011719 L 337.515625 131.484375 L 337.355469 131.285156 L 337.339844 131.261719 L 337.3125 131.226562 L 335.925781 129.589844 L 334.609375 128.199219 L 334.230469 127.730469 L 332.878906 126.464844 L 331.222656 125.113281 L 331.183594 125.074219 L 331.144531 125.039062 L 330.929688 124.902344 L 329.601562 124.0625 L 329.261719 123.910156 L 328.59375 123.570312 L 328.058594 123.3125 L 327.089844 122.996094 L 325.511719 122.570312 L 324.972656 122.457031 L 324.578125 122.421875 L 322.117188 122.261719 L 321.886719 122.269531 L 321.640625 122.273438 L 319.21875 122.449219 L 318.800781 122.515625 L 318.257812 122.570312 L 316.511719 122.824219 L 315.714844 123.007812 L 313.921875 123.324219 L 312.628906 123.578125 L 310.746094 123.914062 L 309.542969 124.105469 L 308.632812 124.203125 L 306.457031 124.5 L 303.792969 124.691406 L 303.371094 124.707031 L 302.929688 124.671875 L 300.730469 124.667969 L 300.285156 124.6875 L 299.769531 124.601562 L 297.878906 124.4375 L 297.199219 124.335938 L 296.238281 124.152344 L 295.25 123.976562 L 294.113281 123.691406 L 293.699219 123.570312 L 292.789062 123.355469 L 292.164062 123.164062 L 291.027344 122.921875 L 290.417969 122.640625 L 288.875 122.027344 L 288.148438 121.820312 L 287.941406 121.742188 L 287.453125 121.539062 L 284.855469 120.578125 L 283.785156 120.011719 L 282.03125 119.199219 L 281.769531 119.085938 L 281.671875 119.042969 L 281.480469 118.941406 L 280.230469 118.40625 L 279.527344 118.101562 L 278.6875 117.789062 L 277.429688 117.113281 L 276.335938 116.59375 L 275.601562 116.296875 L 275.320312 116.136719 L 274.765625 115.855469 L 273.195312 115.175781 L 272.515625 114.917969 L 270.972656 114.3125 L 267.886719 112.769531 L 266.773438 112.339844 L 266.34375 112.207031 L 265.175781 111.605469 L 263.257812 110.839844 L 262.480469 110.464844 L 260.683594 109.6875 L 260.171875 109.492188 L 259.820312 109.335938 L 258.089844 108.679688 L 257.085938 108.339844 L 255.878906 107.808594 L 254.75 107.351562 L 254 107.109375 L 253.644531 106.957031 L 252.734375 106.601562 L 251.390625 106.121094 L 250.914062 105.964844 L 249.820312 105.503906 L 249.148438 105.277344 L 247.828125 104.859375 L 246.875 104.46875 L 244.9375 103.710938 L 244.742188 103.652344 L 244.644531 103.613281 L 244.390625 103.515625 L 241.65625 102.539062 L 240.1875 101.898438 L 239.914062 101.769531 L 238.570312 101.273438 L 236.773438 100.429688 L 235.886719 100.027344 L 235.484375 99.824219 L 234.078125 99.023438 L 233.898438 98.933594 L 232.398438 98.039062 L 231.980469 97.761719 L 231.453125 97.34375 L 229.3125 95.453125 L 228.726562 94.84375 L 228.320312 94.257812 L 227.472656 93.015625 L 227.023438 91.964844 L 226.625 91.171875 L 226.5 90.898438 L 226.230469 89.796875 L 225.847656 88.085938 L 225.621094 85.605469 L 225.835938 84.609375 L 226.0625 81.914062 L 226.230469 81.347656 L 226.742188 79.34375 L 226.859375 78.828125 L 227.179688 77.878906 L 227.535156 77.050781 L 228.085938 75.742188 L 228.601562 75.027344 L 229.3125 73.558594 L 229.769531 72.65625 L 230.691406 71.28125 L 230.828125 71.085938 L 232.015625 69.570312 L 232.398438 69.191406 L 233.683594 67.769531 L 233.941406 67.511719 L 235.011719 66.484375 L 235.277344 66.277344 L 235.484375 66.101562 L 236.90625 64.941406 L 236.980469 64.894531 L 237.292969 64.679688 L 238.570312 63.863281 L 239.21875 63.398438 L 240.796875 62.539062 L 241.65625 62.195312 L 242.871094 61.527344 L 243.972656 61.085938 L 244.742188 60.828125 L 245.113281 60.683594 L 246.117188 60.3125 L 247.828125 59.875 L 248.449219 59.691406 L 249.957031 59.355469 L 250.914062 59.273438 L 252.253906 58.976562 L 252.605469 58.921875 L 253.949219 58.769531 L 254 58.765625 L 255.445312 58.675781 L 255.644531 58.667969 L 257.085938 58.742188 L 258.480469 58.625 L 258.761719 58.636719 L 260.171875 58.800781 L 261.832031 58.886719 L 263.257812 59.050781 L 264.316406 59.253906 L 266.34375 59.46875 L 269.050781 59.933594 L 269.429688 60.023438 L 269.648438 60.09375 L 270.71875 60.3125 L 272.515625 60.820312 L 273.160156 60.957031 L 274.519531 61.394531 L 275.601562 61.703125 L 276.074219 61.855469 L 276.847656 62.152344 L 277.734375 62.449219 L 278.6875 62.8125 L 279.097656 62.988281 L 280.230469 63.386719 L 280.257812 63.398438 L 281.292969 63.878906 L 281.769531 64.058594 L 282.910156 64.539062 L 283.460938 64.796875 L 284.855469 65.53125 L 285.53125 65.808594 L 286.957031 66.484375 L 287.597656 66.828125 L 287.941406 67.035156 L 288.992188 67.535156 L 289.625 67.890625 L 291.027344 68.757812 L 291.570312 69.03125 L 292.570312 69.558594 L 292.597656 69.570312 L 293.5 70.183594 L 294.113281 70.523438 L 295.085938 71.113281 L 295.417969 71.351562 L 296.714844 72.171875 L 297.199219 72.507812 L 297.441406 72.65625 L 299.105469 73.839844 L 300.285156 74.738281 L 301.773438 75.742188 L 302.582031 76.53125 L 303.371094 77.035156 L 305.804688 78.828125 L 306.117188 79.167969 L 306.457031 79.40625 L 309.375 81.746094 L 309.542969 81.886719 L 309.558594 81.898438 L 309.578125 81.914062 L 312.628906 84.617188 L 312.84375 84.785156 L 313.117188 85 L 314.472656 86.242188 L 315.714844 87.410156 L 316.09375 87.707031 L 316.570312 88.085938 L 318.800781 90.207031 L 319.34375 90.628906 L 320.039062 91.171875 L 321.886719 92.917969 L 322.660156 93.480469 L 323.746094 94.257812 L 324.972656 95.347656 L 326.207031 96.109375 L 327.675781 96.964844 L 328.058594 97.214844 L 328.382812 97.34375 L 330.210938 98.273438 L 331.144531 98.558594 L 332.542969 98.886719 L 332.652344 98.917969 L 332.726562 98.925781 L 334.230469 99.148438 L 335.460938 99.199219 L 336.023438 99.136719 L 337.3125 99.183594 L 338.753906 98.785156 L 338.992188 98.753906 L 340.398438 98.519531 L 341.195312 98.136719 L 343.472656 97.34375 L 343.484375 97.339844 L 343.492188 97.335938 L 345.648438 96.417969 L 346.570312 96.125 L 347.746094 95.433594 L 349.175781 94.738281 L 349.65625 94.496094 L 349.792969 94.390625 L 349.984375 94.257812 L 351.789062 93.300781 L 352.742188 92.878906 L 355.425781 91.171875 L 355.699219 91.039062 L 355.828125 90.988281 L 356.308594 90.691406 L 357.613281 89.871094 L 357.984375 89.628906 L 358.914062 89.089844 L 359.511719 88.683594 L 360.34375 88.085938 L 361.394531 87.480469 L 362 87.117188 L 362.824219 86.542969 L 363.265625 86.265625 L 364.859375 85.226562 L 365.085938 85.078125 L 365.125 85.039062 L 365.175781 85 L 366.972656 83.800781 L 368.171875 83.070312 L 369.648438 81.914062 L 370.640625 81.296875 L 371.257812 80.945312 L 372.460938 80.035156 L 374.171875 78.828125 L 374.28125 78.765625 L 374.34375 78.730469 L 374.675781 78.496094 L 376.089844 77.488281 L 376.359375 77.285156 L 377.429688 76.558594 L 377.890625 76.207031 L 378.527344 75.742188 L 378.972656 75.449219 L 379.6875 74.917969 L 380.515625 74.335938 L 380.6875 74.199219 L 381.484375 73.625 L 382.765625 72.65625 L 383.273438 72.332031 L 383.601562 72.136719 L 385.0625 71.03125 L 385.636719 70.621094 L 386.6875 69.867188 L 386.839844 69.726562 L 387.023438 69.570312 L 388.617188 68.417969 L 389.769531 67.628906 L 390.390625 67.105469 L 391.164062 66.484375 L 392.164062 65.792969 L 392.855469 65.292969 L 393.296875 64.941406 L 393.933594 64.476562 L 394.398438 64.148438 L 395.363281 63.398438 L 395.699219 63.15625 L 395.941406 63.003906 L 397.464844 61.835938 L 397.625 61.71875 L 399.027344 60.683594 L 399.222656 60.507812 L 399.453125 60.3125 L 400.980469 59.179688 L 402.113281 58.378906 L 402.738281 57.851562 L 403.496094 57.230469 L 404.492188 56.519531 L 405.199219 56.035156 L 406.242188 55.1875 L 407.570312 54.144531 L 407.992188 53.851562 L 408.285156 53.660156 L 409.742188 52.515625 L 410.445312 51.984375 L 411.371094 51.28125 L 411.625 51.058594 L 413.234375 49.832031 L 414.457031 48.9375 L 415.597656 47.972656 L 416.71875 47.144531 L 417.542969 46.558594 L 419.589844 44.886719 L 420.195312 44.453125 L 420.628906 44.15625 L 423.609375 41.800781 L 423.671875 41.757812 L 424.015625 41.496094 L 426.800781 39.351562 " transform="matrix(1,0,0,1,-74,-13)"/>
<path style="fill:none;stroke-width:1.6;stroke-linecap:square;stroke-linejoin:miter;stroke:rgb(99.998474%,0%,0%);stroke-opacity:1;stroke-miterlimit:3.25;" d="M 81.199219 90.5625 L 83.246094 91.171875 L 84.058594 91.398438 L 84.285156 91.507812 L 84.832031 91.714844 L 87.371094 92.4375 L 88.882812 92.746094 L 90.457031 93.378906 L 91.148438 93.566406 L 93.304688 94.257812 L 93.484375 94.316406 L 93.542969 94.335938 L 93.675781 94.390625 L 96.628906 95.257812 L 98.105469 95.734375 L 98.210938 95.761719 L 99.714844 96.195312 L 100.609375 96.449219 L 102.558594 97.101562 L 102.800781 97.164062 L 102.945312 97.195312 L 103.402344 97.34375 L 104.34375 97.636719 L 104.777344 97.777344 L 105.304688 97.925781 L 105.886719 98.105469 L 107.015625 98.472656 L 107.679688 98.632812 L 108.4375 98.886719 L 108.972656 99.054688 L 110.054688 99.34375 L 111.472656 99.84375 L 112.058594 100 L 112.410156 100.074219 L 113.441406 100.429688 L 113.601562 100.480469 L 114.773438 100.796875 L 115.144531 100.933594 L 115.929688 101.21875 L 117.136719 101.523438 L 118.230469 101.867188 L 119.484375 102.257812 L 119.769531 102.378906 L 120.398438 102.597656 L 121.3125 102.855469 L 121.855469 102.976562 L 123.523438 103.515625 L 124.1875 103.726562 L 124.398438 103.808594 L 124.878906 103.992188 L 126.5625 104.4375 L 127.484375 104.742188 L 128.878906 105.207031 L 129.375 105.402344 L 130.570312 105.71875 L 131.257812 105.914062 L 133.253906 106.601562 L 133.554688 106.703125 L 133.65625 106.742188 L 136.054688 107.289062 L 136.742188 107.683594 L 138.210938 108.214844 L 138.464844 108.324219 L 139.828125 108.691406 L 140.589844 108.925781 L 142.648438 109.6875 L 142.914062 109.785156 L 143.09375 109.867188 L 145.207031 110.480469 L 146 110.765625 L 147.4375 111.332031 L 147.816406 111.503906 L 149.085938 111.847656 L 149.773438 112.085938 L 151.503906 112.769531 L 152.171875 113.035156 L 152.671875 113.269531 L 154.273438 113.757812 L 155.257812 114.113281 L 156.476562 114.636719 L 157.699219 115.214844 L 158.34375 115.382812 L 158.683594 115.515625 L 159.5 115.855469 L 160.894531 116.390625 L 161.429688 116.625 L 162.941406 117.371094 L 162.988281 117.382812 L 164.515625 117.914062 L 165.222656 118.234375 L 166.722656 118.941406 L 167.332031 119.210938 L 167.601562 119.34375 L 168.476562 119.820312 L 170.6875 120.644531 L 171.621094 121.09375 L 173.496094 122.027344 L 173.683594 122.117188 L 173.769531 122.164062 L 176.035156 122.851562 L 176.855469 123.457031 L 179.714844 124.886719 L 179.941406 124.957031 L 180.050781 125.003906 L 180.292969 125.113281 L 183.027344 126.300781 L 184.296875 126.929688 L 185.476562 127.5625 L 186.113281 127.8125 L 186.921875 128.199219 L 188.460938 128.941406 L 189.199219 129.355469 L 190.433594 130.050781 L 192.183594 131.183594 L 192.285156 131.242188 L 192.316406 131.253906 L 192.355469 131.285156 L 193.828125 132.304688 L 194.15625 132.5 L 194.511719 132.828125 L 195.371094 133.570312 L 195.828125 133.914062 L 196.222656 134.371094 L 196.914062 135.125 L 197.3125 135.515625 L 198.457031 137.160156 L 198.582031 137.332031 L 198.648438 137.457031 L 198.847656 137.847656 L 199.6875 139.3125 L 200.230469 140.542969 L 200.578125 141.507812 L 200.992188 143.078125 L 201.164062 143.628906 L 201.242188 143.929688 L 201.480469 145.171875 L 201.542969 145.578125 L 201.695312 146.5625 L 201.710938 146.714844 L 201.722656 146.890625 L 201.84375 148.257812 L 201.871094 149.472656 L 201.875 149.800781 L 201.855469 150.113281 L 201.570312 152.859375 L 201.566406 152.886719 L 201.5625 152.90625 L 201.542969 152.980469 L 201.175781 154.429688 L 200.859375 155.285156 L 200.550781 155.972656 L 200 156.886719 L 199.765625 157.28125 L 199.59375 157.515625 L 198.457031 158.71875 L 198.292969 158.894531 L 198.105469 159.058594 L 197.433594 159.574219 L 196.914062 159.886719 L 196.5 160.183594 L 195.738281 160.601562 L 195.371094 160.769531 L 194.445312 161.21875 L 192.464844 161.960938 L 192.285156 162.042969 L 192.21875 162.074219 L 192.039062 162.144531 L 190.742188 162.558594 L 189.925781 162.867188 L 189.199219 163.070312 L 187.78125 163.5625 L 187.605469 163.632812 L 186.113281 164.070312 L 183.496094 165.230469 L 183.144531 165.34375 L 183.027344 165.375 L 182.757812 165.5 L 181.046875 166.332031 L 179.941406 166.804688 L 179.039062 167.410156 L 177.628906 168.3125 L 177.117188 168.574219 L 176.855469 168.699219 L 175.5 169.671875 L 175.285156 169.828125 L 173.769531 170.960938 L 173.554688 171.183594 L 173.359375 171.398438 L 171.902344 172.617188 L 170.6875 173.707031 L 170.058594 174.484375 L 168.824219 175.707031 L 167.601562 177.054688 L 167.253906 177.570312 L 166.011719 179.066406 L 165.765625 179.40625 L 164.886719 180.65625 L 164.515625 181.089844 L 163.511719 182.742188 L 162.910156 183.742188 L 161.429688 185.984375 L 161.144531 186.542969 L 161.03125 186.828125 L 160.632812 187.625 L 159.480469 189.914062 L 159.085938 190.660156 L 158.34375 192.089844 L 158 193 L 157.222656 194.964844 L 156.804688 196.085938 L 155.851562 198.578125 L 155.617188 199.171875 L 155.503906 199.417969 L 155.257812 200.128906 L 154.765625 201.765625 L 154.667969 202.257812 L 154.367188 203.148438 L 154.074219 204.160156 L 153.851562 205.34375 L 153.410156 207.1875 L 153.097656 208.429688 L 152.882812 209.140625 L 152.46875 211.21875 L 152.425781 211.515625 L 152.171875 212.839844 L 151.949219 214.378906 L 151.894531 214.878906 L 151.5625 217.6875 L 151.351562 219.953125 L 151.257812 221.6875 L 151.121094 223.855469 L 151.0625 225.835938 L 151.082031 228.03125 L 151.089844 230.027344 L 151.175781 232.117188 L 151.234375 233.113281 L 151.316406 233.96875 L 151.484375 236.199219 L 151.785156 238.902344 L 151.835938 239.285156 L 151.882812 239.574219 L 152.171875 241.574219 L 152.324219 242.371094 L 152.347656 242.546875 L 152.832031 244.796875 L 152.976562 245.457031 L 153.222656 246.511719 L 153.34375 247 L 153.421875 247.292969 L 153.851562 248.542969 L 154.101562 249.699219 L 154.453125 250.824219 L 154.753906 251.628906 L 154.855469 252.03125 L 155.257812 253.207031 L 155.683594 254.289062 L 155.898438 254.714844 L 156.269531 255.726562 L 156.582031 256.472656 L 157.292969 257.800781 L 157.585938 258.558594 L 158.34375 260.054688 L 158.652344 260.574219 L 158.882812 260.886719 L 159.589844 262.132812 L 159.8125 262.5 L 160.917969 263.972656 L 161.429688 264.761719 L 162.5 265.984375 L 163.65625 267.058594 L 164.515625 267.984375 L 165.765625 268.890625 L 167.210938 269.753906 L 167.601562 269.972656 L 168.132812 270.144531 L 170.011719 270.820312 L 170.6875 270.988281 L 171.660156 271.117188 L 172.230469 271.191406 L 172.707031 271.207031 L 173.769531 271.234375 L 174.800781 271.171875 L 175.9375 271.0625 L 176.855469 270.957031 L 177.53125 270.816406 L 179.742188 270.34375 L 179.941406 270.300781 L 180.511719 270.144531 L 182.496094 269.613281 L 183.027344 269.457031 L 184.023438 269.148438 L 184.867188 268.894531 L 186.113281 268.503906 L 187.230469 268.175781 L 189.199219 267.507812 L 190.652344 267.058594 L 191.886719 266.660156 L 192.285156 266.523438 L 193.0625 266.28125 L 194.253906 265.9375 L 195.371094 265.585938 L 196.648438 265.246094 L 197.402344 265.027344 L 198.457031 264.746094 L 199.097656 264.613281 L 201.464844 264.050781 L 201.542969 264.035156 L 201.597656 264.027344 L 201.921875 263.972656 L 204.628906 263.453125 L 206.96875 263.226562 L 207.714844 263.070312 L 208.734375 262.953125 L 210.800781 262.925781 L 213.03125 263.117188 L 213.886719 263.082031 L 214.726562 263.128906 L 216.972656 263.628906 L 217.25 263.695312 L 218.0625 263.972656 L 219.578125 264.453125 L 220.058594 264.671875 L 221.496094 265.410156 L 221.636719 265.476562 L 223.144531 266.449219 L 223.527344 266.671875 L 223.890625 267.058594 L 226.230469 269.488281 L 226.542969 269.828125 L 227.125 271.039062 L 228.359375 273.230469 L 228.667969 273.875 L 229.277344 276.3125 L 229.3125 276.628906 L 229.605469 279.109375 L 229.609375 279.398438 L 229.589844 279.671875 L 229.410156 282.386719 L 229.398438 282.484375 L 229.3125 282.785156 L 228.71875 284.976562 L 228.625 285.570312 L 228.167969 286.71875 L 227.917969 287.261719 L 227.207031 288.65625 L 226.8125 289.242188 L 226.230469 289.980469 L 224.984375 291.742188 L 224.074219 292.675781 L 223.144531 293.441406 L 221.628906 294.828125 L 220.695312 295.464844 L 220.058594 295.789062 L 218.792969 296.652344 L 217.648438 297.238281 L 216.972656 297.546875 L 216.730469 297.671875 L 216.25 297.914062 L 213.886719 298.726562 L 212.574219 299.226562 L 212.226562 299.339844 L 211.808594 299.457031 L 210.800781 299.695312 L 209.722656 299.921875 L 208.601562 300.113281 L 207.714844 300.265625 L 207.070312 300.355469 L 205.074219 300.554688 L 204.628906 300.566406 L 204.257812 300.628906 L 201.851562 300.691406 L 201.542969 300.675781 L 201.242188 300.699219 L 198.863281 300.59375 L 198.457031 300.539062 L 198 300.542969 L 196.050781 300.320312 L 195.371094 300.183594 L 194.503906 300.128906 L 193.355469 299.929688 L 192.285156 299.644531 L 190.742188 299.457031 L 189.199219 298.96875 L 186.523438 298.324219 L 186.113281 298.203125 L 185.875 298.152344 L 185.046875 297.914062 L 183.027344 297.175781 L 182.035156 296.921875 L 181.226562 296.632812 L 179.941406 296.058594 L 178.964844 295.808594 L 177.261719 295.230469 L 176.855469 295.058594 L 176.671875 295.015625 L 176.050781 294.828125 L 173.769531 293.925781 L 172.652344 293.710938 L 172.003906 293.511719 L 170.6875 293.042969 L 168.644531 292.785156 L 167.601562 292.5625 L 166.757812 292.585938 L 165.371094 292.601562 L 164.515625 292.511719 L 163.589844 292.667969 L 162.53125 292.84375 L 161.429688 292.902344 L 159.910156 293.261719 L 157.636719 294.121094 L 155.835938 294.828125 L 155.257812 294.992188 L 153.265625 295.925781 L 152.171875 296.308594 L 149.292969 297.914062 L 149.148438 297.976562 L 149.085938 297.996094 L 148.902344 298.097656 L 147.160156 299.074219 L 146 299.640625 L 145.203125 300.203125 L 143.957031 301 L 143.269531 301.355469 L 142.914062 301.511719 L 141.460938 302.453125 L 141.351562 302.523438 L 139.828125 303.425781 L 139.460938 303.71875 L 138.964844 304.085938 L 137.582031 304.925781 L 136.742188 305.386719 L 135.714844 306.144531 L 134.203125 307.171875 L 133.859375 307.371094 L 133.65625 307.472656 L 132.785156 308.042969 L 130.570312 309.53125 L 130.175781 309.859375 L 129.664062 310.257812 L 128.347656 311.117188 L 127.484375 311.636719 L 126.523438 312.378906 L 125.199219 313.34375 L 124.398438 313.824219 L 122.894531 314.921875 L 122.65625 315.085938 L 121.3125 316.015625 L 120.820312 316.429688 L 119.292969 317.496094 L 118.230469 318.195312 L 117.5 318.785156 L 116.558594 319.515625 L 115.710938 320.082031 L 115.144531 320.472656 L 114.378906 321.058594 L 113.921875 321.378906 L 113.601562 321.597656 L 112.257812 322.601562 L 112.136719 322.679688 L 112.058594 322.734375 L 111.558594 323.097656 L 110.515625 323.867188 L 110.359375 323.988281 L 110.160156 324.144531 L 108.972656 324.996094 L 108.585938 325.300781 L 108.117188 325.6875 L 106.816406 326.613281 L 105.886719 327.246094 L 105.046875 327.929688 L 103.972656 328.769531 L 102.800781 329.5625 L 101.527344 330.582031 L 99.800781 331.855469 L 99.714844 331.914062 L 99.484375 332.089844 L 97.992188 333.21875 L 96.628906 334.214844 L 95.761719 334.941406 L 94.480469 335.878906 L 93.542969 336.542969 L 91.707031 338.027344 L 90.976562 338.546875 L 90.457031 338.902344 L 87.632812 341.113281 L 87.476562 341.222656 L 87.371094 341.289062 L 86.644531 341.839844 L 83.992188 343.90625 L 83.636719 344.199219 L 81.199219 346.007812 " transform="matrix(1,0,0,1,-74,-13)"/>
<path style="fill:none;stroke-width:1.6;stroke-linecap:square;stroke-linejoin:miter;stroke:rgb(99.998474%,0%,0%);stroke-opacity:1;stroke-miterlimit:3.25;" d="M 313.4375 246.265625 L 312.628906 248.144531 L 312.441406 248.542969 L 312.277344 248.894531 L 311.488281 250.488281 L 310.832031 251.628906 L 309.542969 253.871094 L 309.203125 254.375 L 308.957031 254.714844 L 306.988281 257.269531 L 306.582031 257.800781 L 306.527344 257.871094 L 306.457031 257.949219 L 305.207031 259.046875 L 303.371094 260.675781 L 303.246094 260.761719 L 303.015625 260.886719 L 301.289062 261.890625 L 300.285156 262.324219 L 299.058594 262.746094 L 298.238281 262.933594 L 297.199219 263.152344 L 296.46875 263.238281 L 294.777344 263.308594 L 294.113281 263.320312 L 293.433594 263.289062 L 291.878906 263.121094 L 291.027344 263.003906 L 289.328125 262.585938 L 285.5625 261.589844 L 284.855469 261.347656 L 284.519531 261.222656 L 283.605469 260.886719 L 281.769531 260.160156 L 280.148438 259.421875 L 278.6875 258.707031 L 275.957031 257.441406 L 274.421875 256.621094 L 272.515625 255.589844 L 271.949219 255.28125 L 270.945312 254.714844 L 269.429688 253.789062 L 268.074219 252.984375 L 267.03125 252.316406 L 266.34375 251.875 L 265.941406 251.628906 L 264.335938 250.550781 L 263.257812 249.777344 L 261.480469 248.542969 L 260.734375 247.976562 L 260.171875 247.515625 L 258.996094 246.632812 L 257.554688 245.457031 L 257.304688 245.238281 L 257.085938 245.035156 L 255.660156 243.796875 L 254.136719 242.371094 L 254.066406 242.304688 L 254 242.230469 L 251.183594 239.285156 L 251.058594 239.140625 L 250.914062 238.960938 L 248.648438 236.199219 L 248.300781 235.726562 L 247.828125 235.042969 L 246.476562 233.113281 L 245.8125 232.042969 L 244.742188 230.265625 L 244.601562 230.027344 L 244.429688 229.714844 L 243.566406 228.117188 L 242.964844 226.941406 L 241.65625 224.144531 L 241.566406 223.949219 L 241.523438 223.855469 L 241.421875 223.621094 L 240.664062 221.765625 L 240.269531 220.769531 L 239.808594 219.535156 L 239.453125 218.566406 L 239.160156 217.6875 L 239.023438 217.234375 L 238.570312 215.761719 L 238.292969 214.875 L 238.207031 214.601562 L 238.054688 214.082031 L 237.65625 212.429688 L 237.429688 211.515625 L 237.09375 210.035156 L 237.074219 209.925781 L 236.820312 208.429688 L 236.652344 207.261719 L 236.503906 206.363281 L 236.429688 205.34375 L 236.496094 204.332031 L 236.328125 202.257812 L 236.425781 200.113281 L 236.652344 199.171875 L 237.351562 197.304688 L 237.632812 196.085938 L 237.890625 195.40625 L 238.570312 194.519531 L 239.800781 193 L 240.75 192.09375 L 241.65625 191.476562 L 244.3125 189.914062 L 244.589844 189.761719 L 244.742188 189.710938 L 245.042969 189.613281 L 247.828125 188.472656 L 248.992188 187.992188 L 250.914062 187.484375 L 253.355469 186.828125 L 253.859375 186.6875 L 254 186.664062 L 254.199219 186.628906 L 258.871094 185.527344 L 260.171875 185.257812 L 261.941406 185.058594 L 264.164062 184.648438 L 266.34375 184.386719 L 269.039062 184.128906 L 269.738281 184.054688 L 272.515625 183.730469 L 275.511719 183.832031 L 275.683594 183.828125 L 278.6875 183.902344 L 278.859375 183.917969 L 281.40625 184.109375 L 281.769531 184.132812 L 282.226562 184.199219 L 284.152344 184.449219 L 284.855469 184.53125 L 285.855469 184.738281 L 286.773438 184.914062 L 287.941406 185.171875 L 288.398438 185.285156 L 289.277344 185.496094 L 289.855469 185.652344 L 291.027344 185.976562 L 291.671875 186.183594 L 292.050781 186.308594 L 292.570312 186.472656 L 293.554688 186.828125 L 293.972656 186.972656 L 294.113281 187.027344 L 294.445312 187.160156 L 296.175781 187.851562 L 297.199219 188.285156 L 300.28125 189.914062 L 300.285156 189.917969 L 300.292969 189.921875 L 302.21875 191.066406 L 303.371094 191.820312 L 304.058594 192.3125 L 304.914062 192.976562 L 304.941406 193 L 305.804688 193.652344 L 306.457031 194.222656 L 306.820312 194.542969 L 307.457031 195.085938 L 308.472656 196.085938 L 309.019531 196.609375 L 309.542969 197.171875 L 310.488281 198.226562 L 311.238281 199.171875 L 311.855469 199.941406 L 312.628906 201.0625 L 313.144531 201.742188 L 313.40625 202.257812 L 314.238281 203.867188 L 315.089844 205.34375 L 315.3125 205.742188 L 315.714844 206.765625 L 316.378906 208.429688 L 317.035156 210.195312 L 317.324219 211.515625 L 317.609375 212.703125 L 317.757812 213.554688 L 317.972656 214.601562 L 318.09375 215.308594 L 318.292969 217.179688 L 318.363281 217.6875 L 318.40625 218.082031 L 318.515625 220.484375 L 318.535156 220.769531 L 318.542969 221.027344 L 318.503906 223.5625 L 318.503906 223.855469 L 318.300781 226.445312 L 318.25 227.492188 L 317.917969 230.027344 L 317.558594 231.875 L 317.386719 233.113281 L 317.019531 234.894531 L 316.707031 236.199219 L 316.480469 236.96875 L 315.898438 239.285156 L 315.714844 239.871094 L 315.113281 241.769531 L 314.898438 242.371094 L 314.484375 243.601562 L 314.316406 244.058594 L 313.75 245.457031 L 313.4375 246.265625 " transform="matrix(1,0,0,1,-74,-13)"/>
<path style=" stroke:none;fill-rule:evenodd;fill:rgb(36.84082%,50.67749%,70.979309%);fill-opacity:1;" d="M 241.398438 138 C 241.398438 136.566406 240.832031 135.195312 239.820312 134.179688 C 238.804688 133.167969 237.433594 132.601562 236 132.601562 C 234.566406 132.601562 233.195312 133.167969 232.179688 134.179688 C 231.167969 135.195312 230.601562 136.566406 230.601562 138 C 230.601562 139.433594 231.167969 140.804688 232.179688 141.820312 C 233.195312 142.832031 234.566406 143.398438 236 143.398438 C 237.433594 143.398438 238.804688 142.832031 239.820312 141.820312 C 240.832031 140.804688 241.398438 139.433594 241.398438 138 Z M 241.398438 138 "/>
<path style=" stroke:none;fill-rule:evenodd;fill:rgb(36.84082%,50.67749%,70.979309%);fill-opacity:1;" d="M 158.398438 258 C 158.398438 256.566406 157.832031 255.195312 156.820312 254.179688 C 155.804688 253.167969 154.433594 252.601562 153 252.601562 C 151.566406 252.601562 150.195312 253.167969 149.179688 254.179688 C 148.167969 255.195312 147.601562 256.566406 147.601562 258 C 147.601562 259.433594 148.167969 260.804688 149.179688 261.820312 C 150.195312 262.832031 151.566406 263.398438 153 263.398438 C 154.433594 263.398438 155.804688 262.832031 156.820312 261.820312 C 157.832031 260.804688 158.398438 259.433594 158.398438 258 Z M 158.398438 258 "/>
<path style=" stroke:none;fill-rule:evenodd;fill:rgb(36.84082%,50.67749%,70.979309%);fill-opacity:1;" d="M 171.398438 207 C 171.398438 205.566406 170.832031 204.195312 169.820312 203.179688 C 168.804688 202.167969 167.433594 201.601562 166 201.601562 C 164.566406 201.601562 163.195312 202.167969 162.179688 203.179688 C 161.167969 204.195312 160.601562 205.566406 160.601562 207 C 160.601562 208.433594 161.167969 209.804688 162.179688 210.820312 C 163.195312 211.832031 164.566406 212.398438 166 212.398438 C 167.433594 212.398438 168.804688 211.832031 169.820312 210.820312 C 170.832031 209.804688 171.398438 208.433594 171.398438 207 Z M 171.398438 207 "/>
<path style=" stroke:none;fill-rule:evenodd;fill:rgb(36.84082%,50.67749%,70.979309%);fill-opacity:1;" d="M 273.398438 191 C 273.398438 189.566406 272.832031 188.195312 271.820312 187.179688 C 270.804688 186.167969 269.433594 185.601562 268 185.601562 C 266.566406 185.601562 265.195312 186.167969 264.179688 187.179688 C 263.167969 188.195312 262.601562 189.566406 262.601562 191 C 262.601562 192.433594 263.167969 193.804688 264.179688 194.820312 C 265.195312 195.832031 266.566406 196.398438 268 196.398438 C 269.433594 196.398438 270.804688 195.832031 271.820312 194.820312 C 272.832031 193.804688 273.398438 192.433594 273.398438 191 Z M 273.398438 191 "/>
<path style=" stroke:none;fill-rule:evenodd;fill:rgb(36.84082%,50.67749%,70.979309%);fill-opacity:1;" d="M 104.398438 109 C 104.398438 107.566406 103.832031 106.195312 102.820312 105.179688 C 101.804688 104.167969 100.433594 103.601562 99 103.601562 C 97.566406 103.601562 96.195312 104.167969 95.179688 105.179688 C 94.167969 106.195312 93.601562 107.566406 93.601562 109 C 93.601562 110.433594 94.167969 111.804688 95.179688 112.820312 C 96.195312 113.832031 97.566406 114.398438 99 114.398438 C 100.433594 114.398438 101.804688 113.832031 102.820312 112.820312 C 103.832031 111.804688 104.398438 110.433594 104.398438 109 Z M 104.398438 109 "/>
<path style=" stroke:none;fill-rule:evenodd;fill:rgb(36.84082%,50.67749%,70.979309%);fill-opacity:1;" d="M 249.398438 295 C 249.398438 293.566406 248.832031 292.195312 247.820312 291.179688 C 246.804688 290.167969 245.433594 289.601562 244 289.601562 C 242.566406 289.601562 241.195312 290.167969 240.179688 291.179688 C 239.167969 292.195312 238.601562 293.566406 238.601562 295 C 238.601562 296.433594 239.167969 297.804688 240.179688 298.820312 C 241.195312 299.832031 242.566406 300.398438 244 300.398438 C 245.433594 300.398438 246.804688 299.832031 247.820312 298.820312 C 248.832031 297.804688 249.398438 296.433594 249.398438 295 Z M 249.398438 295 "/>
<path style=" stroke:none;fill-rule:evenodd;fill:rgb(36.84082%,50.67749%,70.979309%);fill-opacity:1;" d="M 235.398438 179 C 235.398438 177.566406 234.832031 176.195312 233.820312 175.179688 C 232.804688 174.167969 231.433594 173.601562 230 173.601562 C 228.566406 173.601562 227.195312 174.167969 226.179688 175.179688 C 225.167969 176.195312 224.601562 177.566406 224.601562 179 C 224.601562 180.433594 225.167969 181.804688 226.179688 182.820312 C 227.195312 183.832031 228.566406 184.398438 230 184.398438 C 231.433594 184.398438 232.804688 183.832031 233.820312 182.820312 C 234.832031 181.804688 235.398438 180.433594 235.398438 179 Z M 235.398438 179 "/>
<path style=" stroke:none;fill-rule:evenodd;fill:rgb(36.84082%,50.67749%,70.979309%);fill-opacity:1;" d="M 241.398438 240 C 241.398438 238.566406 240.832031 237.195312 239.820312 236.179688 C 238.804688 235.167969 237.433594 234.601562 236 234.601562 C 234.566406 234.601562 233.195312 235.167969 232.179688 236.179688 C 231.167969 237.195312 230.601562 238.566406 230.601562 240 C 230.601562 241.433594 231.167969 242.804688 232.179688 243.820312 C 233.195312 244.832031 234.566406 245.398438 236 245.398438 C 237.433594 245.398438 238.804688 244.832031 239.820312 243.820312 C 240.832031 242.804688 241.398438 241.433594 241.398438 240 Z M 241.398438 240 "/>
<path style=" stroke:none;fill-rule:evenodd;fill:rgb(36.84082%,50.67749%,70.979309%);fill-opacity:1;" d="M 288.398438 143 C 288.398438 141.566406 287.832031 140.195312 286.820312 139.179688 C 285.804688 138.167969 284.433594 137.601562 283 137.601562 C 281.566406 137.601562 280.195312 138.167969 279.179688 139.179688 C 278.167969 140.195312 277.601562 141.566406 277.601562 143 C 277.601562 144.433594 278.167969 145.804688 279.179688 146.820312 C 280.195312 147.832031 281.566406 148.398438 283 148.398438 C 284.433594 148.398438 285.804688 147.832031 286.820312 146.820312 C 287.832031 145.804688 288.398438 144.433594 288.398438 143 Z M 288.398438 143 "/>
<path style=" stroke:none;fill-rule:evenodd;fill:rgb(36.84082%,50.67749%,70.979309%);fill-opacity:1;" d="M 160.398438 82 C 160.398438 80.566406 159.832031 79.195312 158.820312 78.179688 C 157.804688 77.167969 156.433594 76.601562 155 76.601562 C 153.566406 76.601562 152.195312 77.167969 151.179688 78.179688 C 150.167969 79.195312 149.601562 80.566406 149.601562 82 C 149.601562 83.433594 150.167969 84.804688 151.179688 85.820312 C 152.195312 86.832031 153.566406 87.398438 155 87.398438 C 156.433594 87.398438 157.804688 86.832031 158.820312 85.820312 C 159.832031 84.804688 160.398438 83.433594 160.398438 82 Z M 160.398438 82 "/>
<path style=" stroke:none;fill-rule:evenodd;fill:rgb(36.84082%,50.67749%,70.979309%);fill-opacity:1;" d="M 156.398438 278 C 156.398438 276.566406 155.832031 275.195312 154.820312 274.179688 C 153.804688 273.167969 152.433594 272.601562 151 272.601562 C 149.566406 272.601562 148.195312 273.167969 147.179688 274.179688 C 146.167969 275.195312 145.601562 276.566406 145.601562 278 C 145.601562 279.433594 146.167969 280.804688 147.179688 281.820312 C 148.195312 282.832031 149.566406 283.398438 151 283.398438 C 152.433594 283.398438 153.804688 282.832031 154.820312 281.820312 C 155.832031 280.804688 156.398438 279.433594 156.398438 278 Z M 156.398438 278 "/>
<path style=" stroke:none;fill-rule:evenodd;fill:rgb(36.84082%,50.67749%,70.979309%);fill-opacity:1;" d="M 240.398438 138 C 240.398438 136.566406 239.832031 135.195312 238.820312 134.179688 C 237.804688 133.167969 236.433594 132.601562 235 132.601562 C 233.566406 132.601562 232.195312 133.167969 231.179688 134.179688 C 230.167969 135.195312 229.601562 136.566406 229.601562 138 C 229.601562 139.433594 230.167969 140.804688 231.179688 141.820312 C 232.195312 142.832031 233.566406 143.398438 235 143.398438 C 236.433594 143.398438 237.804688 142.832031 238.820312 141.820312 C 239.832031 140.804688 240.398438 139.433594 240.398438 138 Z M 240.398438 138 "/>
<path style=" stroke:none;fill-rule:evenodd;fill:rgb(36.84082%,50.67749%,70.979309%);fill-opacity:1;" d="M 160.398438 121 C 160.398438 119.566406 159.832031 118.195312 158.820312 117.179688 C 157.804688 116.167969 156.433594 115.601562 155 115.601562 C 153.566406 115.601562 152.195312 116.167969 151.179688 117.179688 C 150.167969 118.195312 149.601562 119.566406 149.601562 121 C 149.601562 122.433594 150.167969 123.804688 151.179688 124.820312 C 152.195312 125.832031 153.566406 126.398438 155 126.398438 C 156.433594 126.398438 157.804688 125.832031 158.820312 124.820312 C 159.832031 123.804688 160.398438 122.433594 160.398438 121 Z M 160.398438 121 "/>
<path style=" stroke:none;fill-rule:evenodd;fill:rgb(36.84082%,50.67749%,70.979309%);fill-opacity:1;" d="M 193.398438 236 C 193.398438 234.566406 192.832031 233.195312 191.820312 232.179688 C 190.804688 231.167969 189.433594 230.601562 188 230.601562 C 186.566406 230.601562 185.195312 231.167969 184.179688 232.179688 C 183.167969 233.195312 182.601562 234.566406 182.601562 236 C 182.601562 237.433594 183.167969 238.804688 184.179688 239.820312 C 185.195312 240.832031 186.566406 241.398438 188 241.398438 C 189.433594 241.398438 190.804688 240.832031 191.820312 239.820312 C 192.832031 238.804688 193.398438 237.433594 193.398438 236 Z M 193.398438 236 "/>
<path style=" stroke:none;fill-rule:evenodd;fill:rgb(36.84082%,50.67749%,70.979309%);fill-opacity:1;" d="M 192.398438 97 C 192.398438 95.566406 191.832031 94.195312 190.820312 93.179688 C 189.804688 92.167969 188.433594 91.601562 187 91.601562 C 185.566406 91.601562 184.195312 92.167969 183.179688 93.179688 C 182.167969 94.195312 181.601562 95.566406 181.601562 97 C 181.601562 98.433594 182.167969 99.804688 183.179688 100.820312 C 184.195312 101.832031 185.566406 102.398438 187 102.398438 C 188.433594 102.398438 189.804688 101.832031 190.820312 100.820312 C 191.832031 99.804688 192.398438 98.433594 192.398438 97 Z M 192.398438 97 "/>
<path style=" stroke:none;fill-rule:evenodd;fill:rgb(36.84082%,50.67749%,70.979309%);fill-opacity:1;" d="M 89.398438 102 C 89.398438 100.566406 88.832031 99.195312 87.820312 98.179688 C 86.804688 97.167969 85.433594 96.601562 84 96.601562 C 82.566406 96.601562 81.195312 97.167969 80.179688 98.179688 C 79.167969 99.195312 78.601562 100.566406 78.601562 102 C 78.601562 103.433594 79.167969 104.804688 80.179688 105.820312 C 81.195312 106.832031 82.566406 107.398438 84 107.398438 C 85.433594 107.398438 86.804688 106.832031 87.820312 105.820312 C 88.832031 104.804688 89.398438 103.433594 89.398438 102 Z M 89.398438 102 "/>
<path style=" stroke:none;fill-rule:evenodd;fill:rgb(36.84082%,50.67749%,70.979309%);fill-opacity:1;" d="M 130.398438 146 C 130.398438 144.566406 129.832031 143.195312 128.820312 142.179688 C 127.804688 141.167969 126.433594 140.601562 125 140.601562 C 123.566406 140.601562 122.195312 141.167969 121.179688 142.179688 C 120.167969 143.195312 119.601562 144.566406 119.601562 146 C 119.601562 147.433594 120.167969 148.804688 121.179688 149.820312 C 122.195312 150.832031 123.566406 151.398438 125 151.398438 C 126.433594 151.398438 127.804688 150.832031 128.820312 149.820312 C 129.832031 148.804688 130.398438 147.433594 130.398438 146 Z M 130.398438 146 "/>
<path style=" stroke:none;fill-rule:evenodd;fill:rgb(36.84082%,50.67749%,70.979309%);fill-opacity:1;" d="M 85.398438 192 C 85.398438 190.566406 84.832031 189.195312 83.820312 188.179688 C 82.804688 187.167969 81.433594 186.601562 80 186.601562 C 78.566406 186.601562 77.195312 187.167969 76.179688 188.179688 C 75.167969 189.195312 74.601562 190.566406 74.601562 192 C 74.601562 193.433594 75.167969 194.804688 76.179688 195.820312 C 77.195312 196.832031 78.566406 197.398438 80 197.398438 C 81.433594 197.398438 82.804688 196.832031 83.820312 195.820312 C 84.832031 194.804688 85.398438 193.433594 85.398438 192 Z M 85.398438 192 "/>
<path style=" stroke:none;fill-rule:evenodd;fill:rgb(36.84082%,50.67749%,70.979309%);fill-opacity:1;" d="M 227.398438 250 C 227.398438 248.566406 226.832031 247.195312 225.820312 246.179688 C 224.804688 245.167969 223.433594 244.601562 222 244.601562 C 220.566406 244.601562 219.195312 245.167969 218.179688 246.179688 C 217.167969 247.195312 216.601562 248.566406 216.601562 250 C 216.601562 251.433594 217.167969 252.804688 218.179688 253.820312 C 219.195312 254.832031 220.566406 255.398438 222 255.398438 C 223.433594 255.398438 224.804688 254.832031 225.820312 253.820312 C 226.832031 252.804688 227.398438 251.433594 227.398438 250 Z M 227.398438 250 "/>
<path style=" stroke:none;fill-rule:evenodd;fill:rgb(36.84082%,50.67749%,70.979309%);fill-opacity:1;" d="M 236.398438 65 C 236.398438 63.566406 235.832031 62.195312 234.820312 61.179688 C 233.804688 60.167969 232.433594 59.601562 231 59.601562 C 229.566406 59.601562 228.195312 60.167969 227.179688 61.179688 C 226.167969 62.195312 225.601562 63.566406 225.601562 65 C 225.601562 66.433594 226.167969 67.804688 227.179688 68.820312 C 228.195312 69.832031 229.566406 70.398438 231 70.398438 C 232.433594 70.398438 233.804688 69.832031 234.820312 68.820312 C 235.832031 67.804688 236.398438 66.433594 236.398438 65 Z M 236.398438 65 "/>
<path style=" stroke:none;fill-rule:evenodd;fill:rgb(36.84082%,50.67749%,70.979309%);fill-opacity:1;" d="M 276.398438 129 C 276.398438 127.566406 275.832031 126.195312 274.820312 125.179688 C 273.804688 124.167969 272.433594 123.601562 271 123.601562 C 269.566406 123.601562 268.195312 124.167969 267.179688 125.179688 C 266.167969 126.195312 265.601562 127.566406 265.601562 129 C 265.601562 130.433594 266.167969 131.804688 267.179688 132.820312 C 268.195312 133.832031 269.566406 134.398438 271 134.398438 C 272.433594 134.398438 273.804688 133.832031 274.820312 132.820312 C 275.832031 131.804688 276.398438 130.433594 276.398438 129 Z M 276.398438 129 "/>
<path style=" stroke:none;fill-rule:evenodd;fill:rgb(36.84082%,50.67749%,70.979309%);fill-opacity:1;" d="M 109.398438 283 C 109.398438 281.566406 108.832031 280.195312 107.820312 279.179688 C 106.804688 278.167969 105.433594 277.601562 104 277.601562 C 102.566406 277.601562 101.195312 278.167969 100.179688 279.179688 C 99.167969 280.195312 98.601562 281.566406 98.601562 283 C 98.601562 284.433594 99.167969 285.804688 100.179688 286.820312 C 101.195312 287.832031 102.566406 288.398438 104 288.398438 C 105.433594 288.398438 106.804688 287.832031 107.820312 286.820312 C 108.832031 285.804688 109.398438 284.433594 109.398438 283 Z M 109.398438 283 "/>
<path style=" stroke:none;fill-rule:evenodd;fill:rgb(36.84082%,50.67749%,70.979309%);fill-opacity:1;" d="M 139.398438 250 C 139.398438 248.566406 138.832031 247.195312 137.820312 246.179688 C 136.804688 245.167969 135.433594 244.601562 134 244.601562 C 132.566406 244.601562 131.195312 245.167969 130.179688 246.179688 C 129.167969 247.195312 128.601562 248.566406 128.601562 250 C 128.601562 251.433594 129.167969 252.804688 130.179688 253.820312 C 131.195312 254.832031 132.566406 255.398438 134 255.398438 C 135.433594 255.398438 136.804688 254.832031 137.820312 253.820312 C 138.832031 252.804688 139.398438 251.433594 139.398438 250 Z M 139.398438 250 "/>
<path style=" stroke:none;fill-rule:evenodd;fill:rgb(36.84082%,50.67749%,70.979309%);fill-opacity:1;" d="M 98.398438 164 C 98.398438 162.566406 97.832031 161.195312 96.820312 160.179688 C 95.804688 159.167969 94.433594 158.601562 93 158.601562 C 91.566406 158.601562 90.195312 159.167969 89.179688 160.179688 C 88.167969 161.195312 87.601562 162.566406 87.601562 164 C 87.601562 165.433594 88.167969 166.804688 89.179688 167.820312 C 90.195312 168.832031 91.566406 169.398438 93 169.398438 C 94.433594 169.398438 95.804688 168.832031 96.820312 167.820312 C 97.832031 166.804688 98.398438 165.433594 98.398438 164 Z M 98.398438 164 "/>
<path style=" stroke:none;fill-rule:evenodd;fill:rgb(36.84082%,50.67749%,70.979309%);fill-opacity:1;" d="M 280.398438 209 C 280.398438 207.566406 279.832031 206.195312 278.820312 205.179688 C 277.804688 204.167969 276.433594 203.601562 275 203.601562 C 273.566406 203.601562 272.195312 204.167969 271.179688 205.179688 C 270.167969 206.195312 269.601562 207.566406 269.601562 209 C 269.601562 210.433594 270.167969 211.804688 271.179688 212.820312 C 272.195312 213.832031 273.566406 214.398438 275 214.398438 C 276.433594 214.398438 277.804688 213.832031 278.820312 212.820312 C 279.832031 211.804688 280.398438 210.433594 280.398438 209 Z M 280.398438 209 "/>
<path style=" stroke:none;fill-rule:evenodd;fill:rgb(36.84082%,50.67749%,70.979309%);fill-opacity:1;" d="M 261.398438 111 C 261.398438 109.566406 260.832031 108.195312 259.820312 107.179688 C 258.804688 106.167969 257.433594 105.601562 256 105.601562 C 254.566406 105.601562 253.195312 106.167969 252.179688 107.179688 C 251.167969 108.195312 250.601562 109.566406 250.601562 111 C 250.601562 112.433594 251.167969 113.804688 252.179688 114.820312 C 253.195312 115.832031 254.566406 116.398438 256 116.398438 C 257.433594 116.398438 258.804688 115.832031 259.820312 114.820312 C 260.832031 113.804688 261.398438 112.433594 261.398438 111 Z M 261.398438 111 "/>
<path style=" stroke:none;fill-rule:evenodd;fill:rgb(36.84082%,50.67749%,70.979309%);fill-opacity:1;" d="M 207.398438 171 C 207.398438 169.566406 206.832031 168.195312 205.820312 167.179688 C 204.804688 166.167969 203.433594 165.601562 202 165.601562 C 200.566406 165.601562 199.195312 166.167969 198.179688 167.179688 C 197.167969 168.195312 196.601562 169.566406 196.601562 171 C 196.601562 172.433594 197.167969 173.804688 198.179688 174.820312 C 199.195312 175.832031 200.566406 176.398438 202 176.398438 C 203.433594 176.398438 204.804688 175.832031 205.820312 174.820312 C 206.832031 173.804688 207.398438 172.433594 207.398438 171 Z M 207.398438 171 "/>
<path style=" stroke:none;fill-rule:evenodd;fill:rgb(36.84082%,50.67749%,70.979309%);fill-opacity:1;" d="M 93.398438 171 C 93.398438 169.566406 92.832031 168.195312 91.820312 167.179688 C 90.804688 166.167969 89.433594 165.601562 88 165.601562 C 86.566406 165.601562 85.195312 166.167969 84.179688 167.179688 C 83.167969 168.195312 82.601562 169.566406 82.601562 171 C 82.601562 172.433594 83.167969 173.804688 84.179688 174.820312 C 85.195312 175.832031 86.566406 176.398438 88 176.398438 C 89.433594 176.398438 90.804688 175.832031 91.820312 174.820312 C 92.832031 173.804688 93.398438 172.433594 93.398438 171 Z M 93.398438 171 "/>
<path style=" stroke:none;fill-rule:evenodd;fill:rgb(36.84082%,50.67749%,70.979309%);fill-opacity:1;" d="M 179.398438 92 C 179.398438 90.566406 178.832031 89.195312 177.820312 88.179688 C 176.804688 87.167969 175.433594 86.601562 174 86.601562 C 172.566406 86.601562 171.195312 87.167969 170.179688 88.179688 C 169.167969 89.195312 168.601562 90.566406 168.601562 92 C 168.601562 93.433594 169.167969 94.804688 170.179688 95.820312 C 171.195312 96.832031 172.566406 97.398438 174 97.398438 C 175.433594 97.398438 176.804688 96.832031 177.820312 95.820312 C 178.832031 94.804688 179.398438 93.433594 179.398438 92 Z M 179.398438 92 "/>
<path style=" stroke:none;fill-rule:evenodd;fill:rgb(36.84082%,50.67749%,70.979309%);fill-opacity:1;" d="M 74.398438 97 C 74.398438 95.566406 73.832031 94.195312 72.820312 93.179688 C 71.804688 92.167969 70.433594 91.601562 69 91.601562 C 67.566406 91.601562 66.195312 92.167969 65.179688 93.179688 C 64.167969 94.195312 63.601562 95.566406 63.601562 97 C 63.601562 98.433594 64.167969 99.804688 65.179688 100.820312 C 66.195312 101.832031 67.566406 102.398438 69 102.398438 C 70.433594 102.398438 71.804688 101.832031 72.820312 100.820312 C 73.832031 99.804688 74.398438 98.433594 74.398438 97 Z M 74.398438 97 "/>
<path style=" stroke:none;fill-rule:evenodd;fill:rgb(36.84082%,50.67749%,70.979309%);fill-opacity:1;" d="M 130.398438 124 C 130.398438 122.566406 129.832031 121.195312 128.820312 120.179688 C 127.804688 119.167969 126.433594 118.601562 125 118.601562 C 123.566406 118.601562 122.195312 119.167969 121.179688 120.179688 C 120.167969 121.195312 119.601562 122.566406 119.601562 124 C 119.601562 125.433594 120.167969 126.804688 121.179688 127.820312 C 122.195312 128.832031 123.566406 129.398438 125 129.398438 C 126.433594 129.398438 127.804688 128.832031 128.820312 127.820312 C 129.832031 126.804688 130.398438 125.433594 130.398438 124 Z M 130.398438 124 "/>
<path style=" stroke:none;fill-rule:evenodd;fill:rgb(36.84082%,50.67749%,70.979309%);fill-opacity:1;" d="M 101.398438 96 C 101.398438 94.566406 100.832031 93.195312 99.820312 92.179688 C 98.804688 91.167969 97.433594 90.601562 96 90.601562 C 94.566406 90.601562 93.195312 91.167969 92.179688 92.179688 C 91.167969 93.195312 90.601562 94.566406 90.601562 96 C 90.601562 97.433594 91.167969 98.804688 92.179688 99.820312 C 93.195312 100.832031 94.566406 101.398438 96 101.398438 C 97.433594 101.398438 98.804688 100.832031 99.820312 99.820312 C 100.832031 98.804688 101.398438 97.433594 101.398438 96 Z M 101.398438 96 "/>
<path style=" stroke:none;fill-rule:evenodd;fill:rgb(36.84082%,50.67749%,70.979309%);fill-opacity:1;" d="M 286.398438 276 C 286.398438 274.566406 285.832031 273.195312 284.820312 272.179688 C 283.804688 271.167969 282.433594 270.601562 281 270.601562 C 279.566406 270.601562 278.195312 271.167969 277.179688 272.179688 C 276.167969 273.195312 275.601562 274.566406 275.601562 276 C 275.601562 277.433594 276.167969 278.804688 277.179688 279.820312 C 278.195312 280.832031 279.566406 281.398438 281 281.398438 C 282.433594 281.398438 283.804688 280.832031 284.820312 279.820312 C 285.832031 278.804688 286.398438 277.433594 286.398438 276 Z M 286.398438 276 "/>
<path style=" stroke:none;fill-rule:evenodd;fill:rgb(36.84082%,50.67749%,70.979309%);fill-opacity:1;" d="M 231.398438 112 C 231.398438 110.566406 230.832031 109.195312 229.820312 108.179688 C 228.804688 107.167969 227.433594 106.601562 226 106.601562 C 224.566406 106.601562 223.195312 107.167969 222.179688 108.179688 C 221.167969 109.195312 220.601562 110.566406 220.601562 112 C 220.601562 113.433594 221.167969 114.804688 222.179688 115.820312 C 223.195312 116.832031 224.566406 117.398438 226 117.398438 C 227.433594 117.398438 228.804688 116.832031 229.820312 115.820312 C 230.832031 114.804688 231.398438 113.433594 231.398438 112 Z M 231.398438 112 "/>
<path style=" stroke:none;fill-rule:evenodd;fill:rgb(36.84082%,50.67749%,70.979309%);fill-opacity:1;" d="M 127.398438 148 C 127.398438 146.566406 126.832031 145.195312 125.820312 144.179688 C 124.804688 143.167969 123.433594 142.601562 122 142.601562 C 120.566406 142.601562 119.195312 143.167969 118.179688 144.179688 C 117.167969 145.195312 116.601562 146.566406 116.601562 148 C 116.601562 149.433594 117.167969 150.804688 118.179688 151.820312 C 119.195312 152.832031 120.566406 153.398438 122 153.398438 C 123.433594 153.398438 124.804688 152.832031 125.820312 151.820312 C 126.832031 150.804688 127.398438 149.433594 127.398438 148 Z M 127.398438 148 "/>
</g>
</svg>
