<?xml version="1.0" encoding="UTF-8" standalone="no"?>
<!DOCTYPE svg PUBLIC "-//W3C//DTD SVG 1.1//EN" "http://www.w3.org/Graphics/SVG/1.1/DTD/svg11.dtd">
<svg xmlns="http://www.w3.org/2000/svg" xmlns:xlink="http://www.w3.org/1999/xlink" version="1.1" width="182.532pt" height="97.493pt" viewBox="0 0 182.532 97.493">
<g enable-background="new">
<path transform="matrix(1,0,0,-1,6.227,91.266)" d="M 5.97766 0 C 5.97766 3.3014 3.3014 5.97766 0 5.97766 C -3.3014 5.97766 -5.97766 3.3014 -5.97766 0 C -5.97766 -3.3014 -3.3014 -5.97766 0 -5.97766 C 3.3014 -5.97766 5.97766 -3.3014 5.97766 0 Z M 0 0 "/>
<path transform="matrix(1,0,0,-1,6.227,91.266)" stroke-width=".49814" stroke-linecap="butt" stroke-miterlimit="10" stroke-linejoin="miter" fill="none" stroke="#000000" d="M 5.97766 0 C 5.97766 3.3014 3.3014 5.97766 0 5.97766 C -3.3014 5.97766 -5.97766 3.3014 -5.97766 0 C -5.97766 -3.3014 -3.3014 -5.97766 0 -5.97766 C 3.3014 -5.97766 5.97766 -3.3014 5.97766 0 Z M 0 0 "/>
<path transform="matrix(1,0,0,-1,6.227,91.266)" d="M 62.67128 0 C 62.67128 3.3014 59.99503 5.97766 56.69362 5.97766 C 53.3922 5.97766 50.71596 3.3014 50.71596 0 C 50.71596 -3.3014 53.3922 -5.97766 56.69362 -5.97766 C 59.99503 -5.97766 62.67128 -3.3014 62.67128 0 Z M 56.69362 0 "/>
<path transform="matrix(1,0,0,-1,6.227,91.266)" stroke-width=".49814" stroke-linecap="butt" stroke-miterlimit="10" stroke-linejoin="miter" fill="none" stroke="#000000" d="M 62.67128 0 C 62.67128 3.3014 59.99503 5.97766 56.69362 5.97766 C 53.3922 5.97766 50.71596 3.3014 50.71596 0 C 50.71596 -3.3014 53.3922 -5.97766 56.69362 -5.97766 C 59.99503 -5.97766 62.67128 -3.3014 62.67128 0 Z M 56.69362 0 "/>
<path transform="matrix(1,0,0,-1,6.227,91.266)" d="M 119.3649 0 C 119.3649 3.3014 116.68864 5.97766 113.38724 5.97766 C 110.08582 5.97766 107.40958 3.3014 107.40958 0 C 107.40958 -3.3014 110.08582 -5.97766 113.38724 -5.97766 C 116.68864 -5.97766 119.3649 -3.3014 119.3649 0 Z M 113.38724 0 "/>
<path transform="matrix(1,0,0,-1,6.227,91.266)" stroke-width=".49814" stroke-linecap="butt" stroke-miterlimit="10" stroke-linejoin="miter" fill="none" stroke="#000000" d="M 119.3649 0 C 119.3649 3.3014 116.68864 5.97766 113.38724 5.97766 C 110.08582 5.97766 107.40958 3.3014 107.40958 0 C 107.40958 -3.3014 110.08582 -5.97766 113.38724 -5.97766 C 116.68864 -5.97766 119.3649 -3.3014 119.3649 0 Z M 113.38724 0 "/>
<path transform="matrix(1,0,0,-1,6.227,91.266)" d="M 176.05852 0 C 176.05852 3.3014 173.38227 5.97766 170.08086 5.97766 C 166.77944 5.97766 164.1032 3.3014 164.1032 0 C 164.1032 -3.3014 166.77944 -5.97766 170.08086 -5.97766 C 173.38227 -5.97766 176.05852 -3.3014 176.05852 0 Z M 170.08086 0 "/>
<path transform="matrix(1,0,0,-1,6.227,91.266)" stroke-width=".49814" stroke-linecap="butt" stroke-miterlimit="10" stroke-linejoin="miter" fill="none" stroke="#000000" d="M 176.05852 0 C 176.05852 3.3014 173.38227 5.97766 170.08086 5.97766 C 166.77944 5.97766 164.1032 3.3014 164.1032 0 C 164.1032 -3.3014 166.77944 -5.97766 170.08086 -5.97766 C 173.38227 -5.97766 176.05852 -3.3014 176.05852 0 Z M 170.08086 0 "/>
<path transform="matrix(1,0,0,-1,6.227,91.266)" d="M 62.6713 85.04042 C 62.6713 88.34184 59.99504 91.01808 56.69363 91.01808 C 53.39221 91.01808 50.71597 88.34184 50.71597 85.04042 C 50.71597 81.73901 53.39221 79.06276 56.69363 79.06276 C 59.99504 79.06276 62.6713 81.73901 62.6713 85.04042 Z M 56.69363 85.04042 "/>
<path transform="matrix(1,0,0,-1,6.227,91.266)" stroke-width=".49814" stroke-linecap="butt" stroke-miterlimit="10" stroke-linejoin="miter" fill="none" stroke="#000000" d="M 62.6713 85.04042 C 62.6713 88.34184 59.99504 91.01808 56.69363 91.01808 C 53.39221 91.01808 50.71597 88.34184 50.71597 85.04042 C 50.71597 81.73901 53.39221 79.06276 56.69363 79.06276 C 59.99504 79.06276 62.6713 81.73901 62.6713 85.04042 Z M 56.69363 85.04042 "/>
<path transform="matrix(1,0,0,-1,6.227,91.266)" d="M 119.36491 85.04042 C 119.36491 88.34184 116.68866 91.01808 113.38725 91.01808 C 110.08583 91.01808 107.40959 88.34184 107.40959 85.04042 C 107.40959 81.73901 110.08583 79.06276 113.38725 79.06276 C 116.68866 79.06276 119.36491 81.73901 119.36491 85.04042 Z M 113.38725 85.04042 "/>
<path transform="matrix(1,0,0,-1,6.227,91.266)" stroke-width=".49814" stroke-linecap="butt" stroke-miterlimit="10" stroke-linejoin="miter" fill="none" stroke="#000000" d="M 119.36491 85.04042 C 119.36491 88.34184 116.68866 91.01808 113.38725 91.01808 C 110.08583 91.01808 107.40959 88.34184 107.40959 85.04042 C 107.40959 81.73901 110.08583 79.06276 113.38725 79.06276 C 116.68866 79.06276 119.36491 81.73901 119.36491 85.04042 Z M 113.38725 85.04042 "/>
<path transform="matrix(1,0,0,-1,6.227,91.266)" stroke-width=".79701" stroke-linecap="butt" stroke-miterlimit="10" stroke-linejoin="miter" fill="none" stroke="#000000" d="M 62.92035 0 L 107.1605 0 "/>
<path transform="matrix(1,0,0,-1,6.227,91.266)" stroke-width=".79701" stroke-linecap="butt" stroke-miterlimit="10" stroke-linejoin="miter" fill="none" stroke="#000000" d="M 53.229 79.84363 L 3.46461 5.1968 "/>
<path transform="matrix(1,0,0,-1,6.227,91.266)" stroke-width=".79701" stroke-linecap="butt" stroke-miterlimit="10" stroke-linejoin="miter" fill="none" stroke="#000000" d="M 56.69363 78.81369 L 56.69362 6.22673 "/>
<path transform="matrix(1,0,0,-1,6.227,91.266)" stroke-width=".79701" stroke-linecap="butt" stroke-miterlimit="10" stroke-linejoin="miter" fill="none" stroke="#000000" d="M 60.15825 79.84363 L 109.9226 5.1968 "/>
<path transform="matrix(1,0,0,-1,6.227,91.266)" stroke-width=".79701" stroke-linecap="butt" stroke-miterlimit="10" stroke-linejoin="miter" fill="none" stroke="#000000" d="M 61.67503 81.30435 L 165.09946 3.73625 "/>
<path transform="matrix(1,0,0,-1,6.227,91.266)" stroke-width=".79701" stroke-linecap="butt" stroke-miterlimit="10" stroke-linejoin="miter" fill="none" stroke="#000000" d="M 108.40585 81.30435 L 4.98138 3.73625 "/>
<path transform="matrix(1,0,0,-1,6.227,91.266)" stroke-width=".79701" stroke-linecap="butt" stroke-miterlimit="10" stroke-linejoin="miter" fill="none" stroke="#000000" d="M 109.92262 79.84363 L 60.15823 5.1968 "/>
<path transform="matrix(1,0,0,-1,6.227,91.266)" stroke-width=".79701" stroke-linecap="butt" stroke-miterlimit="10" stroke-linejoin="miter" fill="none" stroke="#000000" d="M 113.38725 78.81369 L 113.38724 6.22673 "/>
<path transform="matrix(1,0,0,-1,6.227,91.266)" stroke-width=".79701" stroke-linecap="butt" stroke-miterlimit="10" stroke-linejoin="miter" fill="none" stroke="#000000" d="M 116.85187 79.84363 L 166.61623 5.1968 "/>
<text xml:space="preserve" transform="matrix(1 0 -0 1 0 97.493)" font-size="9.9626" font-family="CMR10"><tspan y="6.42" x="231.509">1</tspan></text>
</g>
</svg>
